<?xml version="1.0" encoding="utf-8"?>
<svg width="85.012" height="100" viewBox="0 0 85.012 100" fill="none" xmlns="http://www.w3.org/2000/svg">
  <defs>
    <linearGradient id="gradient_1" gradientUnits="userSpaceOnUse" x1="78.432" y1="93.677" x2="-1.182" y2="14.067">
      <stop offset="0" stop-color="#3759EF" />
      <stop offset="0.54" stop-color="#3743EF" />
      <stop offset="1" stop-color="#7C91EF" />
    </linearGradient>
    <linearGradient id="gradient_2" gradientUnits="userSpaceOnUse" x1="32.268" y1="40.701" x2="-4.186" y2="4.244">
      <stop offset="0" stop-color="#34344F" />
      <stop offset="0.26" stop-color="#3B3B57" />
      <stop offset="0.66" stop-color="#50506D" />
      <stop offset="1" stop-color="#666684" />
    </linearGradient>
    <linearGradient id="gradient_3" gradientUnits="userSpaceOnUse" x1="31.487" y1="61.533" x2="-12.507" y2="17.54">
      <stop offset="0" stop-color="#FFD2D2" />
      <stop offset="0.57" stop-color="#FFFFFF" />
      <stop offset="1" stop-color="#FFFFFF" />
    </linearGradient>
  </defs>
  <g>
    <path d="M58.627 3.62575C55.6658 1.42995 52.0992 0.1804 48.4091 0.0694465C48.4091 0.0694465 48.4091 0.0694465 48.4091 0.0694465C37.6618 -0.18292 26.9089 0.251241 16.2198 1.39526C9.07966 2.22974 2.23327 9.0726 1.40454 16.2123C-0.46817 33.7305 -0.46817 66.2626 1.40454 83.783C2.23327 90.922 9.07966 97.7646 16.2198 98.5955C33.694 100.468 51.3183 100.468 68.7921 98.5955C75.9321 97.7646 82.7785 90.922 83.607 83.783C84.884 71.8491 85.2901 52.943 84.8259 36.5809C84.8259 36.5809 84.8259 36.5144 84.8259 36.5144C84.7937 32.9851 83.6491 29.562 81.5537 26.718C75.0958 17.9295 67.3695 10.1538 58.627 3.62575C58.627 3.62575 58.627 3.62575 58.627 3.62575Z" fill="url(#gradient_1)" fill-rule="evenodd" />
    <path d="M36.4528 36.5113C36.4528 36.5113 36.4528 36.5113 36.4528 36.5113C35.0927 36.5386 33.7308 36.5687 32.3798 36.5687C26.6286 36.5654 20.881 36.2501 15.1627 35.6505C15.1627 35.6505 15.1131 35.6505 15.1131 35.6505C11.7064 35.2508 8.35816 33.5516 5.68192 30.8858C3.00689 28.2073 1.31443 24.8597 0.921509 21.4349C0.919971 21.4195 0.919971 21.4067 0.921509 21.3841C0.162373 14.2863 -0.128216 7.1378 0.0515137 0C0.0515137 0 0.0515137 0 0.0515137 0C3.74107 0.110846 7.30786 1.34324 10.2692 3.55255C19.0282 10.0863 26.7664 17.882 33.2312 26.6983C35.3154 29.5177 36.4463 32.9247 36.4621 36.4342C36.4621 36.4342 36.4528 36.5113 36.4528 36.5113Z" fill="url(#gradient_2)" fill-rule="evenodd" transform="translate(48.355 0.072)" />
    <path d="M17.3924 70.0534C17.3924 69.3162 17.2896 66.0767 17.0781 65.1545C16.6493 63.2924 14.9517 61.73 12.9486 61.357C12.9486 61.357 12.9193 61.357 12.9193 61.357L12.7959 61.3393L12.7959 58.232C12.7959 58.232 17.3894 58.232 17.3894 58.232C18.8987 58.2308 20.1216 57.0069 20.1216 55.4976C20.1216 53.9883 18.8986 52.7645 17.3893 52.7633C17.3893 52.7633 12.7959 52.7633 12.7959 52.7633L12.7959 47.2652C12.7959 47.2652 17.3894 47.2652 17.3894 47.2652C18.3668 47.266 19.2703 46.745 19.7593 45.8987C20.2482 45.0524 20.2482 44.0094 19.7593 43.1631C19.2704 42.3168 18.3669 41.7958 17.3895 41.7965C17.3895 41.7965 12.7959 41.7965 12.7959 41.7965L12.7959 36.3014C12.7959 36.3014 17.3894 36.3014 17.3894 36.3014C18.3668 36.3022 19.2703 35.7812 19.7593 34.9349C20.2482 34.0885 20.2482 33.0456 19.7593 32.1993C19.2704 31.3529 18.3669 30.8319 17.3895 30.8327C17.3895 30.8327 12.7959 30.8327 12.7959 30.8327L12.7959 25.3346C12.7959 25.3346 17.3894 25.3346 17.3894 25.3346C18.8987 25.3334 20.1216 24.1095 20.1216 22.6002C20.1216 21.0909 18.8986 19.8671 17.3893 19.8659C17.3893 19.8659 12.7959 19.8659 12.7959 19.8659L12.7959 14.3678C12.7959 14.3678 17.3894 14.3678 17.3894 14.3678C18.8996 14.3678 20.1238 13.1436 20.1238 11.6335C20.1238 10.1233 18.8996 8.89912 17.3894 8.89912C17.3894 8.89912 12.7959 8.89912 12.7959 8.89912C12.7959 8.89912 12.7959 0 12.7959 0C10.9749 0.0254527 9.15203 0.0714667 7.32716 0.13804C7.32716 0.13804 7.32716 3.43042 7.32716 3.43042C7.32716 3.43042 2.73658 3.43042 2.73658 3.43042C1.22643 3.43042 0.0022049 4.65463 0.0022049 6.16477C0.0022049 7.67491 1.22643 8.89912 2.73658 8.89912C2.73658 8.89912 7.32716 8.89912 7.32716 8.89912L7.32716 14.3972C7.32716 14.3972 2.73658 14.3972 2.73658 14.3972C1.75917 14.3964 0.855658 14.9174 0.366716 15.7637C-0.122225 16.61 -0.122238 17.653 0.366676 18.4993C0.855595 19.3456 1.75908 19.8666 2.7365 19.8659C2.7365 19.8659 7.32708 19.8659 7.32708 19.8659L7.32708 25.364C7.32708 25.364 2.73658 25.364 2.73658 25.364C1.75917 25.3632 0.855658 25.8842 0.366716 26.7305C-0.122225 27.5768 -0.122238 28.6197 0.366676 29.4661C0.855595 30.3124 1.75908 30.8334 2.7365 30.8327C2.7365 30.8327 7.32708 30.8327 7.32708 30.8327L7.32708 36.3278C7.32708 36.3278 2.73658 36.3278 2.73658 36.3278C1.75917 36.327 0.855658 36.848 0.366716 37.6943C-0.122225 38.5406 -0.122238 39.5836 0.366676 40.4299C0.855595 41.2763 1.75908 41.7973 2.7365 41.7965C2.7365 41.7965 7.32708 41.7965 7.32708 41.7965L7.32708 47.2946C7.32708 47.2946 2.73658 47.2946 2.73658 47.2946C1.75917 47.2938 0.855658 47.8148 0.366716 48.6611C-0.122225 49.5074 -0.122238 50.5504 0.366676 51.3967C0.855595 52.243 1.75908 52.764 2.7365 52.7633C2.7365 52.7633 7.32708 52.7633 7.32708 52.7633L7.32708 61.3335L7.20372 61.3511C7.20372 61.3511 7.17435 61.3511 7.17435 61.3511C5.17423 61.7241 3.47369 63.2866 3.06251 65.131C2.84811 66.0327 2.73943 69.3045 2.74531 70.0475C2.75118 70.7906 2.84811 74.0624 3.05663 74.9435C3.48544 76.8056 5.18304 78.3681 7.1861 78.7411C7.1861 78.7411 7.2184 78.7411 7.2184 78.7411C9.10937 79.0583 11.04 79.0583 12.9309 78.7411C12.9309 78.7411 12.9603 78.7411 12.9603 78.7411C14.9633 78.3681 16.6609 76.8056 17.0868 74.9612C17.2984 74.0683 17.3953 70.7935 17.3924 70.0534ZM11.7738 73.3987C11.2092 73.4855 10.6386 73.5268 10.0674 73.522C9.49229 73.5269 8.91774 73.4857 8.34924 73.3987C8.27874 72.5176 8.19357 70.726 8.20238 70.0887C8.20238 70.0887 8.20238 70.0153 8.20238 70.0153C8.20238 69.3779 8.27874 67.5805 8.34924 66.7053C9.48484 66.5408 10.6382 66.5408 11.7738 66.7053C11.8472 67.5864 11.9324 69.3779 11.9236 70.0182C11.9236 70.0182 11.9236 70.0887 11.9236 70.0887C11.9324 70.726 11.8472 72.5234 11.7738 73.3987C11.7738 73.3987 11.7738 73.3987 11.7738 73.3987Z" fill="url(#gradient_3)" transform="translate(26.074 0.034)" />
  </g>
</svg>