<?xml version="1.0" encoding="utf-8"?>
<svg width="84.756" height="100" viewBox="0 0 84.756 100" fill="none" xmlns="http://www.w3.org/2000/svg">
  <defs>
    <linearGradient id="gradient_1" gradientUnits="userSpaceOnUse" x1="78.213" y1="93.666" x2="-1.176" y2="14.052">
      <stop offset="0" stop-color="#BCE4ED" />
      <stop offset="0.54" stop-color="#FFFFFF" />
      <stop offset="1" stop-color="#FFFFFF" />
    </linearGradient>
    <linearGradient id="gradient_2" gradientUnits="userSpaceOnUse" x1="49.177" y1="61.071" x2="-4.98" y2="6.594">
      <stop offset="0" stop-color="#34344F" />
      <stop offset="0.271" stop-color="#3B3B57" />
      <stop offset="0.646" stop-color="#50506D" />
      <stop offset="1" stop-color="#666684" />
    </linearGradient>
    <linearGradient id="gradient_3" gradientUnits="userSpaceOnUse" x1="32.176" y1="40.685" x2="-4.178" y2="4.231">
      <stop offset="0" stop-color="#34344F" />
      <stop offset="0.26" stop-color="#3B3B57" />
      <stop offset="0.66" stop-color="#50506D" />
      <stop offset="1" stop-color="#666684" />
    </linearGradient>
  </defs>
  <g>
    <path d="M58.4643 3.61357C55.5086 1.41536 51.9517 0.179445 48.2734 0.0726591C48.2734 0.0726591 48.2734 0.0726591 48.2734 0.0726591C37.5569 -0.188394 26.8347 0.254162 16.1758 1.39749C9.05615 2.22723 2.21573 9.07344 1.40197 16.2133C-0.46732 33.7335 -0.46732 66.2607 1.40197 83.7808C2.22595 90.9207 9.05615 97.7805 16.1758 98.5966C33.5953 100.468 51.1643 100.468 68.5838 98.5966C75.7035 97.7703 82.5439 90.9207 83.3577 83.7808C84.6277 71.8503 85.0329 52.9541 84.5732 36.5812C84.5732 36.5812 84.5732 36.5129 84.5732 36.5129C84.5446 32.9842 83.4054 29.5545 81.3182 26.7133C74.8819 17.9218 67.18 10.1371 58.4643 3.61358C58.4643 3.61358 58.4643 3.61357 58.4643 3.61357Z" fill="url(#gradient_1)" fill-rule="evenodd" />
    <path d="M0 4.97213C0 4.97213 0 2.68662 0 2.68662C0 1.20284 1.19579 0 2.67087 0C2.67087 0 23.4383 0 23.4383 0C24.9133 -3.8147e-06 26.1091 1.20284 26.1091 2.68662C26.1091 2.68662 26.1091 4.96348 26.1091 4.96348C26.108 6.36685 25.0335 7.53293 23.6425 7.64023C22.2515 7.74754 21.0127 6.75991 20.7989 5.37318C20.7989 5.37318 15.7269 5.37318 15.7269 5.37318L15.7269 23.5303C15.7269 23.5303 16.1314 23.5303 16.1314 23.5303C17.6065 23.5303 18.8022 24.7331 18.8022 26.2169C18.8022 27.7007 17.6065 28.9035 16.1314 28.9035C16.1314 28.9035 9.97775 28.9035 9.97775 28.9035C8.5035 28.9023 7.30901 27.6998 7.30904 26.2169C7.30906 24.7339 8.50358 23.5314 9.97783 23.5303C9.97783 23.5303 10.3852 23.5303 10.3852 23.5303L10.3852 5.38191C10.3852 5.38191 5.31019 5.38191 5.31019 5.38191C5.09637 6.76863 3.85756 7.75622 2.46658 7.64889C1.07559 7.54155 0.00104618 6.37543 4.76837e-06 4.97213C4.76837e-06 4.97213 0 4.97213 0 4.97213ZM53.2223 50.5178C53.2223 50.5178 2.67088 50.5178 2.67088 50.5178C1.19662 50.519 0.00213909 51.7215 0.00216103 53.2045C0.00218296 54.6874 1.1967 55.8899 2.67096 55.891C2.67096 55.891 53.2223 55.891 53.2223 55.891C54.6966 55.8899 55.8911 54.6873 55.8911 53.2044C55.891 51.7214 54.6965 50.519 53.2223 50.5178C53.2223 50.5178 53.2223 50.5178 53.2223 50.5178ZM53.2223 37.0298C53.2223 37.0298 2.67088 37.0298 2.67088 37.0298C1.19662 37.031 0.00213909 38.2335 0.00216103 39.7165C0.00218296 41.1995 1.1967 42.4019 2.67096 42.4031C2.67096 42.4031 53.2223 42.4031 53.2223 42.4031C54.6966 42.4019 55.8911 41.1994 55.8911 39.7164C55.891 38.2335 54.6965 37.031 53.2223 37.0298C53.2223 37.0298 53.2223 37.0298 53.2223 37.0298ZM32.2484 28.9151C32.2484 28.9151 53.2109 28.9151 53.2109 28.9151C54.1656 28.9159 55.0481 28.404 55.5257 27.5725C56.0033 26.7409 56.0033 25.7162 55.5257 24.8846C55.0482 24.0531 54.1657 23.5411 53.211 23.5419C53.211 23.5419 32.2484 23.5419 32.2484 23.5419C31.2937 23.5411 30.4112 24.053 29.9336 24.8845C29.456 25.7161 29.456 26.7408 29.9336 27.5724C30.4111 28.404 31.2936 28.9159 32.2483 28.9151C32.2483 28.9151 32.2484 28.9151 32.2484 28.9151Z" fill="url(#gradient_2)" transform="translate(15.452 22.356)" />
    <path d="M36.3506 36.4983C36.3506 36.4983 36.3506 36.4983 36.3506 36.4983C34.9886 36.5325 33.6267 36.5564 32.2851 36.5564C26.5504 36.5542 20.8199 36.2464 15.1177 35.6344C15.1177 35.6344 15.0701 35.6344 15.0701 35.6344C11.6652 35.2383 8.33179 33.5481 5.66236 30.8745C2.99293 28.2009 1.31091 24.8478 0.915947 21.4401C0.917587 21.4242 0.917587 21.4081 0.915947 21.3922C0.16164 14.288 -0.127266 7.14199 0.0510597 0C0.0510597 0 0.0510597 0 0.0510597 0C3.73038 0.109761 7.28748 1.34929 10.2419 3.55115C18.9775 10.0861 26.6947 17.8885 33.1398 26.702C35.214 29.5265 36.3385 32.9394 36.3506 36.4472C36.3506 36.4472 36.3506 36.4983 36.3506 36.4983Z" fill="url(#gradient_3)" fill-rule="evenodd" transform="translate(48.222 0.073)" />
  </g>
</svg>