<?xml version="1.0" encoding="utf-8"?>
<svg width="100" height="100" viewBox="0 0 100 100" fill="none" xmlns="http://www.w3.org/2000/svg">
  <defs>
    <linearGradient id="gradient_1" gradientUnits="userSpaceOnUse" x1="87.094" y1="101.398" x2="6.287" y2="5.81">
      <stop offset="0" stop-color="#353550" />
      <stop offset="1" stop-color="#666684" />
    </linearGradient>
    <linearGradient id="gradient_2" gradientUnits="userSpaceOnUse" x1="43.371" y1="51.516" x2="-0.652" y2="7.729">
      <stop offset="0" stop-color="#BCE4ED" />
      <stop offset="0.54" stop-color="#FFFFFF" />
      <stop offset="1" stop-color="#FFFFFF" />
    </linearGradient>
    <linearGradient id="gradient_3" gradientUnits="userSpaceOnUse" x1="27.27" y1="33.589" x2="-2.762" y2="3.627">
      <stop offset="0" stop-color="#34344F" />
      <stop offset="0.271" stop-color="#3B3B57" />
      <stop offset="0.646" stop-color="#50506D" />
      <stop offset="1" stop-color="#666684" />
    </linearGradient>
    <linearGradient id="gradient_4" gradientUnits="userSpaceOnUse" x1="17.843" y1="22.377" x2="-2.317" y2="2.327">
      <stop offset="0" stop-color="#34344F" />
      <stop offset="0.26" stop-color="#3B3B57" />
      <stop offset="0.66" stop-color="#50506D" />
      <stop offset="1" stop-color="#666684" />
    </linearGradient>
  </defs>
  <g>
    <path d="M85.69 98.0667C61.9416 100.644 38.0435 100.644 14.2951 98.0667C8.26871 97.3719 2.48019 90.8059 1.71367 83.6598C-0.571203 61.1014 -0.571239 38.3008 1.71365 15.7422C2.48017 8.59957 8.26576 2.04057 14.2951 1.34229C19.5286 0.772545 24.7659 0.329026 30.0072 0.0117284C31.9733 -0.12083 33.8727 0.876486 35.1085 2.69021C38.1893 7.14046 41.4139 11.6741 44.7296 16.239C45.5842 17.4178 46.8324 18.0945 48.1452 18.0907C61.1769 18.049 74.2028 18.4473 87.2228 19.2857C93.5341 19.7339 99.2287 26.0289 99.5987 33.1819C100.421 50.0151 99.9793 66.9014 98.2801 83.6424C97.505 90.8025 91.7164 97.3615 85.69 98.0667Z" fill="url(#gradient_1)" fill-rule="evenodd" />
    <g transform="translate(27 29)">
      <path d="M32.4202 1.98746C30.7812 0.778447 28.8088 0.0986948 26.7691 0.0399625C26.7691 0.0399625 26.7691 0.0399625 26.7691 0.0399625C20.8264 -0.103617 14.8807 0.139789 8.96995 0.768621C5.02191 1.22498 1.22869 4.99039 0.777432 8.91732C-0.259143 18.5534 -0.259143 36.4434 0.777432 46.0794C1.23436 50.0064 5.02191 53.7793 8.96995 54.2281C18.6296 55.2573 28.3721 55.2573 38.0318 54.2281C41.9799 53.7737 45.7731 50.0064 46.2243 46.0794C46.9286 39.5177 47.1533 29.1247 46.8984 20.1197C46.8984 20.1197 46.8984 20.0821 46.8984 20.0821C46.8825 18.1413 46.2508 16.255 45.0934 14.6923C41.5242 9.857 37.2533 5.57541 32.4202 1.98747C32.4202 1.98747 32.4202 1.98746 32.4202 1.98746Z" fill="url(#gradient_2)" fill-rule="evenodd" />
      <path d="M0 2.73467C0 2.73467 0 1.47764 0 1.47764C0 0.661564 0.663101 0 1.48108 0C1.48108 0 12.9972 0 12.9972 0C13.8152 -2.86102e-06 14.4783 0.661561 14.4783 1.47764C14.4783 1.47764 14.4783 2.72991 14.4783 2.72991C14.4777 3.50177 13.8818 4.14311 13.1105 4.20213C12.3391 4.26114 11.6522 3.71795 11.5336 2.95525C11.5336 2.95525 8.72102 2.95525 8.72102 2.95525L8.72102 12.9416C8.72102 12.9416 8.94533 12.9416 8.94533 12.9416C9.76331 12.9417 10.4264 13.6032 10.4264 14.4193C10.4264 15.2354 9.76331 15.8969 8.94533 15.8969C8.94533 15.8969 5.53296 15.8969 5.53296 15.8969C4.71545 15.8963 4.05307 15.2349 4.05308 14.4193C4.05309 13.6036 4.71549 12.9423 5.53301 12.9417C5.53301 12.9417 5.75891 12.9417 5.75891 12.9417L5.75891 2.96005C5.75891 2.96005 2.94466 2.96005 2.94466 2.96005C2.82609 3.72275 2.13913 4.26592 1.36779 4.20689C0.596449 4.14785 0.000579834 3.50649 2.86102e-06 2.73467C2.86102e-06 2.73467 0 2.73467 0 2.73467ZM29.5134 27.7848C29.5134 27.7848 1.48108 27.7848 1.48108 27.7848C0.663557 27.7855 0.0011797 28.4468 0.00119209 29.2625C0.00120354 30.0781 0.663601 30.7394 1.48112 30.7401C1.48112 30.7401 29.5134 30.7401 29.5134 30.7401C30.3309 30.7394 30.9933 30.078 30.9933 29.2624C30.9933 28.4468 30.3309 27.7854 29.5133 27.7848C29.5133 27.7848 29.5134 27.7848 29.5134 27.7848ZM29.5134 20.3664C29.5134 20.3664 1.48108 20.3664 1.48108 20.3664C0.663557 20.3671 0.0011797 21.0284 0.00119209 21.8441C0.00120354 22.6597 0.663601 23.3211 1.48112 23.3217C1.48112 23.3217 29.5134 23.3217 29.5134 23.3217C30.3309 23.321 30.9933 22.6597 30.9933 21.844C30.9933 21.0284 30.3309 20.367 29.5133 20.3664C29.5133 20.3664 29.5134 20.3664 29.5134 20.3664ZM17.8827 15.9033C17.8827 15.9033 29.507 15.9033 29.507 15.9033C30.0365 15.9038 30.5258 15.6222 30.7907 15.1649C31.0555 14.7075 31.0555 14.1439 30.7907 13.6865C30.5259 13.2292 30.0365 12.9476 29.5071 12.948C29.5071 12.948 17.8827 12.948 17.8827 12.948C17.3533 12.9476 16.8639 13.2292 16.5991 13.6865C16.3342 14.1439 16.3342 14.7075 16.5991 15.1648C16.8639 15.6222 17.3533 15.9037 17.8827 15.9033C17.8827 15.9033 17.8827 15.9033 17.8827 15.9033Z" fill="url(#gradient_3)" transform="translate(8.568 12.296)" />
      <path d="M20.1575 20.0741C20.1575 20.0741 20.1575 20.0741 20.1575 20.0741C19.4022 20.0929 18.647 20.106 17.9031 20.106C14.723 20.1048 11.5453 19.9355 8.38324 19.5989C8.38324 19.5989 8.35681 19.5989 8.35681 19.5989C6.46869 19.3811 4.62023 18.4515 3.13995 16.981C1.65967 15.5105 0.726942 13.6663 0.507919 11.792C0.508831 11.7833 0.508831 11.7745 0.507919 11.7657C0.0896339 7.85842 -0.0705738 3.9281 0.0283146 0C0.0283146 0 0.0283146 0 0.0283146 0C2.06861 0.0603686 4.04112 0.742107 5.67944 1.95313C10.5236 5.54737 14.803 9.8387 18.377 14.6861C19.5272 16.2395 20.1508 18.1167 20.1575 20.0459C20.1575 20.0459 20.1575 20.0741 20.1575 20.0741Z" fill="url(#gradient_4)" fill-rule="evenodd" transform="translate(26.741 0.04)" />
    </g>
  </g>
</svg>