<?xml version="1.0" encoding="utf-8"?>
<svg width="100" height="100" viewBox="0 0 100 100" fill="none" xmlns="http://www.w3.org/2000/svg">
  <defs>
    <linearGradient id="gradient_1" gradientUnits="userSpaceOnUse" x1="23.077" y1="0" x2="23.077" y2="46.154">
      <stop offset="0" stop-color="#103F91" />
      <stop offset="0.5" stop-color="#2E508B" />
      <stop offset="1" stop-color="#4571BE" />
    </linearGradient>
    <linearGradient id="gradient_2" gradientUnits="userSpaceOnUse" x1="3.077" y1="46.154" x2="46.154" y2="0">
      <stop offset="0" stop-color="#103F91" />
      <stop offset="0.5" stop-color="#2E508B" />
      <stop offset="1" stop-color="#4571BE" />
    </linearGradient>
    <linearGradient id="gradient_3" gradientUnits="userSpaceOnUse" x1="43.077" y1="46.154" x2="0.769" y2="0">
      <stop offset="0" stop-color="#103F91" />
      <stop offset="0.5" stop-color="#2E508B" />
      <stop offset="1" stop-color="#4571BE" />
    </linearGradient>
  </defs>
  <g>
    <path d="M36.1538 0C41.6774 0 46.1538 4.4764 46.1538 10L46.1538 36.1538C46.1538 41.6774 41.6774 46.1538 36.1538 46.1538L10 46.1538C4.4764 46.1538 0 41.6774 0 36.1538L0 10C0 4.4764 4.4764 0 10 0L36.1538 0Z" fill="url(#gradient_1)" />
    <path d="M36.1538 0C41.6774 0 46.1538 4.4764 46.1538 10L46.1538 36.1538C46.1538 41.6774 41.6774 46.1538 36.1538 46.1538L10 46.1538C4.4764 46.1538 0 41.6774 0 36.1538L0 10C0 4.4764 4.4764 0 10 0L36.1538 0Z" fill="url(#gradient_1)" transform="translate(53.846 0)" />
    <path d="M36.1538 0C41.6774 0 46.1538 4.4764 46.1538 10L46.1538 36.1538C46.1538 41.6774 41.6774 46.1538 36.1538 46.1538L10 46.1538C4.4764 46.1538 0 41.6774 0 36.1538L0 10C0 4.4764 4.4764 0 10 0L36.1538 0Z" fill="url(#gradient_2)" transform="translate(0 53.846)" />
    <path d="M36.1538 0C41.6774 0 46.1538 4.4764 46.1538 10L46.1538 36.1538C46.1538 41.6774 41.6774 46.1538 36.1538 46.1538L10 46.1538C4.4764 46.1538 0 41.6774 0 36.1538L0 10C0 4.4764 4.4764 0 10 0L36.1538 0Z" fill="url(#gradient_3)" transform="translate(53.846 53.846)" />
  </g>
</svg>