<?xml version="1.0" encoding="utf-8"?>
<svg width="106.043" height="100" viewBox="0 0 106.043 100" fill="none" xmlns="http://www.w3.org/2000/svg">
  <defs>
    <linearGradient id="gradient_1" gradientUnits="userSpaceOnUse" x1="92.346" y1="90.889" x2="6.666" y2="5.208">
      <stop offset="0" stop-color="#0E95E0" />
      <stop offset="1" stop-color="#2FBDEE" />
    </linearGradient>
    <linearGradient id="gradient_2" gradientUnits="userSpaceOnUse" x1="91.321" y1="71.553" x2="14.718" y2="-5.051">
      <stop offset="0" stop-color="#1EB4EB" />
      <stop offset="0.54" stop-color="#1EB4EB" />
      <stop offset="1" stop-color="#92F4FE" />
    </linearGradient>
    <linearGradient id="gradient_3" gradientUnits="userSpaceOnUse" x1="41.31" y1="36.856" x2="12.518" y2="8.064">
      <stop offset="0" stop-color="#BCE4ED" />
      <stop offset="0.57" stop-color="#FFFFFF" />
      <stop offset="1" stop-color="#FFFFFF" />
    </linearGradient>
  </defs>
  <g>
    <path d="M90.858 87.9022C65.6773 90.2128 40.3379 90.2128 15.1572 87.9022C8.76739 87.2794 2.62977 81.394 1.81702 74.9886C-0.605652 54.7684 -0.60569 34.331 1.817 14.1105C2.62975 7.70824 8.76426 1.82907 15.1572 1.20316C20.7063 0.692472 26.2596 0.294923 31.8169 0.0105128C33.9016 -0.108306 35.9156 0.78564 37.2259 2.41138C40.4924 6.40037 43.9116 10.4641 47.4272 14.5558C48.3333 15.6125 49.6569 16.2191 51.0488 16.2156C64.8665 16.1782 78.678 16.5353 92.4832 17.2868C99.1751 17.6885 105.213 23.331 105.605 29.7427C106.477 44.8311 106.009 59.9672 104.207 74.973C103.385 81.3909 97.2478 87.2701 90.858 87.9022Z" fill="url(#gradient_1)" transform="translate(0.012 0)" />
    <path d="M53.0132 8.01086e-05C39.8516 8.01086e-05 26.6961 0.356108 13.5469 1.06817C6.85494 1.46987 0.816962 7.11238 0.424604 13.524C-0.441078 28.5987 0.0135609 39.5599 1.81966 54.6128C2.64174 61.0213 8.79494 66.9099 15.1692 67.5326C27.7642 68.6869 40.3809 69.265 53.0195 69.2671C65.658 69.2692 78.2737 68.6911 90.8666 67.5326C97.2596 66.9099 103.394 61.0245 104.21 54.6222C106.016 39.5692 106.471 28.6081 105.605 13.5334C105.213 7.11549 99.1778 1.47299 92.4828 1.07751C79.3398 0.352997 66.1832 -0.00614929 53.0132 8.01086e-05Z" fill="url(#gradient_2)" transform="translate(0 30.733)" />
    <path d="M21.8041 45.1359C20.9061 45.1331 20.0599 44.7152 19.5118 44.0039C18.9637 43.2926 18.7754 42.3678 19.0015 41.4988C19.0015 41.4988 29.3679 2.08847 29.3679 2.08847C29.8077 0.579643 31.3697 -0.303989 32.8895 0.0962257C34.4093 0.496445 35.3334 2.03475 34.9731 3.5645C34.9731 3.5645 24.6067 42.9717 24.6067 42.9717C24.2718 44.2455 23.1211 45.134 21.8041 45.1359ZM15.4827 35.8625C16.0268 35.3188 16.3325 34.5812 16.3325 33.812C16.3325 33.0428 16.0268 32.3052 15.4827 31.7614C15.4827 31.7614 6.25295 22.5316 6.25295 22.5316C6.25295 22.5316 15.4827 13.3018 15.4827 13.3018C16.2327 12.5734 16.5323 11.4975 16.2669 10.4862C16.0014 9.47496 15.212 8.68495 14.201 8.41873C13.1899 8.15252 12.1138 8.45132 11.3848 9.20074C11.3848 9.20074 1.37649 19.2059 1.37649 19.2059C-0.45883 21.042 -0.45883 24.0181 1.37649 25.8542C1.37649 25.8542 11.3848 35.8625 11.3848 35.8625C12.5174 36.9916 14.3501 36.9916 15.4827 35.8625C15.4827 35.8625 15.4827 35.8625 15.4827 35.8625ZM42.3033 35.8625C42.3033 35.8625 52.3116 25.8543 52.3116 25.8543C54.1469 24.0182 54.1469 21.0421 52.3116 19.2059C52.3116 19.2059 42.3033 9.20076 42.3033 9.20076C41.1663 8.09633 39.3531 8.10986 38.2326 9.23113C37.1122 10.3524 37.1001 12.1657 38.2054 13.3019C38.2054 13.3019 47.4352 22.5317 47.4352 22.5317C47.4352 22.5317 38.2054 31.7614 38.2054 31.7614C37.1001 32.8976 37.1122 34.7109 38.2326 35.8322C39.3531 36.9535 41.1663 36.967 42.3033 35.8625C42.3033 35.8625 42.3033 35.8625 42.3033 35.8625Z" fill="url(#gradient_3)" transform="translate(26.174 41.826)" />
  </g>
</svg>