<?xml version="1.0" encoding="utf-8"?>
<svg width="85.013" height="100" viewBox="0 0 85.013 100" fill="none" xmlns="http://www.w3.org/2000/svg">
  <defs>
    <linearGradient id="gradient_1" gradientUnits="userSpaceOnUse" x1="78.432" y1="93.677" x2="-1.183" y2="14.065">
      <stop offset="0" stop-color="#6F2EFE" />
      <stop offset="0.36" stop-color="#6F2EFE" />
      <stop offset="1" stop-color="#AE90FF" />
    </linearGradient>
    <linearGradient id="gradient_2" gradientUnits="userSpaceOnUse" x1="32.268" y1="40.696" x2="-4.186" y2="4.241">
      <stop offset="0" stop-color="#34344F" />
      <stop offset="0.26" stop-color="#3B3B57" />
      <stop offset="0.66" stop-color="#50506D" />
      <stop offset="1" stop-color="#666684" />
    </linearGradient>
    <linearGradient id="gradient_3" gradientUnits="userSpaceOnUse" x1="43.539" y1="38.94" x2="13.276" y2="8.674">
      <stop offset="0" stop-color="#E0DCFF" />
      <stop offset="0.57" stop-color="#FFFFFF" />
      <stop offset="1" stop-color="#FFFFFF" />
    </linearGradient>
  </defs>
  <g>
    <path d="M58.6272 3.62716C55.6653 1.4246 52.0987 0.184147 48.4093 0.0733541C48.4093 0.0733541 48.4093 0.0733541 48.4093 0.0733541C37.662 -0.189211 26.9091 0.253279 16.2198 1.39794C9.07983 2.22618 2.23361 9.0724 1.40537 16.2123C-0.468457 33.7317 -0.468457 66.2623 1.40537 83.7787C2.23361 90.9216 9.07983 97.7678 16.2198 98.596C33.6941 100.468 51.3183 100.468 68.7926 98.596C75.9326 97.7678 82.7788 90.9216 83.607 83.7787C84.8846 71.8485 85.2899 52.9399 84.8288 36.5806C84.8288 36.5806 84.8288 36.5131 84.8288 36.5131C84.7998 32.9837 83.6544 29.5539 81.5567 26.7152C75.099 17.9262 67.3716 10.1453 58.6273 3.62723C58.6273 3.62723 58.6272 3.62716 58.6272 3.62716Z" fill="url(#gradient_1)" />
    <path d="M36.4563 36.5103C36.4563 36.5103 36.4563 36.5103 36.4563 36.5103C35.0935 36.5426 33.7337 36.5661 32.3797 36.5661C26.6285 36.5647 20.8815 36.2578 15.1629 35.6468C15.1629 35.6468 15.113 35.6468 15.113 35.6468C11.706 35.2532 8.35779 33.5615 5.68215 30.8859C3.00651 28.2103 1.31474 24.8562 0.921173 21.4404C0.91975 21.4238 0.91975 21.4071 0.921173 21.3905C0.1619 14.2871 -0.128506 7.1415 0.051815 0C0.051815 0 0.051815 0 0.051815 0C3.74228 0.110215 7.30995 1.35072 10.2727 3.55387C19.0335 10.0876 26.7723 17.8897 33.2344 26.7035C35.3174 29.5271 36.4488 32.9398 36.4651 36.4486C36.4651 36.4486 36.4563 36.5103 36.4563 36.5103Z" fill="url(#gradient_2)" transform="translate(48.355 0.073)" />
    <path d="M22.9448 47.6838C22.0974 47.6823 21.2985 47.2885 20.7813 46.6172C20.264 45.946 20.0869 45.0731 20.3014 44.2533C20.3014 44.2533 31.3829 2.12162 31.3829 2.12162C31.6063 1.14992 32.341 0.376873 33.3001 0.104256C34.2591 -0.168354 35.2906 0.102684 35.9917 0.811573C36.6929 1.52045 36.9526 2.5548 36.6695 3.51083C36.6695 3.51083 25.5881 45.6455 25.5881 45.6455C25.2711 46.8457 24.1861 47.6823 22.9448 47.6838ZM15.9282 37.8682C16.4413 37.3554 16.7296 36.6596 16.7296 35.9342C16.7296 35.2087 16.4413 34.513 15.9282 34.0001C15.9282 34.0001 5.80132 23.8732 5.80132 23.8732C5.80132 23.8732 15.9282 13.7464 15.9282 13.7464C16.9398 12.67 16.9137 10.9847 15.8692 9.94022C14.8247 8.89571 13.1394 8.86959 12.0631 9.88123C12.0631 9.88123 1.36346 20.5779 1.36346 20.5779C-0.454486 22.3987 -0.454486 25.3478 1.36346 27.1686C1.36346 27.1686 12.0631 37.8682 12.0631 37.8682C13.1314 38.9332 14.8599 38.9332 15.9282 37.8682C15.9282 37.8682 15.9282 37.8682 15.9282 37.8682ZM44.6024 37.8682C44.6024 37.8682 55.302 27.1686 55.302 27.1686C57.12 25.3478 57.12 22.3987 55.302 20.5779C55.302 20.5779 44.6024 9.89006 44.6024 9.89006C43.526 8.87846 41.8408 8.9046 40.7963 9.9491C39.7518 10.9936 39.7257 12.6788 40.7373 13.7552C40.7373 13.7552 50.8642 23.8821 50.8642 23.8821C50.8642 23.8821 40.7373 34.009 40.7373 34.009C39.7604 35.0902 39.803 36.7475 40.8341 37.7771C41.8653 38.8067 43.5227 38.8468 44.6024 37.8682C44.6024 37.8682 44.6024 37.8682 44.6024 37.8682Z" fill="url(#gradient_3)" transform="translate(14.163 38.568)" />
  </g>
</svg>