<?xml version="1.0" encoding="utf-8"?>
<svg width="106.04" height="100" viewBox="0 0 106.04 100" fill="none" xmlns="http://www.w3.org/2000/svg">
  <defs>
    <linearGradient id="gradient_1" gradientUnits="userSpaceOnUse" x1="92.346" y1="90.889" x2="6.666" y2="5.208">
      <stop offset="0" stop-color="#FF6224" />
      <stop offset="0.54" stop-color="#FF6224" />
      <stop offset="1" stop-color="#FFAD8A" />
    </linearGradient>
    <linearGradient id="gradient_2" gradientUnits="userSpaceOnUse" x1="91.318" y1="71.553" x2="14.715" y2="-5.051">
      <stop offset="0" stop-color="#FE7838" />
      <stop offset="0.54" stop-color="#FE7636" />
      <stop offset="1" stop-color="#FFAD8A" />
    </linearGradient>
  </defs>
  <g>
    <g>
      <path d="M90.8579 87.9022C65.6773 90.2128 40.3379 90.2128 15.1572 87.9022C8.76739 87.2794 2.62977 81.394 1.81702 74.9886C-0.605652 54.7684 -0.60569 34.331 1.817 14.1105C2.62975 7.70824 8.76426 1.82907 15.1572 1.20316C20.7063 0.692472 26.2596 0.294923 31.8169 0.0105128C33.9016 -0.108306 35.9156 0.78564 37.2259 2.41138C40.4924 6.40037 43.9116 10.4641 47.4272 14.5558C48.3333 15.6125 49.6569 16.2191 51.0488 16.2156C64.8665 16.1782 78.678 16.5353 92.4832 17.2868C99.1751 17.6885 105.213 23.331 105.605 29.7427C106.477 44.8311 106.009 59.9672 104.207 74.973C103.385 81.3909 97.2478 87.2701 90.8579 87.9022Z" fill="url(#gradient_1)" transform="translate(0.009 0)" />
      <path d="M53.0132 8.01086e-05C39.8536 8.01086e-05 26.6982 0.356108 13.5469 1.06817C6.85494 1.46987 0.816962 7.11238 0.424604 13.524C-0.441078 28.5987 0.0135609 39.5599 1.81966 54.6128C2.63863 61.0213 8.77626 66.9099 15.1661 67.5326C27.7611 68.6869 40.3778 69.265 53.0164 69.2671C65.6549 69.2692 78.2706 68.6911 90.8635 67.5326C97.2564 66.9099 103.391 61.0245 104.207 54.6222C106.013 39.5692 106.468 28.6081 105.602 13.5334C105.21 7.11549 99.1747 1.47299 92.4827 1.07751C79.3356 0.352997 66.1791 -0.00614929 53.0132 8.01086e-05Z" fill="url(#gradient_2)" transform="translate(0 30.733)" />
    </g>
    <g transform="translate(34 43)">
      <path d="M26.4546 1.63222C25.1181 0.64107 23.5087 0.0828662 21.8439 0.0330093C21.8439 0.0330093 21.8439 0.0330093 21.8439 0.0330093C16.9944 -0.085145 12.1423 0.113976 7.3189 0.629073C4.09713 1.00178 1.00788 4.08258 0.63415 7.29555C-0.211384 15.1793 -0.211384 29.818 0.63415 37.7004C1.00788 40.9147 4.09713 43.9955 7.3189 44.3682C15.2039 45.2106 23.1566 45.2106 31.0416 44.3682C34.2634 43.9955 37.3526 40.9147 37.7263 37.7004C38.3028 32.3318 38.4857 23.823 38.2777 16.4613C38.2777 16.4613 38.2777 16.4309 38.2777 16.4309C38.2645 14.8426 37.7477 13.2993 36.8011 12.0219C33.8872 8.0668 30.4003 4.56538 26.4546 1.63226C26.4546 1.63226 26.4546 1.63222 26.4546 1.63222Z" fill="#FFFFFF" />
      <path d="M16.4503 16.4296C16.4503 16.4296 16.4503 16.4296 16.4503 16.4296C15.8354 16.4442 15.2218 16.4547 14.6108 16.4547C12.0157 16.4541 9.42245 16.316 6.84201 16.0411C6.84201 16.0411 6.81948 16.0411 6.81948 16.0411C5.28215 15.864 3.77132 15.1027 2.56398 13.8986C1.35664 12.6946 0.593254 11.1853 0.415665 9.64818C0.415022 9.6407 0.415022 9.63318 0.415665 9.62571C0.0730553 6.42921 -0.0579853 3.21368 0.0233803 0C0.0233803 0 0.0233803 0 0.0233803 0C1.68864 0.0495967 3.2985 0.607824 4.63538 1.59924C8.58857 4.53941 12.0806 8.05038 14.9965 12.0166C15.9364 13.2872 16.4469 14.8229 16.4543 16.4019C16.4543 16.4019 16.4503 16.4296 16.4503 16.4296Z" fill="#4E4E4E" transform="translate(21.819 0.033)" />
      <path d="M14.1935 14.8158C14.1935 14.8158 1.23483 14.8158 1.23483 14.8158C0.553781 14.8153 0.00197315 14.2645 0.00198269 13.5854C0.00199318 12.9062 0.553817 12.3554 1.23487 12.3549C1.23487 12.3549 14.1935 12.3549 14.1935 12.3549C14.8746 12.3555 15.4264 12.9062 15.4264 13.5854C15.4264 14.2646 14.8745 14.8153 14.1935 14.8158C14.1935 14.8158 14.1935 14.8158 14.1935 14.8158ZM20.3627 8.63839C20.3627 8.63839 1.23484 8.63839 1.23484 8.63839C0.793796 8.63875 0.386103 8.4043 0.165475 8.02346C-0.0551519 7.64261 -0.0551586 7.17328 0.165457 6.79242C0.386074 6.41157 0.793759 6.17711 1.2348 6.17746C1.2348 6.17746 20.3627 6.17746 20.3627 6.17746C20.8038 6.1771 21.2115 6.41154 21.4321 6.79239C21.6527 7.17324 21.6527 7.64257 21.4321 8.02342C21.2115 8.40428 20.8038 8.63873 20.3628 8.63839C20.3628 8.63839 20.3627 8.63839 20.3627 8.63839ZM20.3627 2.46094C20.3627 2.46094 1.23483 2.46094 1.23483 2.46094C0.553781 2.46039 0.00197315 1.90964 0.00198269 1.23045C0.00199318 0.55126 0.553817 0.000526428 1.23487 0C1.23487 0 20.3627 0 20.3627 0C20.8038 -0.000354767 21.2115 0.234089 21.4321 0.614937C21.6527 0.995785 21.6527 1.46511 21.4321 1.84597C21.2115 2.22682 20.8038 2.46128 20.3628 2.46094C20.3628 2.46094 20.3627 2.46094 20.3627 2.46094Z" fill="#FE7F43" transform="translate(8.377 20.695)" />
    </g>
  </g>
</svg>