<?xml version="1.0" encoding="utf-8"?>
<svg width="107.5" height="100" viewBox="0 0 107.5 100" fill="none" xmlns="http://www.w3.org/2000/svg">
  <defs>
    <linearGradient id="gradient_1" gradientUnits="userSpaceOnUse" x1="9.555" y1="-3.581" x2="45.445" y2="58.581">
      <stop offset="0" stop-color="#2368C4" />
      <stop offset="0.5" stop-color="#1A5DBE" />
      <stop offset="1" stop-color="#1146AC" />
    </linearGradient>
  </defs>
  <g>
    <path d="M77.9175 0C77.9175 0 4.58251 0 4.58251 0C2.05166 0 0 2.05166 0 4.58251C0 4.58251 0 4.58251 0 4.58251C0 4.58251 0 25 0 25L42.5 37.5L82.5 25C82.5 25 82.5 4.58251 82.5 4.58251C82.5 2.05166 80.4483 0 77.9175 0C77.9175 0 77.9175 0 77.9175 0L77.9175 0Z" fill="#41A5EE" transform="translate(25 0)" />
    <path d="M82.5 0L0 0L0 25L42.5 32.5L82.5 25L82.5 0L82.5 0Z" fill="#2B7CD3" transform="translate(25 25)" />
    <path d="M0 0L0 25L40 30L82.5 25L82.5 0L0 0L0 0Z" fill="#185ABD" transform="translate(25 50)" />
    <path d="M4.58251 25C4.58251 25 77.9175 25 77.9175 25C80.4484 25 82.5001 22.9483 82.5001 20.4175C82.5001 20.4175 82.5001 20.4175 82.5001 20.4175L82.5001 0L0 0C0 0 0 20.4175 0 20.4175C0 22.9483 2.05166 25 4.58251 25C4.58251 25 4.58251 25 4.58251 25L4.58251 25Z" fill="#103F91" transform="translate(25 75)" />
    <path d="M30.4175 0L0 0L0 62.5C0 62.5 30.4175 62.5 30.4175 62.5C32.9449 62.4918 34.9918 60.4449 35 57.9175C35 57.9175 35 4.58251 35 4.58251C34.9918 2.05508 32.9449 0.00823021 30.4175 0C30.4175 0 30.4175 0 30.4175 0Z" fill="#000000" fill-opacity="0.1" transform="translate(25 20)" />
    <path d="M27.9175 0L0 0L0 62.5C0 62.5 27.9175 62.5 27.9175 62.5C30.4449 62.4918 32.4918 60.4449 32.5 57.9175C32.5 57.9175 32.5 4.58251 32.5 4.58251C32.4918 2.05508 30.4449 0.00823021 27.9175 0C27.9175 0 27.9175 0 27.9175 0Z" fill="#000000" fill-opacity="0.2" transform="translate(25 22.5)" />
    <path d="M27.9175 0L0 0L0 57.5C0 57.5 27.9175 57.5 27.9175 57.5C30.4449 57.4918 32.4918 55.4449 32.5 52.9175C32.5 52.9175 32.5 4.58251 32.5 4.58251C32.4918 2.05508 30.4449 0.00823021 27.9175 0C27.9175 0 27.9175 0 27.9175 0Z" fill="#000000" fill-opacity="0.2" transform="translate(25 22.5)" />
    <path d="M25.4175 0L0 0L0 57.5C0 57.5 25.4175 57.5 25.4175 57.5C27.9449 57.4918 29.9918 55.4449 30 52.9175C30 52.9175 30 4.58251 30 4.58251C29.9918 2.05508 27.9449 0.00823021 25.4175 0C25.4175 0 25.4175 0 25.4175 0Z" fill="#000000" fill-opacity="0.2" transform="translate(25 22.5)" />
    <path d="M4.58251 0C4.58251 0 50.4175 0 50.4175 0C52.9483 0 55 2.05166 55 4.58251C55 4.58251 55 50.4175 55 50.4175C55 52.9484 52.9483 55.0001 50.4175 55.0001C50.4175 55.0001 4.58251 55.0001 4.58251 55.0001C2.05166 55.0001 0 52.9484 0 50.4175C0 50.4175 0 4.58251 0 4.58251C0 2.05166 2.05166 0 4.58251 0C4.58251 0 4.58251 0 4.58251 0Z" fill="url(#gradient_1)" transform="translate(0 22.5)" />
    <path d="M10.3975 22.55C10.4875 23.2575 10.5475 23.8725 10.575 24.4C10.575 24.4 10.68 24.4 10.68 24.4C10.72 23.9 10.8033 23.2975 10.93 22.5925C11.0567 21.8875 11.1709 21.2917 11.2725 20.805C11.2725 20.805 16.0925 0.0100021 16.0925 0.0100021L22.325 0.0100021C22.325 0.0100021 27.325 20.4925 27.325 20.4925C27.6155 21.7661 27.8235 23.0571 27.9475 24.3575C27.9475 24.3575 28.0301 24.3575 28.0301 24.3575C28.1233 23.0977 28.297 21.8451 28.5501 20.6075C28.5501 20.6075 32.5375 0 32.5375 0L38.2101 0L31.205 29.8L24.5775 29.8C24.5775 29.8 19.8275 10.065 19.8275 10.065C19.6901 9.49748 19.5326 8.75497 19.3601 7.84245C19.1875 6.92994 19.0801 6.26245 19.0375 5.84245C19.0375 5.84245 18.955 5.84245 18.955 5.84245C18.9001 6.32742 18.7925 7.04748 18.6325 8.00245C18.4725 8.95748 18.3442 9.66411 18.2475 10.1224C18.2475 10.1224 13.7825 29.795 13.7825 29.795L7.04246 29.795L0 0.00993729L5.77497 0.00993729C5.77497 0.00993729 10.1175 20.8474 10.1175 20.8474C10.215 21.275 10.3075 21.845 10.3975 22.55C10.3975 22.55 10.3975 22.55 10.3975 22.55Z" fill="#FFFFFF" transform="translate(8.407 35.095)" />
  </g>
</svg>