<?xml version="1.0" encoding="utf-8"?>
<svg width="86.785" height="100" viewBox="0 0 86.785 100" fill="none" xmlns="http://www.w3.org/2000/svg">
  <defs>
    <linearGradient id="gradient_1" gradientUnits="userSpaceOnUse" x1="67.461" y1="80.573" x2="-1.019" y2="12.093">
      <stop offset="0" stop-color="#34344F" />
      <stop offset="0.26" stop-color="#3B3B57" />
      <stop offset="0.66" stop-color="#50506D" />
      <stop offset="1" stop-color="#666684" />
    </linearGradient>
    <linearGradient id="gradient_2" gradientUnits="userSpaceOnUse" x1="67.469" y1="80.571" x2="-1.014" y2="12.087">
      <stop offset="0" stop-color="#1EB4EB" />
      <stop offset="0.54" stop-color="#1EB4EB" />
      <stop offset="1" stop-color="#92F4FE" />
    </linearGradient>
    <linearGradient id="gradient_3" gradientUnits="userSpaceOnUse" x1="27.756" y1="34.996" x2="-3.604" y2="3.639">
      <stop offset="0" stop-color="#34344F" />
      <stop offset="0.26" stop-color="#3B3B57" />
      <stop offset="0.66" stop-color="#50506D" />
      <stop offset="1" stop-color="#666684" />
    </linearGradient>
    <linearGradient id="gradient_4" gradientUnits="userSpaceOnUse" x1="31.712" y1="31.322" x2="0.998" y2="0.605">
      <stop offset="0" stop-color="#BCE4ED" />
      <stop offset="0.57" stop-color="#FFFFFF" />
      <stop offset="1" stop-color="#FFFFFF" />
    </linearGradient>
  </defs>
  <g>
    <path d="M50.4343 3.11717C47.8853 1.22399 44.8171 0.157866 41.6433 0.0625076C41.6433 0.0625076 41.6433 0.0625076 41.6433 0.0625076C32.3978 -0.162061 23.1474 0.218639 13.9516 1.20214C7.80996 1.91587 1.90917 7.80491 1.20718 13.9466C-0.402394 29.0172 -0.402394 56.9968 1.20718 72.0674C1.92091 78.2091 7.80996 84.1099 13.9516 84.8119C28.9783 86.4214 44.134 86.4214 59.1607 84.8119C65.3023 84.0981 71.2031 78.2091 71.9051 72.0674C73.0036 61.802 73.3531 45.5506 72.9537 31.4668C72.9537 31.4668 72.9537 31.4081 72.9537 31.4081C72.9286 28.3731 71.9471 25.4233 70.1487 22.9784C64.5959 15.4193 57.9521 8.72601 50.4344 3.11723C50.4344 3.11723 50.4343 3.11717 50.4343 3.11717Z" fill="url(#gradient_1)" fill-rule="evenodd" transform="translate(0 13.981)" />
    <path d="M50.4334 3.10836C47.8837 1.21748 44.8153 0.154357 41.6424 0.0625006C41.6424 0.0625006 41.6424 0.0625006 41.6424 0.0625006C32.3979 -0.162054 23.1486 0.218628 13.9538 1.20211C7.81216 1.91584 1.91137 7.80488 1.20938 13.9465C-0.403127 29.0172 -0.403127 56.9967 1.20938 72.0674C1.92018 78.2091 7.81216 84.1098 13.9538 84.8118C28.9805 86.4214 44.1362 86.4214 59.1629 84.8118C65.3045 84.101 71.2053 78.2091 71.9073 72.0674C73.0029 61.8049 73.3524 45.5506 72.9559 31.4668C72.9559 31.4668 72.9559 31.4081 72.9559 31.4081C72.9312 28.3727 71.9485 25.4225 70.148 22.9785C64.5958 15.4162 57.9518 8.71984 50.4334 3.10836C50.4334 3.10836 50.4334 3.10836 50.4334 3.10836Z" fill="url(#gradient_2)" fill-rule="evenodd" transform="translate(13.671 0)" />
    <path d="M31.3573 31.3955C31.3573 31.3955 31.3573 31.3955 31.3573 31.3955C30.1824 31.4249 29.0076 31.4454 27.8503 31.4454C22.9034 31.4435 17.96 31.1788 13.0411 30.6524C13.0411 30.6524 13 30.6524 13 30.6524C10.0628 30.3117 7.1873 28.8578 4.88456 26.5579C2.58181 24.2581 1.13084 21.3738 0.790127 18.4425C0.791546 18.4288 0.791546 18.4151 0.790127 18.4014C0.139439 12.2904 -0.109787 6.14347 0.0440483 0C0.0440483 0 0.0440483 0 0.0440483 0C3.21796 0.0944154 6.28644 1.16064 8.83503 3.05467C16.3707 8.67599 23.0278 15.3875 28.5876 22.9688C30.3769 25.3984 31.3469 28.3342 31.3573 31.3515C31.3573 31.3515 31.3573 31.3955 31.3573 31.3955Z" fill="url(#gradient_3)" fill-rule="evenodd" transform="translate(55.269 0.063)" />
    <path d="M30.8925 31.0195C30.8925 31.0195 2.73672 31.0195 2.73672 31.0195C1.75925 31.0203 0.855701 30.4993 0.366735 29.653C-0.122232 28.8066 -0.122246 27.7636 0.366695 26.9172C0.855639 26.0708 1.75917 25.5498 2.73664 25.5505C2.73664 25.5505 30.8925 25.5505 30.8925 25.5505C32.4019 25.5517 33.6248 26.7757 33.6248 28.2851C33.6248 29.7945 32.4018 31.0184 30.8924 31.0195C30.8924 31.0195 30.8925 31.0195 30.8925 31.0195ZM44.3389 15.5083C44.3389 13.9981 43.1146 12.7738 41.6044 12.7738C41.6044 12.7738 2.73672 12.7738 2.73672 12.7738C1.75925 12.773 0.855701 13.294 0.366735 14.1404C-0.122232 14.9868 -0.122246 16.0298 0.366695 16.8761C0.855639 17.7225 1.75917 18.2436 2.73664 18.2428C2.73664 18.2428 41.5955 18.2428 41.5955 18.2428C42.3207 18.2428 43.0163 17.9547 43.5291 17.4419C44.042 16.9291 44.3301 16.2336 44.3301 15.5083C44.3301 15.5083 44.3389 15.5083 44.3389 15.5083ZM31.7972 2.73451C31.7972 1.22428 30.5729 0 29.0626 0C29.0626 0 2.73672 0 2.73672 0C1.75925 -0.000789642 0.855701 0.520226 0.366735 1.3666C-0.122232 2.21297 -0.122246 3.25597 0.366695 4.10236C0.855639 4.94875 1.75917 5.46978 2.73664 5.46902C2.73664 5.46902 29.0626 5.46902 29.0626 5.46902C29.7878 5.46905 30.4834 5.18096 30.9962 4.66814C31.509 4.15531 31.7972 3.45977 31.7972 2.73451Z" fill="url(#gradient_4)" transform="translate(27.766 35.335)" />
  </g>
</svg>