<?xml version="1.0" encoding="utf-8"?>
<svg width="106.04" height="100" viewBox="0 0 106.04 100" fill="none" xmlns="http://www.w3.org/2000/svg">
  <defs>
    <linearGradient id="gradient_1" gradientUnits="userSpaceOnUse" x1="92.346" y1="90.889" x2="6.666" y2="5.208">
      <stop offset="0" stop-color="#FF6224" />
      <stop offset="0.54" stop-color="#FF6224" />
      <stop offset="1" stop-color="#FFAD8A" />
    </linearGradient>
    <linearGradient id="gradient_2" gradientUnits="userSpaceOnUse" x1="91.318" y1="71.553" x2="14.715" y2="-5.051">
      <stop offset="0" stop-color="#FE7838" />
      <stop offset="0.54" stop-color="#FE7636" />
      <stop offset="1" stop-color="#FFAD8A" />
    </linearGradient>
  </defs>
  <g>
    <path d="M90.8579 87.9022C65.6773 90.2128 40.3379 90.2128 15.1572 87.9022C8.76739 87.2794 2.62977 81.394 1.81702 74.9886C-0.605652 54.7684 -0.60569 34.331 1.817 14.1105C2.62975 7.70824 8.76426 1.82907 15.1572 1.20316C20.7063 0.692472 26.2596 0.294923 31.8169 0.0105128C33.9016 -0.108306 35.9156 0.78564 37.2259 2.41138C40.4924 6.40037 43.9116 10.4641 47.4272 14.5558C48.3333 15.6125 49.6569 16.2191 51.0488 16.2156C64.8665 16.1782 78.678 16.5353 92.4832 17.2868C99.1751 17.6885 105.213 23.331 105.605 29.7427C106.477 44.8311 106.009 59.9672 104.207 74.973C103.385 81.3909 97.2478 87.2701 90.8579 87.9022Z" fill="url(#gradient_1)" transform="translate(0.009 0)" />
    <path d="M53.0132 8.01086e-05C39.8536 8.01086e-05 26.6982 0.356108 13.5469 1.06817C6.85494 1.46987 0.816962 7.11238 0.424604 13.524C-0.441078 28.5987 0.0135609 39.5599 1.81966 54.6128C2.63863 61.0213 8.77626 66.9099 15.1661 67.5326C27.7611 68.6869 40.3778 69.265 53.0164 69.2671C65.6549 69.2692 78.2706 68.6911 90.8635 67.5326C97.2564 66.9099 103.391 61.0245 104.207 54.6222C106.013 39.5692 106.468 28.6081 105.602 13.5334C105.21 7.11549 99.1747 1.47299 92.4827 1.07751C79.3356 0.352997 66.1791 -0.00614929 53.0132 8.01086e-05Z" fill="url(#gradient_2)" transform="translate(0 30.733)" />
  </g>
</svg>