<?xml version="1.0" encoding="utf-8"?>
<svg width="342" height="288" viewBox="0 0 342 288" fill="none" xmlns="http://www.w3.org/2000/svg">
  <defs>
    <linearGradient id="gradient_1" gradientUnits="userSpaceOnUse" x1="49.82" y1="59.953" x2="-0.751" y2="9.003">
      <stop offset="0" stop-color="#EFBE37" />
      <stop offset="0.54" stop-color="#EFAC37" />
      <stop offset="1" stop-color="#ECCC74" />
    </linearGradient>
    <linearGradient id="gradient_2" gradientUnits="userSpaceOnUse" x1="20.497" y1="26.049" x2="-2.659" y2="2.716">
      <stop offset="0" stop-color="#34344F" />
      <stop offset="0.26" stop-color="#3B3B57" />
      <stop offset="0.66" stop-color="#50506D" />
      <stop offset="1" stop-color="#666684" />
    </linearGradient>
    <linearGradient id="gradient_3" gradientUnits="userSpaceOnUse" x1="20.001" y1="39.381" x2="-7.944" y2="11.225">
      <stop offset="0" stop-color="#FFD2D2" />
      <stop offset="0.57" stop-color="#FFFFFF" />
      <stop offset="1" stop-color="#FFFFFF" />
    </linearGradient>
  </defs>
  <g>
    <rect width="342" height="288" fill="#BBDEFB" fill-rule="evenodd" fill-opacity="0" />
    <g transform="translate(144 80)">
      <path d="M37.2403 2.32048C35.3593 0.91517 33.0938 0.115456 30.7498 0.0444457C30.7498 0.0444457 30.7498 0.0444457 30.7498 0.0444457C23.923 -0.117069 17.0927 0.160794 10.3029 0.892964C5.76746 1.42703 1.41859 5.80647 0.892173 10.3759C-0.297385 21.5875 -0.297385 42.4081 0.892173 53.6211C1.41859 58.1901 5.76746 62.5694 10.3029 63.1011C21.4027 64.2996 32.5977 64.2996 43.6973 63.1011C48.2326 62.5694 52.5815 58.1901 53.1078 53.6211C53.9189 45.9834 54.1769 33.8835 53.882 23.4118C53.882 23.4118 53.882 23.3692 53.882 23.3692C53.8616 21.1105 53.1345 18.9197 51.8035 17.0995C47.7014 11.4749 42.7936 6.49841 37.2403 2.32048C37.2403 2.32048 37.2403 2.32048 37.2403 2.32048Z" fill="url(#gradient_1)" fill-rule="evenodd" />
      <path d="M23.1551 23.3672C23.1551 23.3672 23.1551 23.3672 23.1551 23.3672C22.2911 23.3847 21.426 23.404 20.5679 23.404C16.9147 23.4018 13.2638 23.2001 9.63144 22.8163C9.63144 22.8163 9.59997 22.8163 9.59997 22.8163C7.43599 22.5605 5.30917 21.473 3.60919 19.7669C1.91 18.0526 0.834934 15.9102 0.58535 13.7183C0.584373 13.7085 0.584373 13.7003 0.58535 13.6858C0.103142 9.14322 -0.0814438 4.56819 0.0327206 0C0.0327206 0 0.0327206 0 0.0327206 0C2.37635 0.0709415 4.642 0.859672 6.52308 2.27363C12.0869 6.45523 17.0022 11.4445 21.1087 17.0869C22.4326 18.8913 23.151 21.0718 23.161 23.3179C23.161 23.3179 23.1551 23.3672 23.1551 23.3672Z" fill="url(#gradient_2)" fill-rule="evenodd" transform="translate(30.715 0.046)" />
      <path d="M11.0478 44.8342C11.0478 44.3624 10.9825 42.2891 10.8481 41.6989C10.5758 40.5072 9.49742 39.5072 8.22507 39.2685C8.22507 39.2685 8.20641 39.2685 8.20641 39.2685L8.12805 39.2572L8.12805 37.2685C8.12805 37.2685 11.0459 37.2685 11.0459 37.2685C12.0046 37.2677 12.7814 36.4844 12.7814 35.5185C12.7814 34.5525 12.0046 33.7693 11.0458 33.7685C11.0458 33.7685 8.12805 33.7685 8.12805 33.7685L8.12805 30.2497C8.12805 30.2497 11.0459 30.2497 11.0459 30.2497C11.6667 30.2502 12.2407 29.9168 12.5512 29.3752C12.8618 28.8335 12.8618 28.166 12.5513 27.6244C12.2407 27.0827 11.6668 26.7493 11.0459 26.7498C11.0459 26.7498 8.12805 26.7498 8.12805 26.7498L8.12805 23.2329C8.12805 23.2329 11.0459 23.2329 11.0459 23.2329C11.6667 23.2334 12.2407 22.9 12.5512 22.3583C12.8618 21.8167 12.8618 21.1492 12.5513 20.6075C12.2407 20.0659 11.6668 19.7324 11.0459 19.7329C11.0459 19.7329 8.12805 19.7329 8.12805 19.7329L8.12805 16.2141C8.12805 16.2141 11.0459 16.2141 11.0459 16.2141C12.0046 16.2134 12.7814 15.4301 12.7814 14.4641C12.7814 13.4982 12.0046 12.7149 11.0458 12.7142C11.0458 12.7142 8.12805 12.7142 8.12805 12.7142L8.12805 9.19541C8.12805 9.19541 11.0459 9.19541 11.0459 9.19541C12.0051 9.19541 12.7828 8.41191 12.7828 7.44542C12.7828 6.47893 12.0051 5.69544 11.0459 5.69544C11.0459 5.69544 8.12805 5.69544 8.12805 5.69544C8.12805 5.69544 8.12805 0 8.12805 0C6.97137 0.0162898 5.81344 0.0457387 4.65426 0.0883453C4.65426 0.0883453 4.65426 2.19547 4.65426 2.19547C4.65426 2.19547 1.73829 2.19547 1.73829 2.19547C0.779036 2.19547 0.00139999 2.97896 0.00139999 3.94545C0.00139999 4.91194 0.779036 5.69544 1.73829 5.69544C1.73829 5.69544 4.65426 5.69544 4.65426 5.69544L4.65426 9.2142C4.65426 9.2142 1.73829 9.2142 1.73829 9.2142C1.11744 9.2137 0.54352 9.54713 0.232941 10.0888C-0.0776386 10.6304 -0.0776463 11.2979 0.232916 11.8396C0.54348 12.3812 1.11738 12.7147 1.73824 12.7142C1.73824 12.7142 4.65421 12.7142 4.65421 12.7142L4.65421 16.2329C4.65421 16.2329 1.73829 16.2329 1.73829 16.2329C1.11744 16.2324 0.54352 16.5659 0.232941 17.1075C-0.0776386 17.6492 -0.0776463 18.3166 0.232916 18.8583C0.54348 19.3999 1.11738 19.7334 1.73824 19.7329C1.73824 19.7329 4.65421 19.7329 4.65421 19.7329L4.65421 23.2498C4.65421 23.2498 1.73829 23.2498 1.73829 23.2498C1.11744 23.2493 0.54352 23.5827 0.232941 24.1244C-0.0776386 24.666 -0.0776463 25.3335 0.232916 25.8752C0.54348 26.4168 1.11738 26.7502 1.73824 26.7498C1.73824 26.7498 4.65421 26.7498 4.65421 26.7498L4.65421 30.2685C4.65421 30.2685 1.73829 30.2685 1.73829 30.2685C1.11744 30.268 0.54352 30.6015 0.232941 31.1431C-0.0776386 31.6847 -0.0776463 32.3522 0.232916 32.8939C0.54348 33.4355 1.11738 33.769 1.73824 33.7685C1.73824 33.7685 4.65421 33.7685 4.65421 33.7685L4.65421 39.2534L4.57586 39.2647C4.57586 39.2647 4.5572 39.2647 4.5572 39.2647C3.28671 39.5034 2.20651 40.5034 1.94533 41.6838C1.80914 42.2609 1.74011 44.3549 1.74384 44.8304C1.74757 45.306 1.80914 47.4 1.9416 47.9639C2.21398 49.1556 3.29231 50.1556 4.56466 50.3943C4.56466 50.3943 4.58518 50.3943 4.58518 50.3943C5.78634 50.5973 7.01266 50.5973 8.21382 50.3943C8.21382 50.3943 8.23247 50.3943 8.23247 50.3943C9.50483 50.1556 10.5832 49.1556 10.8537 47.9751C10.9881 47.4037 11.0496 45.3079 11.0478 44.8342ZM7.47883 46.9752C7.12021 47.0307 6.75772 47.0571 6.3949 47.0541C6.02959 47.0572 5.66463 47.0308 5.30351 46.9752C5.25874 46.4113 5.20464 45.2646 5.21023 44.8568C5.21023 44.8568 5.21023 44.8098 5.21023 44.8098C5.21023 44.4019 5.25874 43.2515 5.30351 42.6914C6.02486 42.5861 6.75749 42.5861 7.47883 42.6914C7.52547 43.2553 7.57957 44.4019 7.57398 44.8116C7.57398 44.8116 7.57398 44.8568 7.57398 44.8568C7.57957 45.2646 7.52547 46.415 7.47883 46.9751C7.47883 46.9751 7.47883 46.9752 7.47883 46.9752Z" fill="url(#gradient_3)" transform="translate(16.562 0.022)" />
    </g>
  </g>
</svg>