<?xml version="1.0" encoding="utf-8"?>
<svg width="342" height="288" viewBox="0 0 342 288" fill="none" xmlns="http://www.w3.org/2000/svg">
  <defs>
    <linearGradient id="gradient_1" gradientUnits="userSpaceOnUse" x1="50.196" y1="59.953" x2="-0.757" y2="9.002">
      <stop offset="0" stop-color="#1EB4EB" />
      <stop offset="0.54" stop-color="#1EB4EB" />
      <stop offset="1" stop-color="#92F4FE" />
    </linearGradient>
    <linearGradient id="gradient_2" gradientUnits="userSpaceOnUse" x1="20.652" y1="26.045" x2="-2.679" y2="2.714">
      <stop offset="0" stop-color="#34344F" />
      <stop offset="0.26" stop-color="#3B3B57" />
      <stop offset="0.66" stop-color="#50506D" />
      <stop offset="1" stop-color="#666684" />
    </linearGradient>
    <linearGradient id="gradient_3" gradientUnits="userSpaceOnUse" x1="32.222" y1="39.78" x2="-3.263" y2="4.295">
      <stop offset="0" stop-color="#BCE4ED" />
      <stop offset="0.57" stop-color="#FFFFFF" />
      <stop offset="1" stop-color="#FFFFFF" />
    </linearGradient>
  </defs>
  <g>
    <rect width="342" height="288" fill="#BBDEFB" fill-rule="evenodd" fill-opacity="0" />
    <g transform="translate(144 80)">
      <path d="M37.5213 2.31969C35.6257 0.914999 33.3431 0.115799 30.9819 0.0450292C30.9819 0.0450292 30.9819 0.0450292 30.9819 0.0450292C24.1036 -0.117755 17.2218 0.160005 10.3805 0.893788C5.81086 1.42841 1.42921 5.80746 0.899369 10.3749C-0.299796 21.5883 -0.299796 42.4099 0.899369 53.6196C1.42921 58.1907 5.81086 62.5705 10.3805 63.1029C21.5641 64.299 32.8436 64.299 44.0272 63.1029C48.5968 62.5705 52.9784 58.1907 53.5085 53.6196C54.3262 45.9842 54.5856 33.8829 54.2904 23.4127C54.2904 23.4127 54.2904 23.3697 54.2904 23.3697C54.2718 21.1099 53.5388 18.9173 52.1962 17.0971C48.0633 11.4724 43.1178 6.49656 37.5214 2.31972C37.5214 2.31972 37.5213 2.31969 37.5213 2.31969Z" fill="url(#gradient_1)" fill-rule="evenodd" />
      <path d="M23.3323 23.365C23.3323 23.365 23.3323 23.365 23.3323 23.365C22.46 23.3875 21.5896 23.4023 20.7232 23.4023C17.0423 23.4017 13.3643 23.2075 9.70448 22.814C9.70448 22.814 9.67251 22.814 9.67251 22.814C7.49187 22.5598 5.34918 21.4809 3.63672 19.7653C1.92421 18.0535 0.841764 15.9069 0.589758 13.7194C0.588894 13.7112 0.588894 13.6999 0.589758 13.6914C0.103872 9.14278 -0.0820675 4.56902 0.0329952 0C0.0329952 0 0.0329952 0 0.0329952 0C2.39509 0.0710102 4.67852 0.867532 6.57467 2.27562C12.1816 6.45582 17.1345 11.4503 21.2701 17.0887C22.6034 18.8946 23.3274 21.0825 23.3377 23.3272C23.3377 23.3272 23.3323 23.365 23.3323 23.365Z" fill="url(#gradient_2)" fill-rule="evenodd" transform="translate(31.015 0)" />
      <path d="M0 3.23872C0 3.23872 0 1.75 0 1.75C0 0.783502 0.783502 0 1.75 0C1.75 0 15.3571 0 15.3571 0C16.3236 -2.86102e-06 17.1071 0.7835 17.1071 1.75C17.1071 1.75 17.1071 3.23308 17.1071 3.23308C17.1064 4.14721 16.4024 4.90676 15.491 4.97666C14.5796 5.04655 13.7679 4.40323 13.6278 3.49995C13.6278 3.49995 10.3045 3.49995 10.3045 3.49995L10.3045 15.327C10.3045 15.327 10.5696 15.327 10.5696 15.327C11.536 15.327 12.3196 16.1105 12.3196 17.077C12.3196 18.0435 11.536 18.827 10.5696 18.827C10.5696 18.827 6.53759 18.827 6.53759 18.827C5.57164 18.8262 4.78899 18.043 4.78901 17.077C4.78902 16.111 5.57169 15.3278 6.53765 15.327C6.53765 15.327 6.80456 15.327 6.80456 15.327L6.80456 3.50564C6.80456 3.50564 3.47933 3.50564 3.47933 3.50564C3.33923 4.40891 2.52754 5.05221 1.61614 4.98229C0.704747 4.91237 0.000685692 4.1528 2.86102e-06 3.23872C2.86102e-06 3.23872 0 3.23872 0 3.23872ZM34.8722 32.906C34.8722 32.906 1.75 32.906 1.75 32.906C0.784049 32.9068 0.0014019 33.6901 0.00141621 34.6561C0.00143051 35.622 0.784101 36.4053 1.75006 36.406C1.75006 36.406 34.8722 36.406 34.8722 36.406C35.8381 36.4052 36.6208 35.622 36.6208 34.656C36.6208 33.69 35.8381 32.9068 34.8721 32.906C34.8721 32.906 34.8722 32.906 34.8722 32.906ZM34.8722 24.1203C34.8722 24.1203 1.75 24.1203 1.75 24.1203C0.784049 24.1211 0.0014019 24.9044 0.00141621 25.8703C0.00143051 26.8363 0.784101 27.6195 1.75006 27.6203C1.75006 27.6203 34.8722 27.6203 34.8722 27.6203C35.8381 27.6195 36.6208 26.8362 36.6208 25.8703C36.6208 24.9043 35.8381 24.1211 34.8721 24.1203C34.8721 24.1203 34.8722 24.1203 34.8722 24.1203ZM21.1297 18.8346C21.1297 18.8346 34.8647 18.8346 34.8647 18.8346C35.4902 18.8351 36.0685 18.5017 36.3814 17.96C36.6943 17.4184 36.6943 16.7509 36.3814 16.2092C36.0685 15.6676 35.4903 15.3341 34.8647 15.3346C34.8647 15.3346 21.1297 15.3346 21.1297 15.3346C20.5042 15.3341 19.9259 15.6675 19.613 16.2092C19.3001 16.7508 19.3001 17.4183 19.613 17.96C19.9259 18.5016 20.5041 18.8351 21.1297 18.8346C21.1297 18.8346 21.1297 18.8346 21.1297 18.8346Z" fill="url(#gradient_3)" transform="translate(8.835 15.977)" />
    </g>
  </g>
</svg>