<?xml version="1.0" encoding="utf-8"?>
<svg width="342" height="288" viewBox="0 0 342 288" fill="none" xmlns="http://www.w3.org/2000/svg">
  <defs>
    <linearGradient id="gradient_1" gradientUnits="userSpaceOnUse" x1="88.588" y1="105.843" x2="-1.332" y2="15.879">
      <stop offset="0" stop-color="#BCE4ED" />
      <stop offset="0.54" stop-color="#FFFFFF" />
      <stop offset="1" stop-color="#FFFFFF" />
    </linearGradient>
    <linearGradient id="gradient_2" gradientUnits="userSpaceOnUse" x1="55.701" y1="69.01" x2="-5.641" y2="7.451">
      <stop offset="0" stop-color="#34344F" />
      <stop offset="0.271" stop-color="#3B3B57" />
      <stop offset="0.646" stop-color="#50506D" />
      <stop offset="1" stop-color="#666684" />
    </linearGradient>
    <linearGradient id="gradient_3" gradientUnits="userSpaceOnUse" x1="36.445" y1="45.974" x2="-4.732" y2="4.781">
      <stop offset="0" stop-color="#34344F" />
      <stop offset="0.26" stop-color="#3B3B57" />
      <stop offset="0.66" stop-color="#50506D" />
      <stop offset="1" stop-color="#666684" />
    </linearGradient>
  </defs>
  <g>
    <rect width="342" height="288" fill="#BBDEFB" fill-rule="evenodd" fill-opacity="0" />
    <g transform="translate(123 31)">
      <path d="M66.22 4.08333C62.8723 1.59935 58.8434 0.202773 54.6773 0.0821048C54.6773 0.0821048 54.6773 0.0821048 54.6773 0.0821048C42.5391 -0.212885 30.3946 0.287203 18.3216 1.57917C10.2575 2.51677 2.50967 10.253 1.58795 18.321C-0.529314 38.1188 -0.529314 74.8745 1.58795 94.6723C2.52124 102.74 10.2575 110.492 18.3216 111.414C38.052 113.529 57.9516 113.529 77.682 111.414C85.7461 110.48 93.4939 102.74 94.4157 94.6723C95.8542 81.1908 96.3131 59.8381 95.7925 41.3368C95.7925 41.3368 95.7925 41.2596 95.7925 41.2596C95.7601 37.2721 94.4698 33.3966 92.1057 30.186C84.8155 20.2516 76.0919 11.4549 66.22 4.08334C66.22 4.08334 66.22 4.08333 66.22 4.08333Z" fill="url(#gradient_1)" fill-rule="evenodd" />
      <path d="M0 5.61851C0 5.61851 0 3.03589 0 3.03589C0 1.35921 1.35442 0 3.02518 0C3.02518 0 26.5475 0 26.5475 0C28.2183 -5.72205e-06 29.5727 1.35921 29.5727 3.03589C29.5727 3.03589 29.5727 5.60873 29.5727 5.60873C29.5715 7.19454 28.3543 8.51221 26.7788 8.63346C25.2033 8.75472 23.8002 7.6387 23.5581 6.07169C23.5581 6.07169 17.8132 6.07169 17.8132 6.07169L17.8132 26.5892C17.8132 26.5892 18.2713 26.5892 18.2713 26.5892C19.9421 26.5892 21.2965 27.9484 21.2965 29.6251C21.2965 31.3018 19.9421 32.661 18.2713 32.661C18.2713 32.661 11.3014 32.661 11.3014 32.661C9.63155 32.6596 8.27861 31.3008 8.27864 29.6251C8.27866 27.9493 9.63164 26.5905 11.3015 26.5892C11.3015 26.5892 11.7629 26.5892 11.7629 26.5892L11.7629 6.08156C11.7629 6.08156 6.01462 6.08156 6.01462 6.08156C5.77244 7.64855 4.3693 8.76453 2.79379 8.64324C1.21828 8.52195 0.00118446 7.20424 5.72205e-06 5.61851C5.72205e-06 5.61851 0 5.61851 0 5.61851ZM60.2827 57.0851C60.2827 57.0851 3.02518 57.0851 3.02518 57.0851C1.35536 57.0865 0.00241661 58.4453 0.00244141 60.121C0.0024662 61.7968 1.35545 63.1556 3.02527 63.1569C3.02527 63.1569 60.2827 63.1569 60.2827 63.1569C61.9525 63.1555 63.3054 61.7967 63.3054 60.1209C63.3054 58.4452 61.9524 57.0864 60.2826 57.0851C60.2826 57.0851 60.2827 57.0851 60.2827 57.0851ZM60.2827 41.8437C60.2827 41.8437 3.02518 41.8437 3.02518 41.8437C1.35536 41.8451 0.00241661 43.2039 0.00244141 44.8797C0.0024662 46.5554 1.35545 47.9142 3.02527 47.9155C3.02527 47.9155 60.2827 47.9155 60.2827 47.9155C61.9525 47.9141 63.3054 46.5553 63.3054 44.8795C63.3054 43.2038 61.9524 41.845 60.2826 41.8437C60.2826 41.8437 60.2827 41.8437 60.2827 41.8437ZM36.5263 32.6741C36.5263 32.6741 60.2696 32.6741 60.2696 32.6741C61.351 32.675 62.3506 32.0965 62.8915 31.1569C63.4325 30.2172 63.4325 29.0593 62.8915 28.1196C62.3506 27.1799 61.3511 26.6015 60.2697 26.6023C60.2697 26.6023 36.5263 26.6023 36.5263 26.6023C35.4449 26.6014 34.4454 27.1799 33.9044 28.1195C33.3635 29.0592 33.3635 30.2171 33.9044 31.1568C34.4453 32.0965 35.4449 32.6749 36.5262 32.6741C36.5262 32.6741 36.5263 32.6741 36.5263 32.6741Z" fill="url(#gradient_2)" transform="translate(17.501 25.263)" />
      <path d="M41.1727 41.2431C41.1727 41.2431 41.1727 41.2431 41.1727 41.2431C39.6301 41.2817 38.0875 41.3087 36.568 41.3087C30.0725 41.3062 23.5818 40.9585 17.1232 40.2669C17.1232 40.2669 17.0692 40.2669 17.0692 40.2669C13.2126 39.8193 9.43707 37.9094 6.41351 34.8882C3.38997 31.867 1.48482 28.078 1.03745 24.2273C1.03931 24.2093 1.03931 24.1912 1.03745 24.1732C0.183083 16.1455 -0.14415 8.07045 0.0578346 0C0.0578346 0 0.0578346 0 0.0578346 0C4.22524 0.12403 8.25421 1.52469 11.6006 4.0128C21.4951 11.3973 30.236 20.2141 37.536 30.1732C39.8854 33.3649 41.1591 37.2215 41.1728 41.1853C41.1728 41.1853 41.1727 41.2431 41.1727 41.2431Z" fill="url(#gradient_3)" fill-rule="evenodd" transform="translate(54.619 0.082)" />
    </g>
  </g>
</svg>