<?xml version="1.0" encoding="utf-8"?>
<svg width="342" height="288" viewBox="0 0 342 288" fill="none" xmlns="http://www.w3.org/2000/svg">
  <defs>
    <linearGradient id="gradient_1" gradientUnits="userSpaceOnUse" x1="61.961" y1="74.004" x2="-0.934" y2="11.112">
      <stop offset="0" stop-color="#9273A3" />
      <stop offset="0.54" stop-color="#886C97" />
      <stop offset="1" stop-color="#9273A3" />
    </linearGradient>
    <linearGradient id="gradient_2" gradientUnits="userSpaceOnUse" x1="25.492" y1="32.149" x2="-3.307" y2="3.35">
      <stop offset="0" stop-color="#34344F" />
      <stop offset="0.26" stop-color="#3B3B57" />
      <stop offset="0.66" stop-color="#50506D" />
      <stop offset="1" stop-color="#666684" />
    </linearGradient>
  </defs>
  <g>
    <rect width="342" height="288" fill="#BBDEFB" fill-rule="evenodd" fill-opacity="0" />
    <g transform="translate(136 80)">
      <path d="M46.3155 2.86546C43.9756 1.12543 41.158 0.145476 38.2433 0.0579497C38.2433 0.0579497 38.2433 0.0579497 38.2433 0.0579497C29.753 -0.149477 21.2582 0.200091 12.8136 1.10437C7.17307 1.75868 1.76455 7.1672 1.11024 12.8077C-0.370081 26.6481 -0.370081 52.3472 1.11024 66.1852C1.76455 71.828 7.17307 77.2366 12.8136 77.8909C26.6183 79.3697 40.5415 79.3697 54.3462 77.8909C59.9867 77.2366 65.3952 71.828 66.0495 66.1852C67.0589 56.7603 67.3791 41.8225 67.0148 28.8987C67.0148 28.8987 67.0148 28.8453 67.0148 28.8453C66.9918 26.0571 66.0869 23.3476 64.4298 21.105C59.3282 14.1617 53.2235 8.01478 46.3155 2.86552C46.3155 2.86552 46.3155 2.86546 46.3155 2.86546Z" fill="url(#gradient_1)" fill-rule="evenodd" />
      <path d="M8.76336 27.1104C6.6687 27.1104 5.21883 26.6515 4.41374 25.7337C3.60865 24.8159 3.20611 23.3828 3.20611 21.4342L3.20611 18.0454C3.20611 16.8876 2.96921 16.0615 2.49542 15.5673C2.02163 15.0731 1.18982 14.826 0 14.826L0 12.2844C1.18982 12.2844 2.02163 12.0373 2.49542 11.5431C2.96921 11.0489 3.20611 10.2229 3.20611 9.06506L3.20611 5.67625C3.20611 3.72768 3.60865 2.29451 4.41374 1.3767C5.21883 0.4589 6.6687 0 8.76336 0L8.76336 2.07565C7.52367 2.07565 6.67226 2.3651 6.20916 2.94402C5.74606 3.52295 5.5145 4.43369 5.5145 5.67625L5.5145 9.91225C5.5145 10.7736 5.32214 11.5096 4.9374 12.1203C4.55267 12.731 3.74758 13.1563 2.52214 13.3964L2.52214 13.7141C3.74758 13.9541 4.55267 14.3795 4.9374 14.9902C5.32214 15.6009 5.5145 16.3369 5.5145 17.1982L5.5145 21.4342C5.5145 22.6697 5.74606 23.5787 6.20916 24.1611C6.67226 24.7436 7.52367 25.0348 8.76336 25.0348L8.76336 27.1104ZM15.8595 19.7398L15.6885 20.8835C15.5674 21.6884 15.384 22.5497 15.1382 23.4675C14.8924 24.3853 14.6376 25.2501 14.374 26.062C14.1104 26.8739 13.8931 27.5199 13.7221 28L11.7985 28C11.8911 27.5482 12.0122 26.9516 12.1618 26.2103C12.3114 25.469 12.4628 24.6412 12.616 23.7269C12.7692 22.8127 12.8957 21.879 12.9954 20.9259L13.1236 19.7398L15.8595 19.7398ZM14.3206 10.8018C13.7934 10.8018 13.341 10.6147 12.9634 10.2405C12.5858 9.86636 12.397 9.41805 12.397 8.89561C12.397 8.37317 12.5858 7.92487 12.9634 7.55068C13.341 7.1765 13.7934 6.98941 14.3206 6.98941C14.8479 6.98941 15.3003 7.1765 15.6779 7.55068C16.0555 7.92487 16.2443 8.37317 16.2443 8.89561C16.2443 9.41805 16.0555 9.86636 15.6779 10.2405C15.3003 10.6147 14.8479 10.8018 14.3206 10.8018L14.3206 10.8018ZM19.2366 0C21.3313 0 22.7811 0.4589 23.5862 1.3767C24.3913 2.2945 24.7939 3.72768 24.7939 5.67625L24.7939 9.06506C24.7939 10.2229 25.0308 11.0489 25.5045 11.5431C25.9783 12.0373 26.8101 12.2844 28 12.2844L28 14.826C26.8101 14.826 25.9783 15.0731 25.5045 15.5673C25.0308 16.0615 24.7939 16.8876 24.7939 18.0454L24.7939 21.4342C24.7939 23.3828 24.3913 24.8159 23.5862 25.7337C22.7811 26.6515 21.3313 27.1104 19.2366 27.1104L19.2366 25.0348C20.4763 25.0348 21.3277 24.7436 21.7908 24.1611C22.2539 23.5787 22.4855 22.6697 22.4855 21.4342L22.4855 17.1982C22.4855 16.3369 22.6778 15.6009 23.0626 14.9902C23.4473 14.3795 24.2524 13.9541 25.4778 13.7141L25.4778 13.3964C24.2524 13.1563 23.4473 12.731 23.0626 12.1203C22.6778 11.5096 22.4855 10.7736 22.4855 9.91225L22.4855 5.67625C22.4855 4.43369 22.2539 3.52295 21.7908 2.94402C21.3277 2.36511 20.4763 2.07565 19.2366 2.07565L19.2366 0Z" fill="#FFFFFF" transform="translate(19 32)" />
      <path d="M28.8005 28.8431C28.8005 28.8431 28.8005 28.8431 28.8005 28.8431C27.7239 28.8687 26.6496 28.8872 25.58 28.8872C21.0365 28.8861 16.4964 28.6437 11.9787 28.161C11.9787 28.161 11.9392 28.161 11.9392 28.161C9.24775 27.8501 6.60266 26.5136 4.4889 24.3998C2.37514 22.2861 1.03864 19.6364 0.727726 16.9379C0.726601 16.9248 0.726601 16.9116 0.727726 16.8985C0.127903 11.2868 -0.101517 5.64179 0.0409355 0C0.0409355 0 0.0409355 0 0.0409355 0C2.9564 0.0870697 5.77486 1.06707 8.11542 2.80756C15.0365 7.96918 21.1501 14.1329 26.2551 21.0958C27.9008 23.3264 28.7946 26.0225 28.8074 28.7944C28.8074 28.7944 28.8005 28.8431 28.8005 28.8431Z" fill="url(#gradient_2)" fill-rule="evenodd" transform="translate(38.2 0.058)" />
    </g>
  </g>
</svg>