<?xml version="1.0" encoding="utf-8"?>
<svg width="342" height="288" viewBox="0 0 342 288" fill="none" xmlns="http://www.w3.org/2000/svg">
  <defs>
    <linearGradient id="gradient_1" gradientUnits="userSpaceOnUse" x1="6.115" y1="-2.292" x2="29.085" y2="37.492">
      <stop offset="0" stop-color="#18884F" />
      <stop offset="0.5" stop-color="#117E43" />
      <stop offset="1" stop-color="#0B6631" />
    </linearGradient>
  </defs>
  <g>
    <rect width="342" height="288" fill="#BBDEFB" fill-rule="evenodd" fill-opacity="0" />
    <g transform="translate(129 80)">
      <path d="M27.2 4.8L0 0C0 0 0 35.4672 0 35.4672C0 37.0869 1.31305 38.4 2.93279 38.4C2.93279 38.4 2.93279 38.4 2.93279 38.4C2.93279 38.4 49.8672 38.4 49.8672 38.4C51.487 38.4 52.8 37.0869 52.8 35.4672C52.8 35.4672 52.8 35.4672 52.8 35.4672L52.8 22.4L27.2 4.8L27.2 4.8Z" fill="#185C37" transform="translate(16 25.6)" />
      <path d="M27.2 0C27.2 0 2.93279 0 2.93279 0C1.31305 0 0 1.31305 0 2.93279C0 2.93279 0 2.93279 0 2.93279C0 2.93279 0 16 0 16L27.2 32L41.6 36.8L52.8 32L52.8 16L27.2 0L27.2 0Z" fill="#21A366" transform="translate(16 0)" />
      <path d="M0 0L27.2 0L27.2 16L0 16L0 0L0 0Z" fill="#107C41" transform="translate(16 16)" />
      <path d="M19.4672 0L0 0L0 40C0 40 19.4672 40 19.4672 40C21.0848 39.9947 22.3948 38.6848 22.4 37.0672C22.4 37.0672 22.4 2.93279 22.4 2.93279C22.3947 1.31525 21.0848 0.00525761 19.4672 0C19.4672 0 19.4672 0 19.4672 0Z" fill="#000000" fill-opacity="0.1" transform="translate(16 12.8)" />
      <path d="M17.8672 0L0 0L0 40C0 40 17.8672 40 17.8672 40C19.4848 39.9947 20.7947 38.6848 20.8 37.0672C20.8 37.0672 20.8 2.93279 20.8 2.93279C20.7947 1.31525 19.4848 0.00525761 17.8672 0C17.8672 0 17.8672 0 17.8672 0Z" fill="#000000" fill-opacity="0.2" transform="translate(16 14.4)" />
      <path d="M17.8672 0L0 0L0 36.8C0 36.8 17.8672 36.8 17.8672 36.8C19.4848 36.7947 20.7947 35.4847 20.8 33.8672C20.8 33.8672 20.8 2.93279 20.8 2.93279C20.7947 1.31525 19.4848 0.00525761 17.8672 0C17.8672 0 17.8672 0 17.8672 0Z" fill="#000000" fill-opacity="0.2" transform="translate(16 14.4)" />
      <path d="M16.2672 0L0 0L0 36.8C0 36.8 16.2672 36.8 16.2672 36.8C17.8848 36.7947 19.1947 35.4847 19.2 33.8672C19.2 33.8672 19.2 2.93279 19.2 2.93279C19.1947 1.31525 17.8848 0.00525761 16.2672 0C16.2672 0 16.2672 0 16.2672 0Z" fill="#000000" fill-opacity="0.2" transform="translate(16 14.4)" />
      <path d="M2.93279 0C2.93279 0 32.2672 0 32.2672 0C33.8869 0 35.2 1.31305 35.2 2.93279C35.2 2.93279 35.2 32.2672 35.2 32.2672C35.2 33.8869 33.8869 35.2 32.2672 35.2C32.2672 35.2 2.93279 35.2 2.93279 35.2C1.31305 35.2 2.2924e-07 33.8869 2.2924e-07 32.2672C2.2924e-07 32.2672 2.2924e-07 2.93279 2.2924e-07 2.93279C2.2924e-07 1.31305 1.31305 0 2.93279 0C2.93279 0 2.93279 0 2.93279 0Z" fill="url(#gradient_1)" transform="translate(0 14.4)" />
      <path d="M0 19.0672L6.1696 9.50722L0.516808 0L5.06399 0C5.06399 0 8.1488 6.08 8.1488 6.08C8.43361 6.65759 8.62879 7.08639 8.73441 7.36959C8.73441 7.36959 8.7744 7.36959 8.7744 7.36959C8.97707 6.90878 9.1904 6.46132 9.4144 6.02718C9.4144 6.02718 12.712 0.00321579 12.712 0.00321579L16.8864 0.00321579L11.0896 9.45442L17.0336 19.0672L12.592 19.0672C12.592 19.0672 9.02881 12.3936 9.02881 12.3936C8.86097 12.1097 8.71854 11.8114 8.60322 11.5024C8.60322 11.5024 8.55043 11.5024 8.55043 11.5024C8.44605 11.8051 8.30756 12.095 8.13761 12.3664C8.13761 12.3664 4.46882 19.0672 4.46882 19.0672L0 19.0672L0 19.0672Z" fill="#FFFFFF" transform="translate(9.083 22.466)" />
      <path d="M22.6672 2.2924e-07L0 2.2924e-07L0 16L25.6 16C25.6 16 25.6 2.93279 25.6 2.93279C25.6 1.31305 24.2869 2.2924e-07 22.6672 2.2924e-07C22.6672 2.2924e-07 22.6672 2.2924e-07 22.6672 2.2924e-07L22.6672 2.2924e-07Z" fill="#33C481" transform="translate(43.2 0)" />
      <path d="M0 0L25.6 0L25.6 16L0 16L0 0L0 0Z" fill="#107C41" transform="translate(43.2 32)" />
    </g>
  </g>
</svg>