<?xml version="1.0" encoding="utf-8"?>
<svg width="342" height="288" viewBox="0 0 342 288" fill="none" xmlns="http://www.w3.org/2000/svg">
  <defs>
    <linearGradient id="gradient_1" gradientUnits="userSpaceOnUse" x1="50.196" y1="59.953" x2="-0.757" y2="9.003">
      <stop offset="0" stop-color="#3759EF" />
      <stop offset="0.54" stop-color="#3743EF" />
      <stop offset="1" stop-color="#7C91EF" />
    </linearGradient>
    <linearGradient id="gradient_2" gradientUnits="userSpaceOnUse" x1="20.652" y1="26.049" x2="-2.679" y2="2.716">
      <stop offset="0" stop-color="#34344F" />
      <stop offset="0.26" stop-color="#3B3B57" />
      <stop offset="0.66" stop-color="#50506D" />
      <stop offset="1" stop-color="#666684" />
    </linearGradient>
    <linearGradient id="gradient_3" gradientUnits="userSpaceOnUse" x1="20.152" y1="39.381" x2="-8.004" y2="11.225">
      <stop offset="0" stop-color="#FFD2D2" />
      <stop offset="0.57" stop-color="#FFFFFF" />
      <stop offset="1" stop-color="#FFFFFF" />
    </linearGradient>
  </defs>
  <g>
    <rect width="342" height="288" fill="#BBDEFB" fill-rule="evenodd" fill-opacity="0" />
    <g transform="translate(144 80)">
      <path d="M37.5213 2.32048C35.6261 0.91517 33.3435 0.115456 30.9818 0.0444457C30.9818 0.0444457 30.9818 0.0444457 30.9818 0.0444457C24.1035 -0.117069 17.2217 0.160794 10.3807 0.892964C5.81098 1.42703 1.42929 5.80647 0.898905 10.3759C-0.299629 21.5875 -0.299629 42.4081 0.898905 53.6211C1.42929 58.1901 5.81098 62.5694 10.3807 63.1011C21.5642 64.2996 32.8437 64.2996 44.027 63.1011C48.5965 62.5694 52.9783 58.1901 53.5085 53.6211C54.3258 45.9834 54.5857 33.8835 54.2886 23.4118C54.2886 23.4118 54.2886 23.3692 54.2886 23.3692C54.268 21.1105 53.5354 18.9197 52.1944 17.0995C48.0613 11.4749 43.1165 6.49841 37.5213 2.32048C37.5213 2.32048 37.5213 2.32048 37.5213 2.32048Z" fill="url(#gradient_1)" fill-rule="evenodd" />
      <path d="M23.3298 23.3672C23.3298 23.3672 23.3298 23.3672 23.3298 23.3672C22.4593 23.3847 21.5877 23.404 20.7231 23.404C17.0423 23.4018 13.3639 23.2001 9.70411 22.8163C9.70411 22.8163 9.67241 22.8163 9.67241 22.8163C7.49209 22.5605 5.34922 21.473 3.63643 19.7669C1.92441 18.0526 0.841234 15.9102 0.589766 13.7183C0.588781 13.7085 0.588781 13.7003 0.589766 13.6858C0.10392 9.14322 -0.082058 4.56819 0.0329685 0C0.0329685 0 0.0329685 0 0.0329685 0C2.39428 0.0709415 4.67703 0.859672 6.57229 2.27363C12.1781 6.45523 17.1305 11.4445 21.2679 17.0869C22.6018 18.8913 23.3256 21.0718 23.3357 23.3179C23.3357 23.3179 23.3298 23.3672 23.3298 23.3672Z" fill="url(#gradient_2)" fill-rule="evenodd" transform="translate(30.947 0.046)" />
      <path d="M11.1311 44.8342C11.1311 44.3624 11.0653 42.2891 10.93 41.6989C10.6555 40.5072 9.56908 39.5072 8.28712 39.2685C8.28712 39.2685 8.26833 39.2685 8.26833 39.2685L8.18938 39.2572L8.18938 37.2685C8.18938 37.2685 11.1292 37.2685 11.1292 37.2685C12.0952 37.2677 12.8778 36.4844 12.8778 35.5185C12.8778 34.5525 12.0951 33.7693 11.1292 33.7685C11.1292 33.7685 8.18938 33.7685 8.18938 33.7685L8.18938 30.2497C8.18938 30.2497 11.1292 30.2497 11.1292 30.2497C11.7548 30.2502 12.333 29.9168 12.6459 29.3752C12.9589 28.8335 12.9589 28.166 12.646 27.6244C12.3331 27.0827 11.7548 26.7493 11.1293 26.7498C11.1293 26.7498 8.18938 26.7498 8.18938 26.7498L8.18938 23.2329C8.18938 23.2329 11.1292 23.2329 11.1292 23.2329C11.7548 23.2334 12.333 22.9 12.6459 22.3583C12.9589 21.8167 12.9589 21.1492 12.646 20.6075C12.3331 20.0659 11.7548 19.7324 11.1293 19.7329C11.1293 19.7329 8.18938 19.7329 8.18938 19.7329L8.18938 16.2141C8.18938 16.2141 11.1292 16.2141 11.1292 16.2141C12.0952 16.2134 12.8778 15.4301 12.8778 14.4641C12.8778 13.4982 12.0951 12.7149 11.1292 12.7142C11.1292 12.7142 8.18938 12.7142 8.18938 12.7142L8.18938 9.19541C8.18938 9.19541 11.1292 9.19541 11.1292 9.19541C12.0957 9.19541 12.8792 8.41191 12.8792 7.44542C12.8792 6.47893 12.0957 5.69544 11.1292 5.69544C11.1292 5.69544 8.18938 5.69544 8.18938 5.69544C8.18938 5.69544 8.18938 0 8.18938 0C7.02397 0.0162898 5.8573 0.0457387 4.68938 0.0883453C4.68938 0.0883453 4.68938 2.19547 4.68938 2.19547C4.68938 2.19547 1.75141 2.19547 1.75141 2.19547C0.784912 2.19547 0.00141144 2.97896 0.00141144 3.94545C0.00141144 4.91194 0.784912 5.69544 1.75141 5.69544C1.75141 5.69544 4.68938 5.69544 4.68938 5.69544L4.68938 9.2142C4.68938 9.2142 1.75141 9.2142 1.75141 9.2142C1.12587 9.2137 0.547621 9.54713 0.234699 10.0888C-0.0782242 10.6304 -0.0782337 11.2979 0.234673 11.8396C0.547581 12.3812 1.12581 12.7147 1.75136 12.7142C1.75136 12.7142 4.68933 12.7142 4.68933 12.7142L4.68933 16.2329C4.68933 16.2329 1.75141 16.2329 1.75141 16.2329C1.12587 16.2324 0.547621 16.5659 0.234699 17.1075C-0.0782242 17.6492 -0.0782337 18.3166 0.234673 18.8583C0.547581 19.3999 1.12581 19.7334 1.75136 19.7329C1.75136 19.7329 4.68933 19.7329 4.68933 19.7329L4.68933 23.2498C4.68933 23.2498 1.75141 23.2498 1.75141 23.2498C1.12587 23.2493 0.547621 23.5827 0.234699 24.1244C-0.0782242 24.666 -0.0782337 25.3335 0.234673 25.8752C0.547581 26.4168 1.12581 26.7502 1.75136 26.7498C1.75136 26.7498 4.68933 26.7498 4.68933 26.7498L4.68933 30.2685C4.68933 30.2685 1.75141 30.2685 1.75141 30.2685C1.12587 30.268 0.547621 30.6015 0.234699 31.1431C-0.0782242 31.6847 -0.0782337 32.3522 0.234673 32.8939C0.547581 33.4355 1.12581 33.769 1.75136 33.7685C1.75136 33.7685 4.68933 33.7685 4.68933 33.7685L4.68933 39.2534L4.61038 39.2647C4.61038 39.2647 4.59158 39.2647 4.59158 39.2647C3.31151 39.5034 2.22316 40.5034 1.96 41.6838C1.82279 42.2609 1.75324 44.3549 1.757 44.8304C1.76076 45.306 1.82279 47.4 1.95625 47.9639C2.23068 49.1556 3.31715 50.1556 4.5991 50.3943C4.5991 50.3943 4.61978 50.3943 4.61978 50.3943C5.82999 50.5973 7.06557 50.5973 8.27579 50.3943C8.27579 50.3943 8.29459 50.3943 8.29459 50.3943C9.57654 50.1556 10.663 49.1556 10.9356 47.9751C11.071 47.4037 11.133 45.3079 11.1311 44.8342ZM7.53524 46.9752C7.17391 47.0307 6.80869 47.0571 6.44313 47.0541C6.07507 47.0572 5.70735 47.0308 5.34351 46.9752C5.2984 46.4113 5.24389 45.2646 5.24953 44.8568C5.24953 44.8568 5.24953 44.8098 5.24953 44.8098C5.24953 44.4019 5.2984 43.2515 5.34351 42.6914C6.0703 42.5861 6.80846 42.5861 7.53524 42.6914C7.58223 43.2553 7.63674 44.4019 7.6311 44.8116C7.6311 44.8116 7.6311 44.8568 7.6311 44.8568C7.63674 45.2646 7.58223 46.415 7.53524 46.9751C7.53524 46.9751 7.53524 46.9752 7.53524 46.9752Z" fill="url(#gradient_3)" transform="translate(16.687 0.022)" />
    </g>
  </g>
</svg>