<?xml version="1.0" encoding="utf-8"?>
<svg width="342" height="288" viewBox="0 0 342 288" fill="none" xmlns="http://www.w3.org/2000/svg">
  <defs>
    <linearGradient id="gradient_1" gradientUnits="userSpaceOnUse" x1="50.475" y1="59.953" x2="-0.761" y2="9.002">
      <stop offset="0" stop-color="#EF3739" />
      <stop offset="0.54" stop-color="#EF3739" />
      <stop offset="1" stop-color="#FF8C8B" />
    </linearGradient>
    <linearGradient id="gradient_2" gradientUnits="userSpaceOnUse" x1="20.766" y1="26.045" x2="-2.694" y2="2.714">
      <stop offset="0" stop-color="#34344F" />
      <stop offset="0.26" stop-color="#3B3B57" />
      <stop offset="0.66" stop-color="#50506D" />
      <stop offset="1" stop-color="#666684" />
    </linearGradient>
    <linearGradient id="gradient_3" gradientUnits="userSpaceOnUse" x1="25.889" y1="33.29" x2="3.336" y2="10.861">
      <stop offset="0" stop-color="#FFD2D2" />
      <stop offset="0.57" stop-color="#FFFFFF" />
      <stop offset="1" stop-color="#FFFFFF" />
    </linearGradient>
  </defs>
  <g>
    <rect width="342" height="288" fill="#BBDEFB" fill-rule="evenodd" fill-opacity="0" />
    <g transform="translate(136 80)">
      <path d="M37.7307 2.31969C35.8238 0.914999 33.5288 0.115799 31.1546 0.0450292C31.1546 0.0450292 31.1546 0.0450292 31.1546 0.0450292C24.2381 -0.11779 17.318 0.160005 10.4389 0.893822C5.84385 1.42841 1.43897 5.80746 0.9056 10.3752C-0.301891 21.5885 -0.301891 42.4094 0.9056 53.6195C1.43897 58.1893 5.84385 62.5706 10.4389 63.1028C21.6846 64.2991 33.0266 64.2991 44.2726 63.1028C48.8675 62.5706 53.2729 58.1909 53.8062 53.6195C54.628 45.9843 54.8891 33.883 54.5897 23.4125C54.5897 23.4125 54.5897 23.3699 54.5897 23.3699C54.5698 21.1097 53.8323 18.9184 52.4848 17.097C48.3302 11.4725 43.3576 6.49646 37.7307 2.31969C37.7307 2.31969 37.7307 2.31969 37.7307 2.31969Z" fill="url(#gradient_1)" fill-rule="evenodd" />
      <path d="M23.4601 23.3653C23.4601 23.3653 23.4601 23.3653 23.4601 23.3653C22.5837 23.3815 21.7064 23.4023 20.8372 23.4023C17.137 23.4004 13.4371 23.1982 9.757 22.8144C9.757 22.8144 9.72614 22.8144 9.72614 22.8144C7.53275 22.5601 5.37752 21.4731 3.65736 19.7651C1.93532 18.0492 0.846842 15.907 0.592875 13.718C0.591978 13.7085 0.591978 13.7001 0.592875 13.6852C0.104328 9.14308 -0.0838585 4.5684 0.0341415 0C0.0341415 0 0.0341415 0 0.0341415 0C2.40915 0.0710102 4.70434 0.866193 6.61034 2.27565C12.2473 6.45595 17.2278 11.4451 21.3868 17.088C22.7287 18.8923 23.4582 21.0735 23.4673 23.323C23.4673 23.323 23.4601 23.3653 23.4601 23.3653Z" fill="url(#gradient_2)" fill-rule="evenodd" transform="translate(31.119 0.047)" />
      <path d="M4.49306 35.4778C3.29999 35.4749 2.15674 35.0017 1.31384 34.162C0.325428 33.1781 -0.145648 31.7924 0.0396233 30.4139C0.224894 29.0353 1.04536 27.8213 2.25891 27.1301C5.33376 25.3822 8.54021 23.8739 11.8495 22.6188C12.0498 22.2429 12.2489 21.8569 12.4467 21.4609C13.6767 19.0185 14.7082 16.4822 15.5315 13.8763C13.857 11.2628 12.6074 8.40316 11.8287 5.4026C11.3486 3.48882 12.2235 1.49333 13.9603 0.540871C15.6972 -0.411596 17.8611 -0.0825882 19.2324 1.34245C20.1074 2.25268 20.5449 3.49415 20.4326 4.74846C20.1659 7.67357 19.6287 10.568 18.8279 13.3951C20.3548 15.5587 22.1466 17.5249 24.1618 19.2484C26.295 18.8808 28.4476 18.6354 30.6091 18.5135C32.3595 18.4226 33.9754 19.4449 34.6345 21.06C35.2937 22.6752 34.8511 24.5283 33.5321 25.6762C32.2131 26.8241 30.3074 27.0146 28.7851 26.1507C26.8684 25.0599 25.0396 23.8231 23.315 22.4514C20.1411 23.071 17.02 23.9332 13.9796 25.0304C12.2443 28.1428 10.2314 31.0938 7.96515 33.848C7.16142 34.8208 5.98231 35.4112 4.71788 35.474C4.6386 35.4778 4.56678 35.4778 4.49306 35.4778ZM9.30917 26.9177C7.49652 27.7335 5.63851 28.6696 3.75026 29.7372C3.35306 29.9601 3.0853 30.3568 3.02822 30.8068C2.9422 31.4556 3.29846 32.0828 3.90172 32.3443C4.50497 32.6059 5.20949 32.4388 5.62905 31.9346C6.94852 30.3316 8.17713 28.6566 9.30918 26.9176C9.30918 26.9176 9.30917 26.9177 9.30917 26.9177ZM27.481 21.7974C28.358 22.3951 29.2898 22.9816 30.2859 23.5511C30.574 23.7177 30.924 23.74 31.231 23.6113C31.5514 23.4813 31.7914 23.2089 31.8788 22.876C31.9662 22.5431 31.8908 22.1887 31.6752 21.9196C31.4579 21.6459 31.1199 21.495 30.7698 21.5154C29.8323 21.5605 28.7304 21.6489 27.481 21.7974ZM17.6976 16.9102C17.1513 18.4139 16.5503 19.8632 15.919 21.2335C17.5218 20.7391 19.0566 20.3312 20.5082 19.9966C19.5093 19.0215 18.5701 17.9877 17.6957 16.9008C17.6957 16.9008 17.6976 16.9102 17.6976 16.9102ZM16.0097 3.01542C15.5997 3.03163 15.2193 3.23217 14.9758 3.56053C14.7309 3.88228 14.6479 4.298 14.7508 4.68835C15.1982 6.42076 15.8273 8.10165 16.6277 9.70338C16.9976 7.98022 17.2627 6.23649 17.4216 4.48164C17.4592 4.08896 17.3209 3.69976 17.0436 3.41773C16.7757 3.13368 16.395 2.98225 16.004 3.00419C16.004 3.00419 16.0097 3.01542 16.0097 3.01542Z" fill="url(#gradient_3)" transform="translate(9.882 20.795)" />
    </g>
  </g>
</svg>