<?xml version="1.0" encoding="utf-8"?>
<svg width="342" height="288" viewBox="0 0 342 288" fill="none" xmlns="http://www.w3.org/2000/svg">
  <defs>
    <linearGradient id="gradient_1" gradientUnits="userSpaceOnUse" x1="109.318" y1="108.369" x2="6.887" y2="6.956">
      <stop offset="0" stop-color="#0E95E0" />
      <stop offset="1" stop-color="#2FBDEE" />
    </linearGradient>
    <linearGradient id="gradient_2" gradientUnits="userSpaceOnUse" x1="107.992" y1="75.395" x2="29.213" y2="-2.601">
      <stop offset="0" stop-color="#1EB4EB" />
      <stop offset="0.54" stop-color="#1EB4EB" />
      <stop offset="1" stop-color="#92F4FE" />
    </linearGradient>
  </defs>
  <g>
    <rect width="342" height="288" fill="#BBDEFB" fill-rule="evenodd" fill-opacity="0" />
    <g transform="translate(99 90)">
      <path d="M106.67 105.801C77.1053 108.486 47.3543 108.486 17.7894 105.801C10.2847 105.068 3.08027 98.2369 2.13689 90.79C-0.71018 67.2389 -0.714408 39.956 2.13689 16.4007C3.09296 8.95797 10.2973 2.12676 17.7894 1.3938C24.2986 0.799054 30.8177 0.338332 37.3466 0.0116411C39.7918 -0.122907 42.1531 0.915107 43.6922 2.80109C47.525 7.43759 51.5396 12.1621 55.6685 16.9326C56.7265 18.1565 58.2718 18.8618 59.8989 18.8634C76.1239 18.8215 92.3405 19.2404 108.549 20.1199C116.409 20.5848 123.495 27.1438 123.956 34.6033C124.975 52.1315 124.438 73.3078 122.319 90.8026C121.362 98.2327 114.158 105.068 106.67 105.801Z" fill="url(#gradient_1)" fill-rule="evenodd" />
      <path d="M83.9632 6.48499e-05C69.1145 6.48499e-05 48.5166 0.360264 33.431 1.1016C25.7401 1.52044 16.9747 7.34225 14.3095 13.964C8.23174 29.0814 3.51347 44.7004 0.209526 60.6391C-1.08921 67.2441 3.79691 73.3131 10.7856 73.9622C24.5978 75.1559 44.2735 75.7507 58.5215 75.7507C72.7695 75.7507 87.2206 75.1559 101.832 73.9622C109.261 73.3131 118.225 67.2609 121.36 60.6391C128.431 45.5908 134.202 29.9768 138.612 13.9643C140.393 7.34255 135.536 1.51655 128.124 1.1019C113.541 0.361759 98.8204 -0.00551987 83.9632 6.48499e-05Z" fill="url(#gradient_2)" fill-rule="evenodd" transform="translate(5.02 32.249)" />
    </g>
  </g>
</svg>