<?xml version="1.0" encoding="utf-8"?>
<svg width="342" height="288" viewBox="0 0 342 288" fill="none" xmlns="http://www.w3.org/2000/svg">
  <defs>
    <linearGradient id="gradient_1" gradientUnits="userSpaceOnUse" x1="6.115" y1="-2.292" x2="29.085" y2="37.492">
      <stop offset="0" stop-color="#CA4C28" />
      <stop offset="0.5" stop-color="#C5401E" />
      <stop offset="1" stop-color="#B62F14" />
    </linearGradient>
  </defs>
  <g>
    <rect width="342" height="288" fill="#BBDEFB" fill-rule="evenodd" fill-opacity="0" />
    <g transform="translate(129 80)">
      <path d="M36.8 35.2L32 0C32 0 31.6416 0 31.6416 0C14.1876 0.0509563 0.0509562 14.1876 0 31.6416C0 31.6416 0 32 0 32L36.8 35.2L36.8 35.2Z" fill="#ED6C47" transform="translate(4.8 0)" />
      <path d="M0.358414 0L0 0L0 32L16 38.4L32 32C32 32 32 31.6416 32 31.6416C31.949 14.1876 17.8124 0.0509563 0.358414 0C0.358414 0 0.358414 0 0.358414 0Z" fill="#FF8F6B" transform="translate(36.8 0)" />
      <path d="M64 0C64 0 64 0.352001 64 0.352001C63.9499 17.8099 49.8099 31.9499 32.352 32C32.352 32 31.648 32 31.648 32C14.1901 31.9499 0.0500965 17.8099 0 0.352001C0 0.352001 0 0 0 0L64 0L64 0Z" fill="#D35230" transform="translate(4.8 32)" />
      <path d="M33.6 2.92802C33.6 2.92802 33.6 37.072 33.6 37.072C33.5921 38.2584 32.8731 39.3243 31.776 39.776C31.4267 39.9237 31.0513 39.9999 30.672 40C30.672 40 7.55204 40 7.55204 40C7.10404 39.488 6.67205 38.944 6.27204 38.4C2.19571 32.9622 -0.00526667 26.3481 3.67165e-05 19.552C3.67165e-05 19.552 3.67165e-05 18.848 3.67165e-05 18.848C-0.00931597 12.7181 1.78218 6.7205 5.15204 1.6C5.50404 1.056 5.87202 0.512 6.27204 0C6.27204 0 30.672 0 30.672 0C32.2841 0.0122204 33.5879 1.31601 33.6 2.92802C33.6 2.92802 33.6 2.92802 33.6 2.92802Z" fill="#000000" fill-opacity="0.1" transform="translate(4.8 12.8)" />
      <path d="M32.0001 2.92802C32.0001 2.92802 32.0001 37.072 32.0001 37.072C32 37.4513 31.9238 37.8267 31.7761 38.176C31.3243 39.2731 30.2585 39.992 29.0721 40C29.0721 40 9.00805 40 9.00805 40C8.50182 39.4861 8.01609 38.9523 7.55204 38.4C7.10404 37.888 6.67206 37.344 6.27204 36.8C2.19571 31.3622 -0.00526667 24.748 3.67165e-05 17.952C3.67165e-05 17.952 3.67165e-05 17.248 3.67165e-05 17.248C-0.00931597 11.1181 1.78218 5.1205 5.15204 0C5.15204 0 29.0721 0 29.0721 0C30.6841 0.0121861 31.9879 1.31598 32.0001 2.92802C32.0001 2.92802 32.0001 2.92802 32.0001 2.92802Z" fill="#000000" fill-opacity="0.2" transform="translate(4.8 14.4)" />
      <path d="M32 2.92798C32 2.92798 32 33.872 32 33.872C31.9879 35.484 30.6841 36.7878 29.0721 36.8C29.0721 36.8 6.27204 36.8 6.27204 36.8C2.19571 31.3622 -0.00526667 24.748 3.67165e-05 17.952C3.67165e-05 17.952 3.67165e-05 17.248 3.67165e-05 17.248C-0.00931597 11.1181 1.78218 5.1205 5.15204 0C5.15204 0 29.072 0 29.072 0C30.6841 0.012146 31.9879 1.31594 32 2.92798C32 2.92798 32 2.92798 32 2.92798Z" fill="#000000" fill-opacity="0.2" transform="translate(4.8 14.4)" />
      <path d="M30.4 2.92798C30.4 2.92798 30.4 33.872 30.4 33.872C30.3879 35.484 29.0841 36.7878 27.4721 36.8C27.4721 36.8 6.27204 36.8 6.27204 36.8C2.19571 31.3622 -0.00526667 24.748 3.67165e-05 17.952C3.67165e-05 17.952 3.67165e-05 17.248 3.67165e-05 17.248C-0.00931597 11.1181 1.78218 5.1205 5.15204 0C5.15204 0 27.472 0 27.472 0C29.0841 0.012146 30.3879 1.31594 30.4 2.92798C30.4 2.92798 30.4 2.92798 30.4 2.92798Z" fill="#000000" fill-opacity="0.2" transform="translate(4.8 14.4)" />
      <path d="M2.93278 0C2.93278 0 32.2672 0 32.2672 0C33.8869 0 35.2 1.31308 35.2 2.93278C35.2 2.93278 35.2 32.2672 35.2 32.2672C35.2 33.8869 33.8869 35.2 32.2672 35.2C32.2672 35.2 2.93278 35.2 2.93278 35.2C1.31308 35.2 0 33.8869 0 32.2672C0 32.2672 0 2.93278 0 2.93278C0 1.31308 1.31308 0 2.93278 0C2.93278 0 2.93278 0 2.93278 0Z" fill="url(#gradient_1)" transform="translate(0 14.4)" />
      <path d="M7.74561 0.0183048C9.65519 -0.110556 11.5483 0.444122 13.0864 1.58312C14.3693 2.72841 15.0548 4.39965 14.9456 6.1159C14.9666 7.30896 14.6487 8.4835 14.0288 9.5031C13.4013 10.5052 12.4972 11.3042 11.4256 11.8039C10.2005 12.3737 8.86117 12.655 7.5104 12.6263C7.5104 12.6263 3.80001 12.6263 3.80001 12.6263L3.80001 19.5223L0 19.5223L0 0.0183048L7.74561 0.0183048C7.74561 0.0183048 7.74561 0.0183048 7.74561 0.0183048ZM3.79682 9.64711C3.79682 9.64711 7.06723 9.64711 7.06723 9.64711C8.10403 9.72326 9.13276 9.41641 9.95845 8.78473C10.6414 8.12961 10.9993 7.20576 10.936 6.26153C10.936 4.11219 9.68697 3.03752 7.18885 3.03752C7.18885 3.03752 3.79685 3.03752 3.79685 3.03752L3.79685 9.64711L3.79682 9.64711Z" fill="#FFFFFF" transform="translate(10.174 22.204)" />
    </g>
  </g>
</svg>