<?xml version="1.0" encoding="utf-8"?>
<svg width="342" height="288" viewBox="0 0 342 288" fill="none" xmlns="http://www.w3.org/2000/svg">
  <defs>
    <linearGradient id="gradient_1" gradientUnits="userSpaceOnUse" x1="6.115" y1="-2.292" x2="29.085" y2="37.492">
      <stop offset="0" stop-color="#2368C4" />
      <stop offset="0.5" stop-color="#1A5DBE" />
      <stop offset="1" stop-color="#1146AC" />
    </linearGradient>
  </defs>
  <g>
    <rect width="342" height="288" fill="#BBDEFB" fill-rule="evenodd" fill-opacity="0" />
    <g transform="translate(129 80)">
      <path d="M49.8672 0C49.8672 0 2.93281 0 2.93281 0C1.31306 0 0 1.31306 0 2.93281C0 2.93281 0 2.93281 0 2.93281C0 2.93281 0 16 0 16L27.2 24L52.8 16C52.8 16 52.8 2.93281 52.8 2.93281C52.8 1.31306 51.4869 0 49.8672 0C49.8672 0 49.8672 0 49.8672 0L49.8672 0Z" fill="#41A5EE" transform="translate(16 0)" />
      <path d="M52.8 0L0 0L0 16L27.2 20.8L52.8 16L52.8 0L52.8 0Z" fill="#2B7CD3" transform="translate(16 16)" />
      <path d="M0 0L0 16L25.6 19.2L52.8 16L52.8 0L0 0L0 0Z" fill="#185ABD" transform="translate(16 32)" />
      <path d="M2.93281 16C2.93281 16 49.8672 16 49.8672 16C51.487 16 52.8 14.6869 52.8 13.0672C52.8 13.0672 52.8 13.0672 52.8 13.0672L52.8 0L0 0C0 0 0 13.0672 0 13.0672C0 14.6869 1.31306 16 2.93281 16C2.93281 16 2.93281 16 2.93281 16L2.93281 16Z" fill="#103F91" transform="translate(16 48)" />
      <path d="M19.4672 0L0 0L0 40C0 40 19.4672 40 19.4672 40C21.0848 39.9947 22.3947 38.6847 22.4 37.0672C22.4 37.0672 22.4 2.93281 22.4 2.93281C22.3947 1.31525 21.0848 0.00526714 19.4672 0C19.4672 0 19.4672 0 19.4672 0Z" fill="#000000" fill-opacity="0.1" transform="translate(16 12.8)" />
      <path d="M17.8672 0L0 0L0 40C0 40 17.8672 40 17.8672 40C19.4848 39.9947 20.7947 38.6847 20.8 37.0672C20.8 37.0672 20.8 2.93281 20.8 2.93281C20.7947 1.31525 19.4848 0.00526714 17.8672 0C17.8672 0 17.8672 0 17.8672 0Z" fill="#000000" fill-opacity="0.2" transform="translate(16 14.4)" />
      <path d="M17.8672 0L0 0L0 36.8C0 36.8 17.8672 36.8 17.8672 36.8C19.4848 36.7947 20.7947 35.4847 20.8 33.8672C20.8 33.8672 20.8 2.93281 20.8 2.93281C20.7947 1.31525 19.4848 0.00526714 17.8672 0C17.8672 0 17.8672 0 17.8672 0Z" fill="#000000" fill-opacity="0.2" transform="translate(16 14.4)" />
      <path d="M16.2672 0L0 0L0 36.8C0 36.8 16.2672 36.8 16.2672 36.8C17.8847 36.7947 19.1947 35.4847 19.2 33.8672C19.2 33.8672 19.2 2.93281 19.2 2.93281C19.1947 1.31525 17.8847 0.00526714 16.2672 0C16.2672 0 16.2672 0 16.2672 0Z" fill="#000000" fill-opacity="0.2" transform="translate(16 14.4)" />
      <path d="M2.93281 0C2.93281 0 32.2672 0 32.2672 0C33.8869 0 35.2 1.31306 35.2 2.93281C35.2 2.93281 35.2 32.2672 35.2 32.2672C35.2 33.887 33.8869 35.2 32.2672 35.2C32.2672 35.2 2.93281 35.2 2.93281 35.2C1.31306 35.2 0 33.887 0 32.2672C0 32.2672 0 2.93281 0 2.93281C0 1.31306 1.31306 0 2.93281 0C2.93281 0 2.93281 0 2.93281 0Z" fill="url(#gradient_1)" transform="translate(0 14.4)" />
      <path d="M6.65443 14.432C6.71203 14.8848 6.75043 15.2784 6.76802 15.616C6.76802 15.616 6.8352 15.616 6.8352 15.616C6.8608 15.296 6.91412 14.9104 6.9952 14.4592C7.07628 14.008 7.14935 13.6267 7.21441 13.3152C7.21441 13.3152 10.2992 0.00640106 10.2992 0.00640106L14.288 0.00640106C14.288 0.00640106 17.488 13.1152 17.488 13.1152C17.6739 13.9303 17.807 14.7566 17.8864 15.5888C17.8864 15.5888 17.9392 15.5888 17.9392 15.5888C17.9989 14.7825 18.1101 13.9809 18.272 13.1888C18.272 13.1888 20.824 0 20.824 0L24.4544 0L19.9712 19.072L15.7296 19.072C15.7296 19.072 12.6896 6.44158 12.6896 6.44158C12.6016 6.07839 12.5008 5.60318 12.3904 5.01917C12.28 4.43516 12.2112 4.00797 12.184 3.73917C12.184 3.73917 12.1312 3.73917 12.1312 3.73917C12.096 4.04955 12.0272 4.51039 11.9248 5.12157C11.8224 5.73279 11.7403 6.18503 11.6784 6.47837C11.6784 6.47837 8.82077 19.0688 8.82077 19.0688L4.50717 19.0688L0 0.0063591L3.69598 0.0063591C3.69598 0.0063591 6.47519 13.3424 6.47519 13.3424C6.53762 13.616 6.59683 13.9808 6.65443 14.432C6.65443 14.432 6.65443 14.432 6.65443 14.432Z" fill="#FFFFFF" transform="translate(5.381 22.461)" />
    </g>
  </g>
</svg>