<?xml version="1.0" encoding="utf-8"?>
<svg width="342" height="288" viewBox="0 0 342 288" fill="none" xmlns="http://www.w3.org/2000/svg">
  <defs>
    <linearGradient id="gradient_1" gradientUnits="userSpaceOnUse" x1="50.056" y1="59.946" x2="-0.752" y2="8.993">
      <stop offset="0" stop-color="#BCE4ED" />
      <stop offset="0.54" stop-color="#FFFFFF" />
      <stop offset="1" stop-color="#FFFFFF" />
    </linearGradient>
    <linearGradient id="gradient_2" gradientUnits="userSpaceOnUse" x1="31.473" y1="39.085" x2="-3.187" y2="4.22">
      <stop offset="0" stop-color="#34344F" />
      <stop offset="0.271" stop-color="#3B3B57" />
      <stop offset="0.646" stop-color="#50506D" />
      <stop offset="1" stop-color="#666684" />
    </linearGradient>
    <linearGradient id="gradient_3" gradientUnits="userSpaceOnUse" x1="20.593" y1="26.038" x2="-2.674" y2="2.708">
      <stop offset="0" stop-color="#34344F" />
      <stop offset="0.26" stop-color="#3B3B57" />
      <stop offset="0.66" stop-color="#50506D" />
      <stop offset="1" stop-color="#666684" />
    </linearGradient>
  </defs>
  <g>
    <rect width="342" height="288" fill="#BBDEFB" fill-rule="evenodd" fill-opacity="0" />
    <g transform="translate(136 80)">
      <path d="M37.4171 2.31268C35.5255 0.905829 33.2491 0.114845 30.895 0.0465018C30.895 0.0465018 30.895 0.0465018 30.895 0.0465018C24.0364 -0.120572 17.1742 0.162664 10.3525 0.894395C5.79594 1.42543 1.41807 5.807 0.897258 10.3765C-0.299085 21.5894 -0.299085 42.4068 0.897258 53.6197C1.42461 58.1892 5.79594 62.5795 10.3525 63.1018C21.501 64.2994 32.7452 64.2994 43.8937 63.1018C48.4502 62.573 52.8281 58.1892 53.3489 53.6197C54.1617 45.9842 54.421 33.8906 54.1269 23.412C54.1269 23.412 54.1269 23.3683 54.1269 23.3683C54.1086 21.1099 53.3795 18.9149 52.0437 17.0965C47.9244 11.47 42.9952 6.48775 37.4171 2.31269C37.4171 2.31269 37.4171 2.31268 37.4171 2.31268Z" fill="url(#gradient_1)" fill-rule="evenodd" />
      <path d="M0 3.18217C0 3.18217 0 1.71944 0 1.71944C0 0.769819 0.765306 0 1.70936 0C1.70936 0 15.0005 0 15.0005 0C15.9445 -2.86102e-06 16.7098 0.769816 16.7098 1.71944C16.7098 1.71944 16.7098 3.17662 16.7098 3.17662C16.7092 4.07478 16.0214 4.82107 15.1312 4.88975C14.241 4.95842 13.4481 4.32634 13.3113 3.43884C13.3113 3.43884 10.0652 3.43884 10.0652 3.43884L10.0652 15.0594C10.0652 15.0594 10.3241 15.0594 10.3241 15.0594C11.2681 15.0594 12.0334 15.8292 12.0334 16.7788C12.0334 17.7284 11.2681 18.4983 10.3241 18.4983C10.3241 18.4983 6.38576 18.4983 6.38576 18.4983C5.44224 18.4975 4.67777 17.7279 4.67778 16.7788C4.6778 15.8297 5.44229 15.0601 6.38581 15.0594C6.38581 15.0594 6.64653 15.0594 6.64653 15.0594L6.64653 3.44442C6.64653 3.44442 3.39852 3.44442 3.39852 3.44442C3.26167 4.33192 2.46884 4.96398 1.57861 4.89529C0.688379 4.82659 0.000669479 4.08028 2.86102e-06 3.18217C2.86102e-06 3.18217 0 3.18217 0 3.18217ZM34.0623 32.3314C34.0623 32.3314 1.70936 32.3314 1.70936 32.3314C0.76584 32.3322 0.00136948 33.1018 0.00138283 34.0509C0.00139713 34.9999 0.76589 35.7695 1.70941 35.7703C1.70941 35.7703 34.0623 35.7703 34.0623 35.7703C35.0058 35.7695 35.7703 34.9999 35.7703 34.0508C35.7703 33.1017 35.0058 32.3321 34.0622 32.3314C34.0622 32.3314 34.0623 32.3314 34.0623 32.3314ZM34.0623 23.6991C34.0623 23.6991 1.70936 23.6991 1.70936 23.6991C0.76584 23.6999 0.00136948 24.4695 0.00138283 25.4186C0.00139713 26.3677 0.76589 27.1372 1.70941 27.138C1.70941 27.138 34.0623 27.138 34.0623 27.138C35.0058 27.1372 35.7703 26.3676 35.7703 25.4185C35.7703 24.4694 35.0058 23.6998 34.0622 23.6991C34.0622 23.6991 34.0623 23.6991 34.0623 23.6991ZM20.639 18.5057C20.639 18.5057 34.055 18.5057 34.055 18.5057C34.666 18.5062 35.2308 18.1786 35.5364 17.6464C35.8421 17.1142 35.8421 16.4584 35.5365 15.9262C35.2308 15.394 34.666 15.0663 34.055 15.0668C34.055 15.0668 20.639 15.0668 20.639 15.0668C20.028 15.0663 19.4632 15.3939 19.1575 15.9261C18.8518 16.4583 18.8518 17.1141 19.1575 17.6463C19.4631 18.1785 20.0279 18.5062 20.6389 18.5057C20.6389 18.5057 20.639 18.5057 20.639 18.5057Z" fill="url(#gradient_2)" transform="translate(9.889 14.308)" />
      <path d="M23.2644 23.3589C23.2644 23.3589 23.2644 23.3589 23.2644 23.3589C22.3927 23.3808 21.5211 23.3961 20.6625 23.3961C16.9923 23.3947 13.3247 23.1977 9.67535 22.806C9.67535 22.806 9.64484 22.806 9.64484 22.806C7.46571 22.5525 5.33234 21.4708 3.62391 19.7597C1.91547 18.0486 0.838985 15.9026 0.586206 13.7216C0.587257 13.7115 0.587257 13.7012 0.586206 13.691C0.103451 9.14434 -0.0814514 4.57088 0.0326786 0C0.0326786 0 0.0326786 0 0.0326786 0C2.38744 0.0702471 4.66398 0.863542 6.55481 2.27274C12.1456 6.45512 17.0846 11.4487 21.2095 17.0893C22.537 18.8969 23.2567 21.0812 23.2644 23.3262C23.2644 23.3262 23.2644 23.3589 23.2644 23.3589Z" fill="url(#gradient_3)" fill-rule="evenodd" transform="translate(30.862 0.047)" />
    </g>
  </g>
</svg>