<?xml version="1.0" encoding="utf-8"?>
<svg width="342" height="288" viewBox="0 0 342 288" fill="none" xmlns="http://www.w3.org/2000/svg">
  <defs>
    <linearGradient id="gradient_1" gradientUnits="userSpaceOnUse" x1="91.858" y1="91.311" x2="5.787" y2="5.861">
      <stop offset="0" stop-color="#0E95E0" />
      <stop offset="1" stop-color="#2FBDEE" />
    </linearGradient>
    <linearGradient id="gradient_2" gradientUnits="userSpaceOnUse" x1="90.743" y1="63.527" x2="24.547" y2="-2.192">
      <stop offset="0" stop-color="#1EB4EB" />
      <stop offset="0.54" stop-color="#1EB4EB" />
      <stop offset="1" stop-color="#92F4FE" />
    </linearGradient>
  </defs>
  <g>
    <rect width="342" height="288" fill="#BBDEFB" fill-rule="evenodd" fill-opacity="0" />
    <g transform="translate(118 99)">
      <path d="M89.6325 89.1472C64.7899 91.4094 39.7907 91.4094 14.948 89.1472C8.64197 88.5296 2.58828 82.7737 1.79558 76.499C-0.596748 56.655 -0.600301 33.6666 1.79558 13.8191C2.59895 7.54792 8.65263 1.79199 14.948 1.17441C20.4176 0.673277 25.8954 0.285076 31.3815 0.00980868C33.4362 -0.103561 35.4203 0.771062 36.7136 2.36018C39.9342 6.26686 43.3076 10.2477 46.777 14.2673C47.666 15.2985 48.9645 15.8928 50.3317 15.8942C63.9653 15.8589 77.5917 16.2118 91.211 16.9529C97.8157 17.3446 103.77 22.8712 104.157 29.1565C105.014 43.9256 104.563 61.7686 102.782 76.5096C101.978 82.7702 95.9244 88.5296 89.6325 89.1472Z" fill="url(#gradient_1)" fill-rule="evenodd" />
      <path d="M70.5524 5.34058e-05C58.0753 5.34058e-05 40.7674 0.303555 28.0913 0.928204C21.6288 1.28111 14.2634 6.18653 12.024 11.766C6.91694 24.5038 2.9523 37.6642 0.17606 51.094C-0.915239 56.6594 3.19046 61.773 9.06286 62.32C20.669 63.3258 37.202 63.827 49.1743 63.827C61.1466 63.827 73.2895 63.3258 85.5675 62.32C91.8096 61.773 99.3421 56.6735 101.976 51.094C107.918 38.4145 112.767 25.2582 116.472 11.7662C117.969 6.18678 113.888 1.27783 107.66 0.928455C95.4058 0.304815 83.0366 -0.00465202 70.5524 5.34058e-05Z" fill="url(#gradient_2)" fill-rule="evenodd" transform="translate(4.218 27.173)" />
    </g>
  </g>
</svg>