<?xml version="1.0" encoding="utf-8"?>
<svg width="106.04" height="100" viewBox="0 0 106.04 100" fill="none" xmlns="http://www.w3.org/2000/svg">
  <defs>
    <linearGradient id="gradient_1" gradientUnits="userSpaceOnUse" x1="92.346" y1="90.889" x2="6.666" y2="5.208">
      <stop offset="0" stop-color="#FF6224" />
      <stop offset="0.54" stop-color="#FF6224" />
      <stop offset="1" stop-color="#FFAD8A" />
    </linearGradient>
    <linearGradient id="gradient_2" gradientUnits="userSpaceOnUse" x1="91.318" y1="71.553" x2="14.715" y2="-5.051">
      <stop offset="0" stop-color="#FE7838" />
      <stop offset="0.54" stop-color="#FE7636" />
      <stop offset="1" stop-color="#FFAD8A" />
    </linearGradient>
    <linearGradient id="gradient_3" gradientUnits="userSpaceOnUse" x1="7.973" y1="7.976" x2="1.371" y2="1.371">
      <stop offset="0" stop-color="#FFFFFF" stop-opacity="0.141" />
      <stop offset="0.54" stop-color="#FFFFFF" stop-opacity="0.729" />
      <stop offset="1" stop-color="#FFFFFF" />
    </linearGradient>
  </defs>
  <g>
    <g>
      <path d="M90.8579 87.9022C65.6773 90.2128 40.3379 90.2128 15.1572 87.9022C8.76739 87.2794 2.62977 81.394 1.81702 74.9886C-0.605652 54.7684 -0.60569 34.331 1.817 14.1105C2.62975 7.70824 8.76426 1.82907 15.1572 1.20316C20.7063 0.692472 26.2596 0.294923 31.8169 0.0105128C33.9016 -0.108306 35.9156 0.78564 37.2259 2.41138C40.4924 6.40037 43.9116 10.4641 47.4272 14.5558C48.3333 15.6125 49.6569 16.2191 51.0488 16.2156C64.8665 16.1782 78.678 16.5353 92.4832 17.2868C99.1751 17.6885 105.213 23.331 105.605 29.7427C106.477 44.8311 106.009 59.9672 104.207 74.973C103.385 81.3909 97.2478 87.2701 90.8579 87.9022Z" fill="url(#gradient_1)" transform="translate(0.009 0)" />
      <path d="M53.0132 8.01086e-05C39.8536 8.01086e-05 26.6982 0.356108 13.5469 1.06817C6.85494 1.46987 0.816962 7.11238 0.424604 13.524C-0.441078 28.5987 0.0135609 39.5599 1.81966 54.6128C2.63863 61.0213 8.77626 66.9099 15.1661 67.5326C27.7611 68.6869 40.3778 69.265 53.0164 69.2671C65.6549 69.2692 78.2706 68.6911 90.8635 67.5326C97.2564 66.9099 103.391 61.0245 104.207 54.6222C106.013 39.5692 106.468 28.6081 105.602 13.5334C105.21 7.11549 99.1747 1.47299 92.4827 1.07751C79.3356 0.352997 66.1791 -0.00614929 53.0132 8.01086e-05Z" fill="url(#gradient_2)" transform="translate(0 30.733)" />
    </g>
    <g transform="translate(31 44)">
      <path d="M22.1466 22.7448C22.1466 22.7448 22.1829 22.7448 22.1829 22.7448C24.1636 22.6258 26.1369 22.4101 28.0954 22.0987C31.0138 21.5877 33.8082 18.8683 34.3284 16.0403C34.407 15.5704 34.4796 15.0917 34.5491 14.613C34.1106 14.0257 33.0521 12.622 32.6529 12.0757C31.8182 10.9363 31.0289 9.86144 30.8021 9.54722C30.0417 8.4329 28.7669 7.75145 27.3906 7.72354C26.0959 7.72997 24.8973 8.38807 24.2242 9.46209C24.2242 9.46209 23.695 10.2609 23.695 10.2609C23.26 10.9406 22.4958 11.3554 21.6717 11.3592C20.8305 11.3516 20.051 10.9289 19.6031 10.2374C17.8763 7.72649 15.8531 4.75453 13.9357 1.76203C13.3108 0.693659 12.1524 0.0240898 10.8873 0C9.62315 0 8.41949 0.669569 7.58783 1.84131C5.89728 4.23473 4.14624 6.64577 2.44661 8.97751C1.93551 9.68232 0.683482 11.3915 0 12.3342C0.127022 13.6028 0.293352 14.8353 0.498999 16.0315C1.0222 18.8654 3.82567 21.5731 6.72894 22.0782C10.2612 22.6256 13.8337 22.8908 17.4106 22.8711C18.6203 22.8711 19.7876 22.8417 20.9247 22.7918C20.9247 22.7918 20.8522 22.7272 20.8522 22.7272C20.8522 22.7272 20.9308 22.7918 20.9308 22.7918C21.3179 22.7859 21.702 22.7683 22.077 22.7448C22.077 22.7448 22.1466 22.7448 22.1466 22.7448Z" fill="#FFFFFF" transform="translate(5 18)" />
      <path d="M0 4.67231C0 2.09186 2.09186 0 4.67231 0C7.25275 0 9.34461 2.09186 9.34461 4.67231C9.34461 7.25275 7.25275 9.34461 4.67231 9.34461C2.09186 9.34461 0 7.25275 0 4.67231Z" fill="url(#gradient_3)" fill-rule="evenodd" transform="translate(24 12)" />
      <path d="M22.6745 5.47481C26.1488 5.45266 29.619 5.71687 33.0499 6.2648C35.8838 6.77578 38.5914 9.49518 39.1024 12.3174C40.1556 19.1883 40.1556 26.1796 39.1024 33.0505C38.5973 35.8874 35.872 38.598 33.0499 39.109C31.1481 39.4204 29.2319 39.636 27.3085 39.7551C27.3085 39.7551 27.2732 39.7551 27.2732 39.7551C27.2732 39.7551 27.2057 39.7551 27.2057 39.7551C25.7637 39.8432 24.2396 39.8901 22.6831 39.8931C19.2098 39.9128 15.7407 39.6476 12.3107 39.1002C9.4797 38.5951 6.76912 35.8874 6.26106 33.0535C5.20383 26.1799 5.20383 19.1851 6.26105 12.3115C6.76911 9.47758 9.47676 6.76994 12.3077 6.25895C15.7359 5.71284 19.203 5.44862 22.6743 5.46898C22.6743 5.46898 22.6745 5.47481 22.6745 5.47481ZM22.6743 0.000827245C22.6743 0.000827245 22.6743 0.000827245 22.6743 0.000827245C18.8955 -0.0177602 15.1217 0.276915 11.3916 0.88184C11.3916 0.88184 11.371 0.88184 11.371 0.88184C6.28168 1.78047 1.76795 6.29419 0.869317 11.3835C0.869317 11.3835 0.869317 11.4011 0.869317 11.4011C-0.289772 18.8813 -0.289772 26.4954 0.869317 33.9756C0.869317 33.9756 0.869317 33.9962 0.869317 33.9962C1.76795 39.0826 6.28167 43.5992 11.371 44.4979C11.371 44.4979 11.3886 44.4979 11.3886 44.4979C15.1219 45.1012 18.8986 45.3959 22.6803 45.3789C24.3513 45.3789 25.9871 45.326 27.5435 45.2291C27.5435 45.2291 27.5817 45.2291 27.5817 45.2291C29.7198 45.0993 31.8498 44.8592 33.9632 44.5096C33.9632 44.5096 33.9838 44.5096 33.9838 44.5096C39.0731 43.611 43.5868 39.0943 44.4854 34.0079C44.4854 34.0079 44.4854 33.9903 44.4854 33.9903C45.6445 26.5101 45.6445 18.896 44.4854 11.4158C44.4854 11.4158 44.4854 11.3953 44.4854 11.3953C43.5868 6.30594 39.0731 1.79221 33.9838 0.893581C33.9838 0.893581 33.9661 0.893581 33.9661 0.893581C30.233 0.288789 26.4562 -0.00589435 22.6745 0.0125676C22.6745 0.0125676 22.6743 0.000827245 22.6743 0.000827245Z" fill="#FFFFFF" />
    </g>
  </g>
</svg>