<?xml version="1.0" encoding="utf-8"?>
<svg width="85.013" height="100" viewBox="0 0 85.013 100" fill="none" xmlns="http://www.w3.org/2000/svg">
  <defs>
    <linearGradient id="gradient_1" gradientUnits="userSpaceOnUse" x1="78.432" y1="93.677" x2="-1.183" y2="14.065">
      <stop offset="0" stop-color="#9273A3" />
      <stop offset="0.54" stop-color="#886C97" />
      <stop offset="1" stop-color="#9273A3" />
    </linearGradient>
    <linearGradient id="gradient_2" gradientUnits="userSpaceOnUse" x1="32.268" y1="40.696" x2="-4.186" y2="4.241">
      <stop offset="0" stop-color="#34344F" />
      <stop offset="0.26" stop-color="#3B3B57" />
      <stop offset="0.66" stop-color="#50506D" />
      <stop offset="1" stop-color="#666684" />
    </linearGradient>
  </defs>
  <g>
    <path d="M58.6272 3.62716C55.6653 1.4246 52.0987 0.184147 48.4093 0.0733541C48.4093 0.0733541 48.4093 0.0733541 48.4093 0.0733541C37.662 -0.189211 26.9091 0.253279 16.2198 1.39794C9.07983 2.22618 2.23361 9.0724 1.40537 16.2123C-0.468457 33.7317 -0.468457 66.2623 1.40537 83.7787C2.23361 90.9216 9.07983 97.7678 16.2198 98.596C33.6941 100.468 51.3183 100.468 68.7926 98.596C75.9326 97.7678 82.7788 90.9216 83.607 83.7787C84.8846 71.8485 85.2899 52.9399 84.8288 36.5806C84.8288 36.5806 84.8288 36.5131 84.8288 36.5131C84.7998 32.9837 83.6544 29.5539 81.5567 26.7152C75.099 17.9262 67.3716 10.1453 58.6273 3.62723C58.6273 3.62723 58.6272 3.62716 58.6272 3.62716Z" fill="url(#gradient_1)" fill-rule="evenodd" />
    <path d="M11.5802 35.8245C8.81221 35.8245 6.89631 35.2181 5.83244 34.0053C4.76857 32.7925 4.23664 30.8986 4.23664 28.3238L4.23664 23.8457C4.23664 22.3157 3.9236 21.2242 3.29752 20.5711C2.67144 19.9181 1.57226 19.5915 0 19.5915L0 16.233C1.57226 16.233 2.67144 15.9065 3.29752 15.2534C3.9236 14.6004 4.23664 13.5088 4.23664 11.9788L4.23664 7.50076C4.23664 4.92587 4.76857 3.03202 5.83244 1.81921C6.89631 0.606403 8.81221 0 11.5802 0L11.5802 2.74282C9.94199 2.74282 8.81692 3.12532 8.20496 3.89032C7.593 4.65532 7.28702 5.8588 7.28702 7.50076L7.28702 13.0983C7.28702 14.2365 7.03282 15.2091 6.52443 16.0161C6.01603 16.8231 4.95216 17.3852 3.33282 17.7023L3.33282 18.1222C4.95216 18.4394 6.01603 19.0015 6.52443 19.8084C7.03282 20.6154 7.28702 21.588 7.28702 22.7262L7.28702 28.3238C7.28702 29.9564 7.593 31.1575 8.20496 31.9272C8.81692 32.6969 9.94199 33.0817 11.5802 33.0817L11.5802 35.8245ZM20.9572 26.0847L20.7313 27.5961C20.5712 28.6596 20.3288 29.7978 20.004 31.0106C19.6792 32.2234 19.3426 33.3662 18.9943 34.4391C18.6459 35.512 18.3588 36.3656 18.1328 37L15.5908 37C15.7132 36.4029 15.8733 35.6146 16.071 34.635C16.2687 33.6554 16.4688 32.5616 16.6712 31.3534C16.8736 30.1453 17.0407 28.9115 17.1725 27.652L17.342 26.0847L20.9572 26.0847ZM18.9236 14.2738C18.227 14.2738 17.6291 14.0266 17.1301 13.5321C16.6311 13.0377 16.3817 12.4453 16.3817 11.7549C16.3817 11.0645 16.6311 10.4721 17.1301 9.97768C17.6291 9.48323 18.227 9.23601 18.9236 9.23601C19.6203 9.23601 20.2182 9.48323 20.7172 9.97768C21.2161 10.4721 21.4656 11.0645 21.4656 11.7549C21.4656 12.4453 21.2161 13.0377 20.7172 13.5321C20.2182 14.0266 19.6203 14.2738 18.9236 14.2738L18.9236 14.2738ZM25.4199 0C28.1878 0 30.1037 0.606403 31.1676 1.81921C32.2314 3.03202 32.7634 4.92587 32.7634 7.50076L32.7634 11.9788C32.7634 13.5088 33.0764 14.6004 33.7025 15.2534C34.3286 15.9065 35.4277 16.233 37 16.233L37 19.5915C35.4277 19.5915 34.3286 19.9181 33.7025 20.5711C33.0764 21.2242 32.7634 22.3157 32.7634 23.8457L32.7634 28.3238C32.7634 30.8986 32.2314 32.7925 31.1676 34.0053C30.1037 35.2181 28.1878 35.8245 25.4199 35.8245L25.4199 33.0817C27.058 33.0817 28.1831 32.6969 28.795 31.9272C29.407 31.1575 29.713 29.9564 29.713 28.3238L29.713 22.7262C29.713 21.588 29.9672 20.6154 30.4756 19.8084C30.984 19.0015 32.0478 18.4394 33.6672 18.1222L33.6672 17.7023C32.0478 17.3852 30.984 16.8231 30.4756 16.0161C29.9672 15.2091 29.713 14.2365 29.713 13.0983L29.713 7.50076C29.713 5.8588 29.407 4.65532 28.795 3.89032C28.1831 3.12532 27.058 2.74282 25.4199 2.74282L25.4199 0Z" fill="#FFFFFF" transform="translate(24 42)" />
    <path d="M36.4563 36.5103C36.4563 36.5103 36.4563 36.5103 36.4563 36.5103C35.0935 36.5426 33.7337 36.5661 32.3797 36.5661C26.6285 36.5647 20.8815 36.2578 15.1629 35.6468C15.1629 35.6468 15.113 35.6468 15.113 35.6468C11.706 35.2532 8.35779 33.5615 5.68215 30.8859C3.00651 28.2103 1.31474 24.8562 0.921173 21.4404C0.91975 21.4238 0.91975 21.4071 0.921173 21.3905C0.1619 14.2871 -0.128506 7.1415 0.051815 0C0.051815 0 0.051815 0 0.051815 0C3.74228 0.110215 7.30995 1.35072 10.2727 3.55387C19.0335 10.0876 26.7723 17.8897 33.2344 26.7035C35.3174 29.5271 36.4488 32.9398 36.4651 36.4486C36.4651 36.4486 36.4563 36.5103 36.4563 36.5103Z" fill="url(#gradient_2)" fill-rule="evenodd" transform="translate(48.355 0.073)" />
  </g>
</svg>