<?xml version="1.0" encoding="utf-8"?>
<svg width="90.578" height="100" viewBox="0 0 90.578 100" fill="none" xmlns="http://www.w3.org/2000/svg">
  <defs>
    <linearGradient id="gradient_1" gradientUnits="userSpaceOnUse" x1="74.895" y1="89.447" x2="-1.125" y2="13.426">
      <stop offset="0" stop-color="#BCE4ED" />
      <stop offset="0.57" stop-color="#FFFFFF" />
      <stop offset="1" stop-color="#FFFFFF" />
    </linearGradient>
    <linearGradient id="gradient_2" gradientUnits="userSpaceOnUse" x1="30.812" y1="38.856" x2="-3.996" y2="4.047">
      <stop offset="0" stop-color="#34344F" />
      <stop offset="0.26" stop-color="#3B3B57" />
      <stop offset="0.66" stop-color="#50506D" />
      <stop offset="1" stop-color="#666684" />
    </linearGradient>
    <linearGradient id="gradient_3" gradientUnits="userSpaceOnUse" x1="34.065" y1="33.432" x2="1.121" y2="0.485">
      <stop offset="0" stop-color="#34344F" />
      <stop offset="0.26" stop-color="#3B3B57" />
      <stop offset="0.66" stop-color="#50506D" />
      <stop offset="1" stop-color="#666684" />
    </linearGradient>
    <linearGradient id="gradient_4" gradientUnits="userSpaceOnUse" x1="38.648" y1="38.645" x2="6.635" y2="6.632">
      <stop offset="0" stop-color="#EF3739" />
      <stop offset="0.54" stop-color="#EF3739" />
      <stop offset="1" stop-color="#FF8C8B" />
    </linearGradient>
    <linearGradient id="gradient_5" gradientUnits="userSpaceOnUse" x1="25.36" y1="25.236" x2="7.193" y2="7.067">
      <stop offset="0" stop-color="#FFD2D2" />
      <stop offset="0.57" stop-color="#FFFFFF" />
      <stop offset="1" stop-color="#FFFFFF" />
    </linearGradient>
  </defs>
  <g>
    <path d="M55.984 3.45816C53.1549 1.35718 49.7497 0.174255 46.2274 0.0688958C46.2274 0.0688958 46.2274 0.0688958 46.2274 0.0688958C35.9639 -0.179144 25.6951 0.242723 15.4865 1.33181C8.66986 2.12479 2.13222 8.67423 1.33925 15.4792C-0.446417 32.2199 -0.446417 63.2696 1.33925 79.9986C2.13222 86.8182 8.68161 93.3559 15.4865 94.146C32.1675 95.9345 48.992 95.9345 65.673 94.146C72.4926 93.3559 79.0302 86.8182 79.8203 79.9986C81.0391 68.606 81.4268 50.5613 80.9951 34.9278C80.9951 34.9278 80.9951 34.8632 80.9951 34.8632C80.9697 31.4936 79.879 28.2182 77.879 25.5061C71.7119 17.1138 64.3332 9.6835 55.984 3.4582C55.984 3.4582 55.984 3.45816 55.984 3.45816Z" fill="url(#gradient_1)" fill-rule="evenodd" />
    <path d="M34.8124 34.8589C34.8124 34.8589 34.8124 34.8589 34.8124 34.8589C33.5114 34.8913 32.2103 34.9147 30.921 34.9147C25.4269 34.9116 19.9368 34.6175 14.4739 34.0336C14.4739 34.0336 14.4269 34.0336 14.4269 34.0336C11.1727 33.6548 7.9656 32.0424 5.41927 29.4872C2.87293 26.932 1.25174 23.7366 0.872871 20.4795C0.874126 20.4639 0.874126 20.4482 0.872871 20.4325C0.151096 13.6469 -0.123528 6.82143 0.050766 0C0.050766 0 0.050766 0 0.050766 0C3.57334 0.106215 6.97861 1.29018 9.80729 3.3922C18.173 9.63197 25.5631 17.0825 31.7345 25.4988C33.7195 28.1969 34.7953 31.4563 34.8065 34.806C34.8065 34.806 34.8124 34.8589 34.8124 34.8589Z" fill="url(#gradient_2)" fill-rule="evenodd" transform="translate(46.174 0.069)" />
    <path d="M36.1765 30.1891C36.1765 31.6992 34.9524 32.9234 33.4422 32.9234C33.4422 32.9234 2.7365 32.9234 2.7365 32.9234C1.75911 32.9242 0.855633 32.4033 0.366705 31.5569C-0.122221 30.7106 -0.122234 29.6677 0.366665 28.8214C0.85557 27.9751 1.75903 27.454 2.73642 27.4548C2.73642 27.4548 33.4422 27.4548 33.4422 27.4548C34.9524 27.4548 36.1765 28.679 36.1765 30.1891ZM2.7365 19.196C2.7365 19.196 45.1283 19.196 45.1283 19.196C46.6376 19.1948 47.8605 17.971 47.8604 16.4617C47.8604 14.9524 46.6375 13.7286 45.1283 13.7274C45.1283 13.7274 2.7365 13.7274 2.7365 13.7274C1.75912 13.7266 0.855633 14.2476 0.366705 15.0939C-0.122221 15.9402 -0.122234 16.9831 0.366665 17.8295C0.85557 18.6758 1.75903 19.1968 2.73642 19.196C2.73642 19.196 2.7365 19.196 2.7365 19.196ZM2.7365 5.46864C2.7365 5.46864 31.4569 5.46864 31.4569 5.46864C32.4343 5.46943 33.3377 4.94845 33.8267 4.10214C34.3156 3.25583 34.3156 2.2129 33.8267 1.36657C33.3378 0.520245 32.4343 -0.000759125 31.4569 0C31.4569 0 2.7365 0 2.7365 0C1.75911 -0.000789642 0.855633 0.520191 0.366705 1.3665C-0.122221 2.21281 -0.122234 3.25574 0.366665 4.10207C0.85557 4.94839 1.75903 5.4694 2.73642 5.46864C2.73642 5.46864 2.7365 5.46864 2.7365 5.46864Z" fill="url(#gradient_3)" transform="translate(16.647 38.99)" />
    <path d="M22.6416 7.62939e-06C13.4851 -0.00117493 5.22956 5.51369 1.72471 13.9729C-1.78014 22.4321 0.155945 32.1697 6.63013 38.6448C13.1043 45.1198 22.8415 47.0572 31.3011 43.5534C39.7607 40.0496 45.2766 31.7947 45.2766 22.6382C45.2766 10.1366 35.143 0.00162125 22.6415 0C22.6415 0 22.6416 7.62939e-06 22.6416 7.62939e-06Z" fill="url(#gradient_4)" fill-rule="evenodd" transform="translate(45.302 54.723)" />
    <path d="M27.7717 1.39619C27.7721 0.965942 27.5739 0.559647 27.2347 0.295052C26.8955 0.0304642 26.4531 -0.0628128 26.036 0.0422592C26.036 0.0422592 10.6199 3.91907 10.6199 3.91907C9.99848 4.07414 9.56247 4.63248 9.56263 5.273C9.56263 5.273 9.56263 21.2766 9.56263 21.2766C8.50816 20.7701 7.35202 20.511 6.18226 20.5188C2.76954 20.5188 0 22.5952 0 25.1534C0 27.7114 2.76954 29.7879 6.18226 29.7879C9.59499 29.7879 12.3498 27.7144 12.3498 25.1534C12.3498 25.1152 12.3498 25.0741 12.3498 25.0359C12.3498 25.0359 12.3498 9.5874 12.3498 9.5874L24.9787 6.41254C24.9787 6.41254 24.9787 17.4027 24.9787 17.4027C23.9224 16.8954 22.7642 16.6362 21.5924 16.645C18.1767 16.645 15.4101 18.7185 15.4101 21.2766C15.4101 23.8347 18.1768 25.9111 21.5924 25.9111C25.0081 25.9111 27.76 23.8376 27.76 21.2766C27.7747 21.2384 27.7717 21.1973 27.7717 21.1591C27.7717 21.1591 27.7717 1.39619 27.7717 1.39619Z" fill="url(#gradient_5)" fill-rule="evenodd" transform="translate(53.167 62.464)" />
  </g>
</svg>