<?xml version="1.0" encoding="utf-8"?>
<svg width="106.043" height="100" viewBox="0 0 106.043 100" fill="none" xmlns="http://www.w3.org/2000/svg">
  <defs>
    <linearGradient id="gradient_1" gradientUnits="userSpaceOnUse" x1="92.346" y1="90.889" x2="6.666" y2="5.208">
      <stop offset="0" stop-color="#561CF7" />
      <stop offset="1" stop-color="#6F2EFE" />
    </linearGradient>
    <linearGradient id="gradient_2" gradientUnits="userSpaceOnUse" x1="91.321" y1="71.553" x2="14.718" y2="-5.051">
      <stop offset="0" stop-color="#6F2EFE" />
      <stop offset="0.36" stop-color="#6F2EFE" />
      <stop offset="1" stop-color="#AE90FF" />
    </linearGradient>
    <linearGradient id="gradient_3" gradientUnits="userSpaceOnUse" x1="35.58" y1="35.387" x2="10.099" y2="9.905">
      <stop offset="0" stop-color="#E0DCFF" />
      <stop offset="0.57" stop-color="#FFFFFF" />
      <stop offset="1" stop-color="#FFFFFF" />
    </linearGradient>
  </defs>
  <g>
    <path d="M90.858 87.9022C65.6773 90.2128 40.3379 90.2128 15.1572 87.9022C8.76739 87.2794 2.62977 81.394 1.81702 74.9886C-0.605652 54.7684 -0.60569 34.331 1.817 14.1105C2.62975 7.70824 8.76426 1.82907 15.1572 1.20316C20.7063 0.692472 26.2596 0.294923 31.8169 0.0105128C33.9016 -0.108306 35.9156 0.78564 37.2259 2.41138C40.4924 6.40037 43.9116 10.4641 47.4272 14.5558C48.3333 15.6125 49.6569 16.2191 51.0488 16.2156C64.8665 16.1782 78.678 16.5353 92.4832 17.2868C99.1751 17.6885 105.213 23.331 105.605 29.7427C106.477 44.8311 106.009 59.9672 104.207 74.973C103.385 81.3909 97.2478 87.2701 90.858 87.9022Z" fill="url(#gradient_1)" transform="translate(0.012 0)" />
    <path d="M53.0132 8.01086e-05C39.8516 8.01086e-05 26.6961 0.356108 13.5469 1.06817C6.85494 1.46987 0.816962 7.11238 0.424604 13.524C-0.441078 28.5987 0.0135609 39.5599 1.81966 54.6128C2.64174 61.0213 8.79494 66.9099 15.1692 67.5326C27.7642 68.6869 40.3809 69.265 53.0195 69.2671C65.658 69.2692 78.2737 68.6911 90.8666 67.5326C97.2596 66.9099 103.394 61.0245 104.21 54.6221C106.016 39.5692 106.471 28.6081 105.605 13.5334C105.213 7.11549 99.1778 1.47299 92.4828 1.07751C79.3398 0.352997 66.1832 -0.00614929 53.0132 8.01086e-05Z" fill="url(#gradient_2)" transform="translate(0 30.733)" />
    <path d="M38.9619 1.95525C38.9609 1.35253 38.6824 0.783791 38.2068 0.413399C37.7312 0.0430069 37.1116 -0.0877762 36.5269 0.0588303C36.5269 0.0588303 14.8972 5.4896 14.8972 5.4896C14.0273 5.70927 13.4179 6.49191 13.4181 7.38913C13.4181 7.38913 13.4181 29.8346 13.4181 29.8346C11.9359 29.1261 10.312 28.764 8.66928 28.7758C3.88311 28.7758 0 31.6843 0 35.2747C0 38.8651 3.88311 41.7735 8.66928 41.7735C13.4554 41.7735 17.3386 38.8651 17.3386 35.2747C17.3386 35.2186 17.3386 35.1626 17.3386 35.1096C17.3386 35.1096 17.3386 13.4396 17.3386 13.4396L35.0414 8.9897C35.0414 8.9897 35.0414 24.4163 35.0414 24.4163C33.5602 23.7047 31.9359 23.3415 30.2926 23.3544C25.5034 23.3544 21.6234 26.2629 21.6234 29.8502C21.6234 33.4375 25.5034 36.349 30.2926 36.349C35.0819 36.349 38.9619 33.4406 38.9619 29.8502C38.9651 29.7785 38.9651 29.7256 38.9619 29.6695C38.9619 29.6695 38.9619 1.95525 38.9619 1.95525Z" fill="url(#gradient_3)" transform="translate(26.906 43.955)" />
  </g>
</svg>