<?xml version="1.0" encoding="utf-8"?>
<svg width="132.008" height="100" viewBox="0 0 132.008 100" fill="none" xmlns="http://www.w3.org/2000/svg">
  <defs>
    <linearGradient id="gradient_1" gradientUnits="userSpaceOnUse" x1="100.214" y1="100.341" x2="6.314" y2="6.441">
      <stop offset="0" stop-color="#0E95E0" />
      <stop offset="1" stop-color="#2FBDEE" />
    </linearGradient>
    <linearGradient id="gradient_2" gradientUnits="userSpaceOnUse" x1="98.998" y1="69.81" x2="26.78" y2="-2.408">
      <stop offset="0" stop-color="#1EB4EB" />
      <stop offset="0.54" stop-color="#1EB4EB" />
      <stop offset="1" stop-color="#92F4FE" />
    </linearGradient>
  </defs>
  <g>
    <path d="M97.7867 97.964C70.684 100.45 43.4107 100.45 16.3079 97.964C9.42816 97.2853 2.82375 90.9601 1.95893 84.0648C-0.651037 62.2583 -0.654913 36.9963 1.95893 15.1858C2.83538 8.29441 9.4398 1.96922 16.3079 1.29056C22.275 0.739865 28.2512 0.313271 34.2364 0.0107788C36.478 -0.113803 38.6427 0.847321 40.0536 2.5936C43.5671 6.88666 47.2475 11.2612 51.0325 15.6783C52.0024 16.8116 53.4189 17.4646 54.9106 17.4661C69.7844 17.4274 84.6505 17.8152 99.5088 18.6296C106.714 19.06 113.21 25.1332 113.633 32.0401C114.567 48.2699 114.075 67.8776 112.132 84.0765C111.255 90.9562 104.651 97.2853 97.7867 97.964Z" fill="url(#gradient_1)" fill-rule="evenodd" />
    <path d="M76.9708 5.91278e-05C63.3587 5.91278e-05 44.4762 0.333576 30.6469 1.02C23.5965 1.40781 15.561 6.79838 13.1178 12.9297C7.54621 26.9272 3.22088 41.3892 0.192077 56.1473C-0.998502 62.2631 3.48071 67.8824 9.88734 68.4836C22.5494 69.5888 40.5864 70.1395 53.6479 70.1395C66.7094 70.1395 79.957 69.5888 93.352 68.4836C100.162 67.8824 108.38 62.2786 111.253 56.1473C117.735 42.2137 123.026 27.7563 127.068 12.9299C128.701 6.79866 124.249 1.40421 117.454 1.02028C104.085 0.334961 90.5908 -0.0051136 76.9708 5.91278e-05Z" fill="url(#gradient_2)" fill-rule="evenodd" transform="translate(4.602 29.861)" />
  </g>
</svg>