<?xml version="1.0" encoding="utf-8"?>
<svg width="85.012" height="100" viewBox="0 0 85.012 100" fill="none" xmlns="http://www.w3.org/2000/svg">
  <defs>
    <linearGradient id="gradient_1" gradientUnits="userSpaceOnUse" x1="78.432" y1="93.677" x2="-1.182" y2="14.065">
      <stop offset="0" stop-color="#EF3739" />
      <stop offset="0.54" stop-color="#EF3739" />
      <stop offset="1" stop-color="#FF8C8B" />
    </linearGradient>
    <linearGradient id="gradient_2" gradientUnits="userSpaceOnUse" x1="32.268" y1="40.696" x2="-4.186" y2="4.241">
      <stop offset="0" stop-color="#34344F" />
      <stop offset="0.26" stop-color="#3B3B57" />
      <stop offset="0.66" stop-color="#50506D" />
      <stop offset="1" stop-color="#666684" />
    </linearGradient>
    <linearGradient id="gradient_3" gradientUnits="userSpaceOnUse" x1="40.229" y1="52.015" x2="5.184" y2="16.971">
      <stop offset="0" stop-color="#FFD2D2" />
      <stop offset="0.57" stop-color="#FFFFFF" />
      <stop offset="1" stop-color="#FFFFFF" />
    </linearGradient>
  </defs>
  <g>
    <path d="M58.6285 3.62451C55.6654 1.42969 52.0993 0.180936 48.4101 0.0703581C48.4101 0.0703581 48.4101 0.0703581 48.4101 0.0703581C37.6627 -0.184047 26.9099 0.250007 16.2207 1.3966C9.08057 2.23189 2.23597 9.07416 1.40718 16.2113C-0.469099 33.7321 -0.469099 66.2646 1.40718 83.7805C2.23597 90.9209 9.08057 97.7666 16.2207 98.5981C33.6949 100.467 51.3189 100.467 68.7938 98.5981C75.9336 97.7666 82.7791 90.9233 83.6077 83.7805C84.8848 71.8505 85.2905 52.9421 84.8252 36.582C84.8252 36.582 84.8252 36.5155 84.8252 36.5155C84.7943 32.9839 83.6483 29.5599 81.5544 26.714C75.0987 17.9257 67.3719 10.1507 58.6285 3.62451C58.6285 3.62451 58.6285 3.62451 58.6285 3.62451Z" fill="url(#gradient_1)" />
    <path d="M36.4539 36.5083C36.4539 36.5083 36.4539 36.5083 36.4539 36.5083C35.0921 36.5336 33.7288 36.5661 32.3782 36.5661C26.6287 36.5632 20.8795 36.2472 15.1611 35.6475C15.1611 35.6475 15.1131 35.6475 15.1131 35.6475C11.7049 35.2501 8.35596 33.5517 5.68305 30.8829C3.00723 28.2019 1.31588 24.8547 0.921249 21.4344C0.919857 21.4195 0.919857 21.4064 0.921249 21.3832C0.162113 14.2861 -0.130306 7.13812 0.053051 0C0.053051 0 0.053051 0 0.053051 0C3.7435 0.110953 7.30992 1.35343 10.2716 3.55571C19.0306 10.0874 26.7697 17.8829 33.2322 26.7001C35.3174 29.5193 36.451 32.9274 36.4651 36.4422C36.4651 36.4422 36.4539 36.5083 36.4539 36.5083Z" fill="url(#gradient_2)" transform="translate(48.355 0.073)" />
    <path d="M6.98162 55.4341C5.12775 55.4295 3.3513 54.6902 2.04154 53.3782C0.505672 51.8408 -0.226317 49.6757 0.0615683 47.5217C0.349455 45.3677 1.62435 43.4708 3.51005 42.3907C8.28796 39.6596 13.2704 37.3029 18.4125 35.3419C18.7238 34.7545 19.0332 34.1514 19.3406 33.5327C21.2517 29.7165 22.8546 25.7535 24.1338 21.6817C21.5319 17.5982 19.5902 13.1299 18.3802 8.44156C17.6342 5.45128 18.9937 2.33334 21.6925 0.845112C24.3913 -0.64312 27.7537 -0.129044 29.8845 2.09758C31.2442 3.51981 31.924 5.45962 31.7495 7.41948C31.3351 11.9899 30.5004 16.5125 29.256 20.9298C31.6287 24.3105 34.4128 27.3827 37.5443 30.0757C40.8589 29.5013 44.2038 29.1178 47.5624 28.9273C50.2823 28.7853 52.7933 30.3826 53.8175 32.9063C54.8417 35.43 54.154 38.3254 52.1044 40.119C50.0548 41.9126 47.0938 42.2103 44.7282 40.8605C41.75 39.1561 38.9082 37.2236 36.2284 35.0804C31.2966 36.0484 26.4469 37.3956 21.7224 39.11C19.026 43.9731 15.8982 48.5841 12.3768 52.8876C11.1279 54.4075 9.29572 55.33 7.33096 55.4281C7.20777 55.4341 7.09617 55.4341 6.98162 55.4341ZM14.4651 42.0589C11.6485 43.3335 8.76144 44.7962 5.82734 46.4644C5.21014 46.8127 4.79409 47.4324 4.7054 48.1356C4.57172 49.1494 5.12532 50.1293 6.06269 50.538C7.00007 50.9468 8.09479 50.6856 8.74674 49.8978C10.797 47.3931 12.7061 44.776 14.4652 42.0588C14.4652 42.0588 14.4651 42.0589 14.4651 42.0589ZM42.7018 34.0584C44.0646 34.9924 45.5125 35.9087 47.0603 36.7986C47.5079 37.059 48.0518 37.0938 48.5288 36.8926C49.0266 36.6896 49.3996 36.2639 49.5355 35.7437C49.6713 35.2235 49.554 34.6698 49.2191 34.2493C48.8814 33.8217 48.3562 33.586 47.8122 33.6178C46.3554 33.6883 44.6432 33.8264 42.7018 34.0584ZM27.4997 26.4221C26.6509 28.7717 25.7169 31.0362 24.736 33.1773C27.2266 32.4048 29.6114 31.7675 31.8671 31.2447C30.3149 29.7211 28.8555 28.1058 27.4968 26.4075C27.4968 26.4075 27.4997 26.4221 27.4997 26.4221ZM24.8769 4.71159C24.2399 4.73692 23.6488 5.05027 23.2704 5.56333C22.8898 6.06606 22.761 6.71562 22.9209 7.32555C23.616 10.0324 24.5935 12.6588 25.8373 15.1615C26.412 12.4691 26.8239 9.74451 27.0709 7.00256C27.1292 6.389 26.9143 5.78088 26.4835 5.3402C26.0672 4.89637 25.4756 4.65977 24.8681 4.69405C24.8681 4.69405 24.8769 4.71159 24.8769 4.71159Z" fill="url(#gradient_3)" transform="translate(15.356 32.492)" />
  </g>
</svg>