<?xml version="1.0" encoding="utf-8"?>
<svg width="85.013" height="100" viewBox="0 0 85.013 100" fill="none" xmlns="http://www.w3.org/2000/svg">
  <defs>
    <linearGradient id="gradient_1" gradientUnits="userSpaceOnUse" x1="78.432" y1="93.677" x2="-1.183" y2="14.065">
      <stop offset="0" stop-color="#FE7838" />
      <stop offset="0.54" stop-color="#FE7636" />
      <stop offset="1" stop-color="#FFAD8A" />
    </linearGradient>
    <linearGradient id="gradient_2" gradientUnits="userSpaceOnUse" x1="32.268" y1="40.696" x2="-4.186" y2="4.241">
      <stop offset="0" stop-color="#34344F" />
      <stop offset="0.26" stop-color="#3B3B57" />
      <stop offset="0.66" stop-color="#50506D" />
      <stop offset="1" stop-color="#666684" />
    </linearGradient>
  </defs>
  <g>
    <path d="M58.6272 3.62716C55.6653 1.4246 52.0987 0.184147 48.4093 0.0733541C48.4093 0.0733541 48.4093 0.0733541 48.4093 0.0733541C37.662 -0.189211 26.9091 0.253279 16.2198 1.39794C9.07983 2.22618 2.23361 9.0724 1.40537 16.2123C-0.468457 33.7317 -0.468457 66.2623 1.40537 83.7787C2.23361 90.9216 9.07983 97.7678 16.2198 98.596C33.6941 100.468 51.3183 100.468 68.7926 98.596C75.9326 97.7678 82.7788 90.9216 83.607 83.7787C84.8846 71.8485 85.2899 52.9399 84.8288 36.5806C84.8288 36.5806 84.8288 36.5131 84.8288 36.5131C84.7998 32.9837 83.6544 29.5539 81.5567 26.7152C75.099 17.9262 67.3716 10.1453 58.6273 3.62723C58.6273 3.62723 58.6272 3.62716 58.6272 3.62716Z" fill="url(#gradient_1)" />
    <path d="M0 0.383999C3.712 0.128002 6.976 3.8147e-06 9.792 0C17.728 0 21.696 2.8 21.696 8.4C21.696 10.992 21.024 13.264 19.68 15.216C18.976 16.272 17.888 17.112 16.416 17.736C14.944 18.36 13.168 18.672 11.088 18.672L3.984 18.672L3.984 33.6L0 33.6L0 0.383999ZM9.84 0.48C7.984 0.48 6.032 0.591999 3.984 0.816002L3.984 18.192L11.088 18.192C15.6 18 17.856 14.768 17.856 8.496C17.856 5.936 17.184 3.96 15.84 2.568C14.496 1.176 12.496 0.48 9.84 0.48L9.84 0.48Z" fill="#FFFFFF" transform="translate(32 41)" />
    <path d="M36.4563 36.5103C36.4563 36.5103 36.4563 36.5103 36.4563 36.5103C35.0935 36.5426 33.7337 36.5661 32.3797 36.5661C26.6285 36.5647 20.8815 36.2578 15.1629 35.6468C15.1629 35.6468 15.113 35.6468 15.113 35.6468C11.706 35.2532 8.35779 33.5615 5.68215 30.8859C3.00651 28.2103 1.31474 24.8562 0.921173 21.4404C0.91975 21.4238 0.91975 21.4071 0.921173 21.3905C0.1619 14.2871 -0.128506 7.1415 0.051815 0C0.051815 0 0.051815 0 0.051815 0C3.74228 0.110215 7.30995 1.35072 10.2727 3.55387C19.0335 10.0876 26.7723 17.8897 33.2344 26.7035C35.3174 29.5271 36.4488 32.9398 36.4651 36.4486C36.4651 36.4486 36.4563 36.5103 36.4563 36.5103Z" fill="url(#gradient_2)" transform="translate(48.355 0.073)" />
  </g>
</svg>