<?xml version="1.0" encoding="utf-8"?>
<svg width="107.5" height="100" viewBox="0 0 107.5 100" fill="none" xmlns="http://www.w3.org/2000/svg">
  <defs>
    <linearGradient id="gradient_1" gradientUnits="userSpaceOnUse" x1="9.555" y1="-3.581" x2="45.445" y2="58.581">
      <stop offset="0" stop-color="#CA4C28" />
      <stop offset="0.5" stop-color="#C5401E" />
      <stop offset="1" stop-color="#B62F14" />
    </linearGradient>
  </defs>
  <g>
    <path d="M57.5 55L50 0C50 0 49.44 0 49.44 0C22.1681 0.0796193 0.0796189 22.1681 0 49.44C0 49.44 0 50 0 50L57.5 55L57.5 55Z" fill="#ED6C47" transform="translate(7.5 0)" />
    <path d="M0.56002 0L0 0L0 50L25 60L50 50C50 50 50 49.44 50 49.44C49.9204 22.1681 27.8319 0.0796193 0.56002 0C0.56002 0 0.56002 0 0.56002 0Z" fill="#FF8F6B" transform="translate(57.5 0)" />
    <path d="M100 0C100 0 100 0.549999 100 0.549999C99.9217 27.828 77.828 49.9217 50.55 50C50.55 50 49.45 50 49.45 50C22.172 49.9217 0.0782762 27.828 0 0.549999C0 0.549999 0 0 0 0L100 0L100 0Z" fill="#D35230" transform="translate(7.5 50)" />
    <path d="M52.5 4.57503C52.5 4.57503 52.5 57.925 52.5 57.925C52.4876 59.7788 51.3642 61.4442 49.6501 62.15C49.1043 62.3809 48.5177 62.4999 47.925 62.5C47.925 62.5 11.8001 62.5 11.8001 62.5C11.1001 61.7 10.4251 60.85 9.80006 60C3.4308 51.5034 -0.00822926 41.1689 5.72205e-05 30.55C5.72205e-05 30.55 5.72205e-05 29.45 5.72205e-05 29.45C-0.0145564 19.8721 2.78466 10.5008 8.05006 2.5C8.60006 1.65 9.17503 0.799999 9.80006 0C9.80006 0 47.925 0 47.925 0C50.4438 0.0190945 52.481 2.05627 52.5 4.57503C52.5 4.57503 52.5 4.57503 52.5 4.57503Z" fill="#000000" fill-opacity="0.1" transform="translate(7.5 20)" />
    <path d="M50.0001 4.57503C50.0001 4.57503 50.0001 57.925 50.0001 57.925C50 58.5176 49.881 59.1043 49.6501 59.65C48.9443 61.3642 47.2789 62.4876 45.4251 62.5C45.4251 62.5 14.0751 62.5 14.0751 62.5C13.2841 61.697 12.5251 60.863 11.8001 60C11.1001 59.2 10.4251 58.35 9.80006 57.5C3.4308 49.0034 -0.00822926 38.6688 5.72205e-05 28.05C5.72205e-05 28.05 5.72205e-05 26.95 5.72205e-05 26.95C-0.0145564 17.3721 2.78466 8.00078 8.05006 0C8.05006 0 45.4251 0 45.4251 0C47.9439 0.0190411 49.9811 2.05622 50.0001 4.57503C50.0001 4.57503 50.0001 4.57503 50.0001 4.57503Z" fill="#000000" fill-opacity="0.2" transform="translate(7.5 22.5)" />
    <path d="M50.0001 4.57497C50.0001 4.57497 50.0001 52.925 50.0001 52.925C49.981 55.4437 47.9438 57.4809 45.4251 57.5C45.4251 57.5 9.80006 57.5 9.80006 57.5C3.4308 49.0034 -0.00822926 38.6688 5.72205e-05 28.05C5.72205e-05 28.05 5.72205e-05 26.95 5.72205e-05 26.95C-0.0145564 17.3721 2.78466 8.00078 8.05006 0C8.05006 0 45.425 0 45.425 0C47.9438 0.0189781 49.981 2.05616 50.0001 4.57497C50.0001 4.57497 50.0001 4.57497 50.0001 4.57497Z" fill="#000000" fill-opacity="0.2" transform="translate(7.5 22.5)" />
    <path d="M47.5001 4.57497C47.5001 4.57497 47.5001 52.925 47.5001 52.925C47.481 55.4437 45.4438 57.4809 42.9251 57.5C42.9251 57.5 9.80006 57.5 9.80006 57.5C3.4308 49.0034 -0.00822926 38.6688 5.72205e-05 28.05C5.72205e-05 28.05 5.72205e-05 26.95 5.72205e-05 26.95C-0.0145564 17.3721 2.78466 8.00078 8.05006 0C8.05006 0 42.925 0 42.925 0C45.4438 0.0189781 47.481 2.05616 47.5001 4.57497C47.5001 4.57497 47.5001 4.57497 47.5001 4.57497Z" fill="#000000" fill-opacity="0.2" transform="translate(7.5 22.5)" />
    <path d="M4.58247 0C4.58247 0 50.4175 0 50.4175 0C52.9483 0 54.9999 2.05168 54.9999 4.58247C54.9999 4.58247 54.9999 50.4175 54.9999 50.4175C54.9999 52.9483 52.9483 55 50.4175 55C50.4175 55 4.58247 55 4.58247 55C2.05168 55 0 52.9483 0 50.4175C0 50.4175 0 4.58247 0 4.58247C0 2.05168 2.05168 0 4.58247 0C4.58247 0 4.58247 0 4.58247 0Z" fill="url(#gradient_1)" transform="translate(0 22.5)" />
    <path d="M12.1025 0.0285988C15.0862 -0.172745 18.0442 0.693943 20.4475 2.47362C22.452 4.26315 23.5231 6.87446 23.3525 9.55609C23.3853 11.4203 22.8885 13.2555 21.92 14.8486C20.9395 16.4143 19.5269 17.6629 17.8525 18.4436C15.9384 19.3339 13.8456 19.7734 11.735 19.7286C11.735 19.7286 5.93751 19.7286 5.93751 19.7286L5.93751 30.5036L0 30.5036L0 0.0285988L12.1025 0.0285988C12.1025 0.0285988 12.1025 0.0285988 12.1025 0.0285988ZM5.93253 15.0736C5.93253 15.0736 11.0426 15.0736 11.0426 15.0736C12.6625 15.1926 14.2699 14.7132 15.5601 13.7261C16.6272 12.7025 17.1864 11.259 17.0876 9.78364C17.0876 6.4253 15.1359 4.74613 11.2326 4.74613C11.2326 4.74613 5.93259 4.74613 5.93259 4.74613L5.93259 15.0736L5.93253 15.0736Z" fill="#FFFFFF" transform="translate(15.897 34.694)" />
  </g>
</svg>