<?xml version="1.0" encoding="utf-8"?>
<svg width="85.013" height="100" viewBox="0 0 85.013 100" fill="none" xmlns="http://www.w3.org/2000/svg">
  <defs>
    <linearGradient id="gradient_1" gradientUnits="userSpaceOnUse" x1="78.432" y1="93.677" x2="-1.183" y2="14.065">
      <stop offset="0" stop-color="#1EB4EB" />
      <stop offset="0.54" stop-color="#1EB4EB" />
      <stop offset="1" stop-color="#92F4FE" />
    </linearGradient>
    <linearGradient id="gradient_2" gradientUnits="userSpaceOnUse" x1="32.268" y1="40.696" x2="-4.186" y2="4.241">
      <stop offset="0" stop-color="#34344F" />
      <stop offset="0.26" stop-color="#3B3B57" />
      <stop offset="0.66" stop-color="#50506D" />
      <stop offset="1" stop-color="#666684" />
    </linearGradient>
    <linearGradient id="gradient_3" gradientUnits="userSpaceOnUse" x1="50.347" y1="62.156" x2="-5.099" y2="6.711">
      <stop offset="0" stop-color="#BCE4ED" />
      <stop offset="0.57" stop-color="#FFFFFF" />
      <stop offset="1" stop-color="#FFFFFF" />
    </linearGradient>
  </defs>
  <g>
    <path d="M58.627 3.62451C55.6652 1.42969 52.0987 0.180936 48.4092 0.0703581C48.4092 0.0703581 48.4092 0.0703581 48.4092 0.0703581C37.6618 -0.183993 26.909 0.250007 16.2196 1.39654C9.07947 2.23189 2.23314 9.07416 1.40526 16.2108C-0.468431 33.7318 -0.468431 66.2654 1.40526 83.7806C2.23314 90.923 9.07947 97.7663 16.2196 98.5983C33.6939 100.467 51.3182 100.467 68.7925 98.5983C75.9325 97.7663 82.7787 90.923 83.607 83.7806C84.8846 71.8503 85.29 52.942 84.8288 36.5823C84.8288 36.5823 84.8288 36.5152 84.8288 36.5152C84.7997 32.9842 83.6543 29.5583 81.5566 26.7141C75.0989 17.9256 67.3715 10.1509 58.6271 3.62457C58.6271 3.62457 58.627 3.62451 58.627 3.62451Z" fill="url(#gradient_1)" fill-rule="evenodd" />
    <path d="M36.4567 36.5079C36.4567 36.5079 36.4567 36.5079 36.4567 36.5079C35.0938 36.543 33.7337 36.5661 32.3801 36.5661C26.6287 36.5652 20.8818 36.2617 15.1632 35.6469C15.1632 35.6469 15.1133 35.6469 15.1133 35.6469C11.7061 35.2497 8.35809 33.5639 5.68238 30.8833C3.00658 28.2086 1.31525 24.8545 0.921497 21.4365C0.920147 21.4237 0.920147 21.406 0.921497 21.3928C0.1623 14.2856 -0.128231 7.13909 0.0515556 0C0.0515556 0 0.0515556 0 0.0515556 0C3.74233 0.110953 7.3102 1.35552 10.2729 3.55566C19.0337 10.0872 26.7726 17.8911 33.2346 26.7012C35.3177 29.5228 36.449 32.9415 36.4651 36.4488C36.4651 36.4488 36.4567 36.5079 36.4567 36.5079Z" fill="url(#gradient_2)" fill-rule="evenodd" transform="translate(48.461 0)" />
    <path d="M0 5.0605C0 5.0605 0 2.73438 0 2.73438C0 1.22422 1.22422 0 2.73438 0C2.73438 0 23.9955 0 23.9955 0C25.5057 -3.8147e-06 26.7299 1.22422 26.7299 2.73438C26.7299 2.73438 26.7299 5.05169 26.7299 5.05169C26.7288 6.48001 25.6287 7.66681 24.2046 7.77602C22.7806 7.88523 21.5123 6.88005 21.2935 5.46868C21.2935 5.46868 16.1008 5.46868 16.1008 5.46868L16.1008 23.9485C16.1008 23.9485 16.5149 23.9485 16.5149 23.9485C18.0251 23.9485 19.2493 25.1727 19.2493 26.6829C19.2493 28.193 18.0251 29.4172 16.5149 29.4172C16.5149 29.4172 10.215 29.4172 10.215 29.4172C8.70568 29.416 7.4828 28.1921 7.48282 26.6828C7.48285 25.1735 8.70577 23.9496 10.2151 23.9485C10.2151 23.9485 10.6321 23.9485 10.6321 23.9485L10.6321 5.47756C10.6321 5.47756 5.43645 5.47756 5.43645 5.47756C5.21754 6.88893 3.94928 7.89408 2.52522 7.78483C1.10117 7.67558 0.00107098 6.48875 4.76837e-06 5.0605C4.76837e-06 5.0605 0 5.0605 0 5.0605ZM54.4878 51.4157C54.4878 51.4157 2.73438 51.4157 2.73438 51.4157C1.22508 51.4169 0.00219059 52.6408 0.00221252 54.1501C0.00223446 55.6594 1.22516 56.8832 2.73446 56.8844C2.73446 56.8844 54.4878 56.8844 54.4878 56.8844C55.9971 56.8832 57.22 55.6593 57.22 54.15C57.22 52.6407 55.997 51.4168 54.4877 51.4157C54.4877 51.4157 54.4878 51.4157 54.4878 51.4157ZM54.4878 37.688C54.4878 37.688 2.73438 37.688 2.73438 37.688C1.22508 37.6892 0.00219059 38.9131 0.00221252 40.4224C0.00223446 41.9317 1.22516 43.1555 2.73446 43.1567C2.73446 43.1567 54.4878 43.1567 54.4878 43.1567C55.9971 43.1555 57.22 41.9316 57.22 40.4223C57.22 38.913 55.997 37.6891 54.4877 37.688C54.4877 37.688 54.4878 37.688 54.4878 37.688ZM33.0152 29.429C33.0152 29.429 54.4761 29.429 54.4761 29.429C55.4535 29.4298 56.357 28.9088 56.8459 28.0625C57.3349 27.2162 57.3349 26.1732 56.846 25.3269C56.357 24.4806 55.4536 23.9595 54.4761 23.9603C54.4761 23.9603 33.0152 23.9603 33.0152 23.9603C32.0378 23.9595 31.1343 24.4805 30.6453 25.3268C30.1564 26.1732 30.1564 27.2161 30.6453 28.0625C31.1342 28.9088 32.0377 29.4298 33.0151 29.429C33.0151 29.429 33.0152 29.429 33.0152 29.429Z" fill="url(#gradient_3)" transform="translate(13.804 24.965)" />
  </g>
</svg>