<?xml version="1.0" encoding="utf-8"?>
<svg width="85.013" height="100" viewBox="0 0 85.013 100" fill="none" xmlns="http://www.w3.org/2000/svg">
  <defs>
    <linearGradient id="gradient_1" gradientUnits="userSpaceOnUse" x1="78.432" y1="93.677" x2="-1.183" y2="14.065">
      <stop offset="0" stop-color="#FE7838" />
      <stop offset="0.54" stop-color="#FE7636" />
      <stop offset="1" stop-color="#FFAD8A" />
    </linearGradient>
    <linearGradient id="gradient_2" gradientUnits="userSpaceOnUse" x1="32.268" y1="40.696" x2="-4.186" y2="4.241">
      <stop offset="0" stop-color="#34344F" />
      <stop offset="0.26" stop-color="#3B3B57" />
      <stop offset="0.66" stop-color="#50506D" />
      <stop offset="1" stop-color="#666684" />
    </linearGradient>
    <linearGradient id="gradient_3" gradientUnits="userSpaceOnUse" x1="37.377" y1="33.456" x2="2.752" y2="-1.166">
      <stop offset="0" stop-color="#FFDDCE" />
      <stop offset="0.57" stop-color="#FFFFFF" />
      <stop offset="1" stop-color="#FFFFFF" />
    </linearGradient>
  </defs>
  <g>
    <path d="M58.6272 3.62716C55.6653 1.4246 52.0987 0.184147 48.4093 0.0733541C48.4093 0.0733541 48.4093 0.0733541 48.4093 0.0733541C37.662 -0.189211 26.9091 0.253279 16.2198 1.39794C9.07983 2.22618 2.23361 9.0724 1.40537 16.2123C-0.468457 33.7317 -0.468457 66.2623 1.40537 83.7787C2.23361 90.9216 9.07983 97.7678 16.2198 98.596C33.6941 100.468 51.3183 100.468 68.7926 98.596C75.9326 97.7678 82.7788 90.9216 83.607 83.7787C84.8846 71.8485 85.2899 52.9399 84.8288 36.5806C84.8288 36.5806 84.8288 36.5131 84.8288 36.5131C84.7998 32.9837 83.6544 29.5539 81.5567 26.7152C75.099 17.9262 67.3716 10.1453 58.6273 3.62723C58.6273 3.62723 58.6272 3.62716 58.6272 3.62716Z" fill="url(#gradient_1)" />
    <path d="M36.4563 36.5103C36.4563 36.5103 36.4563 36.5103 36.4563 36.5103C35.0935 36.5426 33.7337 36.5661 32.3797 36.5661C26.6285 36.5647 20.8815 36.2578 15.1629 35.6468C15.1629 35.6468 15.113 35.6468 15.113 35.6468C11.706 35.2532 8.35779 33.5615 5.68215 30.8859C3.00651 28.2103 1.31474 24.8562 0.921173 21.4404C0.91975 21.4238 0.91975 21.4071 0.921173 21.3905C0.1619 14.2871 -0.128506 7.1415 0.051815 0C0.051815 0 0.051815 0 0.051815 0C3.74228 0.110215 7.30995 1.35072 10.2727 3.55387C19.0335 10.0876 26.7723 17.8897 33.2344 26.7035C35.3174 29.5271 36.4488 32.9398 36.4651 36.4486C36.4651 36.4486 36.4563 36.5103 36.4563 36.5103Z" fill="url(#gradient_2)" transform="translate(48.354 0.073)" />
    <path d="M37.3913 5.72205e-05C37.3913 5.72205e-05 2.73438 5.72205e-05 2.73438 5.72205e-05C1.22422 5.72205e-05 0 1.22428 0 2.73443C0 2.73443 0 6.51439 0 6.51439C0.00116539 8.02361 1.22501 9.24653 2.73432 9.24656C4.24363 9.24659 5.46753 8.0237 5.46875 6.5144C5.46875 6.5144 5.46875 5.46882 5.46875 5.46882L17.3344 5.46882L17.3344 39.0332C17.3344 39.0332 14.9319 39.0332 14.9319 39.0332C13.4226 39.0344 12.1997 40.2583 12.1997 41.7676C12.1997 43.2769 13.4226 44.5008 14.9319 44.5019C14.9319 44.5019 25.2115 44.5019 25.2115 44.5019C26.7209 44.5007 27.9437 43.2768 27.9437 41.7675C27.9437 40.2582 26.7208 39.0344 25.2115 39.0332C25.2115 39.0332 22.8119 39.0332 22.8119 39.0332L22.8119 5.45706L34.6746 5.45706C34.6746 5.45706 34.6746 6.50264 34.6746 6.50264C34.6757 8.01186 35.8996 9.23478 37.4089 9.23482C38.9182 9.23485 40.1421 8.01196 40.1433 6.50266C40.1433 6.50266 40.1433 2.72269 40.1433 2.72269C40.1402 1.99648 39.8484 1.30131 39.3321 0.79055C38.8158 0.279785 38.1176 -0.0046196 37.3914 5.72205e-05C37.3914 5.72205e-05 37.3913 5.72205e-05 37.3913 5.72205e-05Z" fill="url(#gradient_3)" transform="translate(22.431 42.073)" />
  </g>
</svg>