<?xml version="1.0" encoding="utf-8"?>
<svg width="106.044" height="100" viewBox="0 0 106.044 100" fill="none" xmlns="http://www.w3.org/2000/svg">
  <defs>
    <linearGradient id="gradient_1" gradientUnits="userSpaceOnUse" x1="92.348" y1="90.889" x2="6.666" y2="5.208">
      <stop offset="0" stop-color="#0E95E0" />
      <stop offset="1" stop-color="#2FBDEE" />
    </linearGradient>
    <linearGradient id="gradient_2" gradientUnits="userSpaceOnUse" x1="91.322" y1="71.553" x2="14.718" y2="-5.051">
      <stop offset="0" stop-color="#1EB4EB" />
      <stop offset="0.54" stop-color="#1EB4EB" />
      <stop offset="1" stop-color="#92F4FE" />
    </linearGradient>
    <linearGradient id="gradient_3" gradientUnits="userSpaceOnUse" x1="27.697" y1="31.864" x2="5.653" y2="9.82">
      <stop offset="0" stop-color="#BCE4ED" />
      <stop offset="0.57" stop-color="#FFFFFF" />
      <stop offset="1" stop-color="#FFFFFF" />
    </linearGradient>
  </defs>
  <g>
    <path d="M90.8591 87.9022C65.6781 90.2128 40.3384 90.2128 15.1574 87.9022C8.7675 87.2794 2.6298 81.394 1.81704 74.9886C-0.605659 54.7683 -0.605697 34.331 1.81703 14.1105C2.62978 7.70823 8.76437 1.82907 15.1574 1.20316C20.7066 0.692472 26.2599 0.294923 31.8173 0.0105128C33.902 -0.108306 35.916 0.78564 37.2264 2.41138C40.4929 6.40037 43.9121 10.4641 47.4278 14.5558C48.3339 15.6125 49.6575 16.2191 51.0494 16.2156C64.8673 16.1782 78.6789 16.5353 92.4843 17.2868C99.1763 17.6885 105.214 23.331 105.607 29.7426C106.478 44.8311 106.01 59.9672 104.209 74.973C103.387 81.3909 97.249 87.2701 90.8591 87.9022Z" fill="url(#gradient_1)" transform="translate(0.012 0)" />
    <path d="M53.0139 8.01086e-05C39.852 8.01086e-05 26.6964 0.356108 13.547 1.06817C6.85503 1.46987 0.816972 7.11238 0.424609 13.524C-0.441083 28.5987 0.013561 39.5599 1.81968 54.6128C2.64178 61.0213 8.79505 66.9099 15.1694 67.5326C27.7645 68.6869 40.3814 69.265 53.0201 69.2671C65.6588 69.2692 78.2747 68.6911 90.8677 67.5326C97.2608 66.9099 103.395 61.0245 104.211 54.6221C106.017 39.5692 106.472 28.6081 105.606 13.5334C105.214 7.1155 99.179 1.47299 92.4839 1.07751C79.3407 0.352997 66.1841 -0.00614929 53.0139 8.01086e-05Z" fill="url(#gradient_2)" transform="translate(0 30.733)" />
    <path d="M32.5024 14.6246C32.5024 14.6246 18.726 0.848412 18.726 0.848412C17.593 -0.282803 15.7579 -0.282803 14.6249 0.848415C14.6249 0.848415 0.848549 14.6246 0.848549 14.6246C-0.283154 15.7572 -0.282806 17.5926 0.849335 18.7248C1.98147 19.857 3.81695 19.8574 4.94961 18.7258C4.94961 18.7258 13.7778 9.89768 13.7778 9.89768C13.7778 9.89768 13.7778 38.7828 13.7778 38.7828C13.7778 40.3839 15.0758 41.6819 16.677 41.6819C18.2781 41.6819 19.5761 40.3839 19.5761 38.7828C19.5761 38.7828 19.5761 9.89759 19.5761 9.89759C19.5761 9.89759 28.4012 18.7257 28.4012 18.7257C29.5337 19.8582 31.3698 19.8582 32.5023 18.7257C33.6348 17.5932 33.6348 15.7571 32.5023 14.6246C32.5023 14.6246 32.5024 14.6246 32.5024 14.6246Z" fill="url(#gradient_3)" transform="translate(36.343 43.997)" />
  </g>
</svg>