<?xml version="1.0" encoding="utf-8"?>
<svg width="106.04" height="100" viewBox="0 0 106.04 100" fill="none" xmlns="http://www.w3.org/2000/svg">
  <defs>
    <linearGradient id="gradient_1" gradientUnits="userSpaceOnUse" x1="92.346" y1="90.889" x2="6.666" y2="5.208">
      <stop offset="0" stop-color="#FF6224" />
      <stop offset="0.54" stop-color="#FF6224" />
      <stop offset="1" stop-color="#FFAD8A" />
    </linearGradient>
    <linearGradient id="gradient_2" gradientUnits="userSpaceOnUse" x1="91.318" y1="71.553" x2="14.715" y2="-5.051">
      <stop offset="0" stop-color="#FE7838" />
      <stop offset="0.54" stop-color="#FE7636" />
      <stop offset="1" stop-color="#FFAD8A" />
    </linearGradient>
  </defs>
  <g>
    <g>
      <path d="M90.8579 87.9022C65.6773 90.2128 40.3379 90.2128 15.1572 87.9022C8.76739 87.2794 2.62977 81.394 1.81702 74.9886C-0.605652 54.7684 -0.60569 34.331 1.817 14.1105C2.62975 7.70824 8.76426 1.82907 15.1572 1.20316C20.7063 0.692472 26.2596 0.294923 31.8169 0.0105128C33.9016 -0.108306 35.9156 0.78564 37.2259 2.41138C40.4924 6.40037 43.9116 10.4641 47.4272 14.5558C48.3333 15.6125 49.6569 16.2191 51.0488 16.2156C64.8665 16.1782 78.678 16.5353 92.4832 17.2868C99.1751 17.6885 105.213 23.331 105.605 29.7427C106.477 44.8311 106.009 59.9672 104.207 74.973C103.385 81.3909 97.2478 87.2701 90.8579 87.9022Z" fill="url(#gradient_1)" transform="translate(0.009 0)" />
      <path d="M53.0132 8.01086e-05C39.8536 8.01086e-05 26.6982 0.356108 13.5469 1.06817C6.85494 1.46987 0.816962 7.11238 0.424604 13.524C-0.441078 28.5987 0.0135609 39.5599 1.81966 54.6128C2.63863 61.0213 8.77626 66.9099 15.1661 67.5326C27.7611 68.6869 40.3778 69.265 53.0164 69.2671C65.6549 69.2692 78.2706 68.6911 90.8635 67.5326C97.2564 66.9099 103.391 61.0245 104.207 54.6222C106.013 39.5692 106.468 28.6081 105.602 13.5334C105.21 7.11549 99.1747 1.47299 92.4827 1.07751C79.3356 0.352997 66.1791 -0.00614929 53.0132 8.01086e-05Z" fill="url(#gradient_2)" transform="translate(0 30.733)" />
    </g>
    <g transform="translate(32 50)">
      <g>
        <path d="M1.90343 13.1994C1.90343 13.1994 12.399 7.86604 12.399 7.86604C13.3596 7.37791 13.3596 5.96774 12.399 5.4796C12.399 5.4796 1.90343 0.146271 1.90343 0.146271C1.03177 -0.305707 0 0.34514 0 1.33949C0 1.33949 0 12.0062 0 12.0062C-9.53674e-07 13.0005 1.03177 13.6333 1.90343 13.1994C1.90343 13.1994 1.90343 13.1994 1.90343 13.1994L1.90343 13.1994Z" fill="#FFFFFF" transform="translate(14.427 9.327)" />
        <path d="M38.0508 0C38.0508 0 3.93139 0 3.93139 0C1.77891 0 0 1.80791 0 4.01356C0 4.01356 0 27.9684 0 27.9684C0 30.1921 1.74333 32 3.93139 32C3.93139 32 38.0686 32 38.0686 32C40.2211 32 42 30.1921 42 27.9684C42 27.9684 42 4.01356 42 4.01356C41.9822 1.80791 40.2389 0 38.0508 0C38.0508 0 38.0508 0 38.0508 0L38.0508 0ZM7.88055 27.9864C7.88055 28.7277 7.3113 29.3243 6.56416 29.3243C6.56416 29.3243 3.94917 29.3243 3.94917 29.3243C3.21981 29.3243 2.63278 28.7458 2.63278 27.9864C2.63278 27.9864 2.63278 25.3469 2.63278 25.3469C2.63278 24.6056 3.20203 24.009 3.94917 24.009C3.94917 24.009 6.54637 24.009 6.54637 24.009C7.27572 24.009 7.86276 24.5876 7.86276 25.3469C7.86276 25.3469 7.88055 27.9864 7.88055 27.9864L7.88055 27.9864C7.88055 27.9864 7.88055 27.9864 7.88055 27.9864ZM7.88055 17.3198C7.88055 18.061 7.3113 18.6576 6.56416 18.6576C6.56416 18.6576 3.94917 18.6576 3.94917 18.6576C3.21981 18.6576 2.63278 18.0791 2.63278 17.3198C2.63278 17.3198 2.63278 14.6802 2.63278 14.6802C2.63278 13.939 3.20203 13.3424 3.94917 13.3424C3.94917 13.3424 6.54637 13.3424 6.54637 13.3424C7.27572 13.3424 7.86276 13.9209 7.86276 14.6802C7.86276 14.6802 7.88055 17.3198 7.88055 17.3198L7.88055 17.3198C7.88055 17.3198 7.88055 17.3198 7.88055 17.3198ZM7.88055 6.65311C7.88055 7.39435 7.3113 7.99096 6.56416 7.99096C6.56416 7.99096 3.94917 7.99096 3.94917 7.99096C3.21981 7.99096 2.63278 7.41243 2.63278 6.65311C2.63278 6.65311 2.63278 4.01356 2.63278 4.01356C2.63278 3.27232 3.20203 2.67571 3.94917 2.67571C3.94917 2.67571 6.54637 2.67571 6.54637 2.67571C7.27572 2.67571 7.86276 3.25424 7.86276 4.01356C7.86276 4.01356 7.88055 6.65311 7.88055 6.65311L7.88055 6.65311C7.88055 6.65311 7.88055 6.65311 7.88055 6.65311ZM31.4867 29.3424L10.4956 29.3424L10.4956 2.67571L31.4867 2.67571L31.4867 29.3424L31.4867 29.3424L31.4867 29.3424ZM39.3494 27.9864C39.3494 28.7277 38.7802 29.3243 38.033 29.3243C38.033 29.3243 35.4358 29.3243 35.4358 29.3243C34.7065 29.3243 34.1194 28.7458 34.1194 27.9864C34.1194 27.9864 34.1194 25.3469 34.1194 25.3469C34.1194 24.6056 34.6887 24.009 35.4358 24.009C35.4358 24.009 38.033 24.009 38.033 24.009C38.7624 24.009 39.3494 24.5876 39.3494 25.3469C39.3494 25.3469 39.3494 27.9864 39.3494 27.9864L39.3494 27.9864C39.3494 27.9864 39.3494 27.9864 39.3494 27.9864ZM39.3494 17.3198C39.3494 18.061 38.7802 18.6576 38.033 18.6576C38.033 18.6576 35.4358 18.6576 35.4358 18.6576C34.7065 18.6576 34.1194 18.0791 34.1194 17.3198C34.1194 17.3198 34.1194 14.6802 34.1194 14.6802C34.1194 13.939 34.6887 13.3424 35.4358 13.3424C35.4358 13.3424 38.033 13.3424 38.033 13.3424C38.7624 13.3424 39.3494 13.9209 39.3494 14.6802C39.3494 14.6802 39.3494 17.3198 39.3494 17.3198L39.3494 17.3198C39.3494 17.3198 39.3494 17.3198 39.3494 17.3198ZM39.3494 6.65311C39.3494 7.39435 38.7802 7.99096 38.033 7.99096C38.033 7.99096 35.4358 7.99096 35.4358 7.99096C34.7065 7.99096 34.1194 7.41243 34.1194 6.65311C34.1194 6.65311 34.1194 4.01356 34.1194 4.01356C34.1194 3.27232 34.6887 2.67571 35.4358 2.67571C35.4358 2.67571 38.033 2.67571 38.033 2.67571C38.7624 2.67571 39.3494 3.25424 39.3494 4.01356C39.3494 4.01356 39.3494 6.65311 39.3494 6.65311L39.3494 6.65311C39.3494 6.65311 39.3494 6.65311 39.3494 6.65311Z" fill="#FFFFFF" />
      </g>
    </g>
  </g>
</svg>