<?xml version="1.0" encoding="utf-8"?>
<svg width="106.043" height="100" viewBox="0 0 106.043 100" fill="none" xmlns="http://www.w3.org/2000/svg">
  <defs>
    <linearGradient id="gradient_1" gradientUnits="userSpaceOnUse" x1="92.346" y1="90.889" x2="6.666" y2="5.208">
      <stop offset="0" stop-color="#150EE0" />
      <stop offset="1" stop-color="#D82FEE" />
    </linearGradient>
    <linearGradient id="gradient_2" gradientUnits="userSpaceOnUse" x1="55.257" y1="57.655" x2="13.776" y2="16.174">
      <stop offset="0" stop-color="#BCE4ED" />
      <stop offset="0.57" stop-color="#FFFFFF" />
      <stop offset="1" stop-color="#FFFFFF" />
    </linearGradient>
  </defs>
  <g>
    <path d="M90.858 87.9022C65.6773 90.2128 40.3379 90.2128 15.1572 87.9022C8.76739 87.2794 2.62977 81.394 1.81702 74.9886C-0.605652 54.7684 -0.60569 34.331 1.817 14.1105C2.62975 7.70824 8.76426 1.82907 15.1572 1.20316C20.7063 0.692472 26.2596 0.294923 31.8169 0.0105128C33.9016 -0.108306 35.9156 0.78564 37.2259 2.41138C40.4924 6.40037 43.9116 10.4641 47.4272 14.5558C48.3333 15.6125 49.6569 16.2191 51.0488 16.2156C64.8665 16.1782 78.678 16.5353 92.4832 17.2868C99.1751 17.6885 105.213 23.331 105.605 29.7427C106.477 44.8311 106.009 59.9672 104.207 74.973C103.385 81.3909 97.2478 87.2701 90.858 87.9022Z" fill="url(#gradient_1)" transform="translate(0.012 0)" />
    <path d="M53.0132 8.01086e-05C39.8516 8.01086e-05 26.6961 0.356108 13.5469 1.06817C6.85494 1.46987 0.816962 7.11238 0.424604 13.524C-0.441078 28.5987 0.0135609 39.5599 1.81966 54.6128C2.64174 61.0213 8.79494 66.9099 15.1692 67.5326C27.7642 68.6869 40.3809 69.265 53.0195 69.2671C65.658 69.2692 78.2737 68.6911 90.8666 67.5326C97.2596 66.9099 103.394 61.0245 104.21 54.6222C106.016 39.5692 106.471 28.6081 105.605 13.5334C105.213 7.11549 99.1778 1.47299 92.4828 1.07751C79.3398 0.352997 66.1832 -0.00614929 53.0132 8.01086e-05Z" fill="url(#gradient_1)" transform="translate(0 30.733)" />
    <path d="M68.7875 35.9574C68.7875 35.9574 68.7875 35.9387 68.7875 35.9293C68.3205 33.5571 66.4667 31.7021 64.0948 31.2335C64.0948 31.2335 64.0636 31.2335 64.0636 31.2335C63.3049 31.1104 62.5397 31.0325 61.7718 30.9999C60.9933 27.0078 57.4402 23.4859 53.4139 22.7759C51.4645 22.4645 41.2102 22.1905 36.3898 22.122C36.3898 22.122 36.3898 16.601 36.3898 16.601C36.9036 16.5574 37.3988 16.4982 37.8845 16.4172C37.8845 16.4172 37.9126 16.4172 37.9126 16.4172C40.2831 15.9491 42.1371 14.0975 42.6084 11.7276C42.6084 11.7276 42.6084 11.7089 42.6084 11.6996C42.9572 9.47526 42.9572 7.21017 42.6084 4.98586C42.6084 4.98586 42.6084 4.96407 42.6084 4.95472C42.1402 2.58202 40.2853 0.727104 37.9126 0.258862C37.9126 0.258862 37.8845 0.258862 37.8845 0.258862C36.7737 0.0797615 35.6498 -0.00668716 34.5246 0.000404358C33.4015 -0.0051384 32.2798 0.0813026 31.1708 0.258862C31.1708 0.258862 31.1397 0.258862 31.1397 0.258862C28.767 0.727104 26.9121 2.58202 26.4438 4.95472C26.4438 4.95472 26.4438 4.97652 26.4438 4.98586C26.0951 7.21018 26.0951 9.47526 26.4438 11.6996C26.4438 11.6996 26.4438 11.7276 26.4438 11.7276C26.9117 14.1011 28.7665 15.9571 31.1397 16.4266C31.1397 16.4266 31.1677 16.4266 31.1677 16.4266C31.6535 16.5075 32.1486 16.5667 32.6624 16.6103C32.6624 16.6103 32.6624 22.1251 32.6624 22.1251C27.8451 22.1936 17.5846 22.4552 15.6197 22.7822C11.6183 23.489 8.07145 26.9985 7.28362 31.003C6.51467 31.0356 5.74833 31.1136 4.98858 31.2366C4.98858 31.2366 4.95744 31.2366 4.95744 31.2366C2.58443 31.7032 0.728281 33.5569 0.258478 35.9293C0.258478 35.9293 0.258478 35.9574 0.258478 35.9574C-0.0861588 38.183 -0.0861588 40.4485 0.258478 42.6742C0.258478 42.6742 0.258478 42.6929 0.258478 42.7022C0.726723 45.0749 2.58165 46.9298 4.95434 47.3981C4.95434 47.3981 4.98237 47.3981 4.98237 47.3981C7.20773 47.7468 9.47383 47.7468 11.6992 47.3981C11.6992 47.3981 11.7272 47.3981 11.7272 47.3981C14.1007 46.9302 15.9567 45.0754 16.4262 42.7022C16.4262 42.7022 16.4262 42.6836 16.4262 42.6742C16.775 40.4499 16.775 38.1848 16.4262 35.9605C16.4262 35.9605 16.4262 35.9387 16.4262 35.9294C15.9567 33.5562 14.1007 31.7014 11.7272 31.2335C11.7272 31.2335 11.6992 31.2335 11.6992 31.2335C11.4937 31.1993 11.2881 31.1712 11.0764 31.1463C11.7802 28.8887 13.9724 26.8553 16.2425 26.4536C17.7372 26.2045 27.4527 25.9148 32.6562 25.8463C32.6562 25.8463 32.6562 31.0342 32.6562 31.0342C32.1455 31.0778 31.6473 31.1369 31.1646 31.2179C31.1646 31.2179 31.1334 31.2179 31.1334 31.2179C28.7608 31.6861 26.9058 33.5411 26.4376 35.9138C26.4376 35.9138 26.4376 35.9324 26.4376 35.9418C26.0889 38.1671 26.0889 40.4333 26.4376 42.6586C26.4376 42.6586 26.4376 42.6866 26.4376 42.6866C26.905 45.0597 28.7603 46.915 31.1334 47.3825C31.1334 47.3825 31.1615 47.3825 31.1615 47.3825C33.3868 47.7312 35.6529 47.7312 37.8783 47.3825C37.8783 47.3825 37.9063 47.3825 37.9063 47.3825C40.2774 46.9195 42.1344 45.0711 42.6084 42.7022C42.6084 42.7022 42.6084 42.6835 42.6084 42.6742C42.9572 40.4488 42.9572 38.1827 42.6084 35.9574C42.6084 35.9574 42.6084 35.9387 42.6084 35.9293C42.141 33.5562 40.2857 31.7009 37.9126 31.2335C37.9126 31.2335 37.8845 31.2335 37.8845 31.2335C37.3988 31.1525 36.9036 31.0933 36.3898 31.0498C36.3898 31.0498 36.3898 25.8401 36.3898 25.8401C41.6026 25.9086 51.3089 26.1982 52.7849 26.4442C55.0767 26.849 57.2752 28.8887 57.9727 31.1401C57.7641 31.165 57.5555 31.193 57.3499 31.2272C57.3499 31.2272 57.3219 31.2272 57.3219 31.2272C54.9488 31.6947 53.0935 33.55 52.6261 35.9231C52.6261 35.9231 52.6261 35.9418 52.6261 35.9542C52.2773 38.1786 52.2773 40.4436 52.6261 42.6679C52.6261 42.6679 52.6261 42.6866 52.6261 42.696C53.0935 45.0691 54.9488 46.9244 57.3219 47.3918C57.3219 47.3918 57.3499 47.3918 57.3499 47.3918C59.5753 47.7406 61.8414 47.7406 64.0668 47.3918C64.0668 47.3918 64.0948 47.3918 64.0948 47.3918C66.4679 46.9244 68.3232 45.0691 68.7906 42.696C68.7906 42.696 68.7906 42.6773 68.7906 42.668C69.1352 40.4423 69.1352 38.1768 68.7906 35.9511C68.7906 35.9511 68.7875 35.9574 68.7875 35.9574ZM10.7183 41.6217C10.6989 41.6457 10.677 41.6676 10.6529 41.687C9.11547 41.9113 7.55364 41.9113 6.01621 41.687C5.9931 41.6676 5.97221 41.6457 5.95393 41.6217C5.72971 40.0842 5.72971 38.5224 5.95393 36.985C5.97221 36.9609 5.9931 36.939 6.01621 36.9196C7.55364 36.6953 9.11547 36.6953 10.6529 36.9196C10.677 36.939 10.6989 36.9609 10.7183 36.985C10.9425 38.5224 10.9425 40.0842 10.7183 41.6217C10.7183 41.6217 10.7183 41.6217 10.7183 41.6217ZM32.133 10.6346C31.9088 9.09716 31.9088 7.53533 32.133 5.9979C32.1524 5.97478 32.1744 5.9539 32.1984 5.93562C33.7358 5.7114 35.2977 5.7114 36.8351 5.93562C36.8591 5.9539 36.8811 5.97478 36.9005 5.9979C37.1247 7.53533 37.1247 9.09716 36.9005 10.6346C36.8811 10.6587 36.8592 10.6806 36.8351 10.7C35.2977 10.9242 33.7358 10.9242 32.1984 10.7C32.1749 10.6845 32.153 10.6668 32.133 10.6471C32.133 10.6471 32.133 10.6346 32.133 10.6346ZM36.9005 36.985C37.1247 38.5224 37.1247 40.0842 36.9005 41.6217C36.9005 41.6217 36.8351 41.6871 36.8351 41.6871C35.2977 41.9113 33.7358 41.9113 32.1984 41.6871C32.1984 41.6871 32.133 41.6217 32.133 41.6217C31.9088 40.0842 31.9088 38.5224 32.133 36.985C32.1532 36.9616 32.1751 36.9398 32.1984 36.9196C33.7358 36.6954 35.2977 36.6954 36.8351 36.9196C36.8351 36.9196 36.9005 36.985 36.9005 36.985ZM63.0827 41.6217C63.0827 41.6217 63.0174 41.687 63.0174 41.687C61.4799 41.9113 59.9181 41.9113 58.3807 41.6871C58.3807 41.6871 58.3153 41.6217 58.3153 41.6217C58.091 40.0842 58.091 38.5224 58.3152 36.985C58.3152 36.985 58.3806 36.9196 58.3806 36.9196C59.9181 36.6954 61.4799 36.6954 63.0173 36.9196C63.0173 36.9196 63.0827 36.985 63.0827 36.985C63.3028 38.5227 63.3028 40.0839 63.0827 41.6217C63.0827 41.6217 63.0827 41.6217 63.0827 41.6217Z" fill="url(#gradient_2)" transform="translate(18.501 40.451)" />
  </g>
</svg>