<?xml version="1.0" encoding="utf-8"?>
<svg width="107.5" height="100" viewBox="0 0 107.5 100" fill="none" xmlns="http://www.w3.org/2000/svg">
  <defs>
    <linearGradient id="gradient_1" gradientUnits="userSpaceOnUse" x1="9.555" y1="-3.581" x2="45.445" y2="58.581">
      <stop offset="0" stop-color="#18884F" />
      <stop offset="0.5" stop-color="#117E43" />
      <stop offset="1" stop-color="#0B6631" />
    </linearGradient>
  </defs>
  <g>
    <path d="M42.5 7.5L0 0C0 0 0 55.4175 0 55.4175C0 57.9484 2.05164 60 4.58249 60C4.58249 60 4.58249 60 4.58249 60C4.58249 60 77.9175 60 77.9175 60C80.4484 60 82.5 57.9484 82.5 55.4175C82.5 55.4175 82.5 55.4175 82.5 55.4175L82.5 35L42.5 7.5L42.5 7.5Z" fill="#185C37" transform="translate(25 40)" />
    <path d="M42.5 0C42.5 0 4.58249 0 4.58249 0C2.05164 0 0 2.05164 0 4.58249C0 4.58249 0 4.58249 0 4.58249C0 4.58249 0 25 0 25L42.5 50L65 57.5L82.5 50L82.5 25L42.5 0L42.5 0Z" fill="#21A366" transform="translate(25 0)" />
    <path d="M0 0L42.5 0L42.5 25L0 25L0 0L0 0Z" fill="#107C41" transform="translate(25 25)" />
    <path d="M30.4175 0L0 0L0 62.5C0 62.5 30.4175 62.5 30.4175 62.5C32.9449 62.4918 34.9918 60.4449 35 57.9175C35 57.9175 35 4.58249 35 4.58249C34.9918 2.05507 32.9449 0.00821495 30.4175 0C30.4175 0 30.4175 0 30.4175 0Z" fill="#000000" fill-opacity="0.1" transform="translate(25 20)" />
    <path d="M27.9175 0L0 0L0 62.5C0 62.5 27.9175 62.5 27.9175 62.5C30.4449 62.4918 32.4918 60.4449 32.5 57.9175C32.5 57.9175 32.5 4.58249 32.5 4.58249C32.4918 2.05507 30.4449 0.00821495 27.9175 0C27.9175 0 27.9175 0 27.9175 0Z" fill="#000000" fill-opacity="0.2" transform="translate(25 22.5)" />
    <path d="M27.9175 0L0 0L0 57.5C0 57.5 27.9175 57.5 27.9175 57.5C30.4449 57.4918 32.4918 55.4449 32.5 52.9175C32.5 52.9175 32.5 4.58249 32.5 4.58249C32.4918 2.05507 30.4449 0.00821495 27.9175 0C27.9175 0 27.9175 0 27.9175 0Z" fill="#000000" fill-opacity="0.2" transform="translate(25 22.5)" />
    <path d="M25.4175 0L0 0L0 57.5C0 57.5 25.4175 57.5 25.4175 57.5C27.9449 57.4918 29.9918 55.4449 30 52.9175C30 52.9175 30 4.58249 30 4.58249C29.9918 2.05507 27.9449 0.00821495 25.4175 0C25.4175 0 25.4175 0 25.4175 0Z" fill="#000000" fill-opacity="0.2" transform="translate(25 22.5)" />
    <path d="M4.58249 0C4.58249 0 50.4175 0 50.4175 0C52.9483 0 55 2.05164 55 4.58249C55 4.58249 55 50.4175 55 50.4175C55 52.9483 52.9483 55 50.4175 55C50.4175 55 4.58249 55 4.58249 55C2.05164 55 3.58188e-07 52.9484 3.58188e-07 50.4175C3.58188e-07 50.4175 3.58188e-07 4.58249 3.58188e-07 4.58249C3.58188e-07 2.05164 2.05164 0 4.58249 0C4.58249 0 4.58249 0 4.58249 0Z" fill="url(#gradient_1)" transform="translate(0 22.5)" />
    <path d="M0 29.7925L9.64 14.855L0.807512 0L7.91249 0C7.91249 0 12.7325 9.5 12.7325 9.5C13.1775 10.4025 13.4825 11.0725 13.6475 11.515C13.6475 11.515 13.71 11.515 13.71 11.515C14.0267 10.795 14.36 10.0958 14.71 9.41747C14.71 9.41747 19.8625 0.00502396 19.8625 0.00502396L26.385 0.00502396L17.3275 14.7725L26.615 29.7925L19.675 29.7925C19.675 29.7925 14.1075 19.365 14.1075 19.365C13.8453 18.9214 13.6227 18.4554 13.4425 17.9725C13.4425 17.9725 13.36 17.9725 13.36 17.9725C13.1969 18.4455 12.9806 18.8984 12.715 19.3225C12.715 19.3225 6.98253 29.7925 6.98253 29.7925L0 29.7925L0 29.7925Z" fill="#FFFFFF" transform="translate(14.192 35.102)" />
    <path d="M35.4175 3.58188e-07L0 3.58188e-07L0 25L40 25C40 25 40 4.58249 40 4.58249C40 2.05164 37.9484 3.58188e-07 35.4175 3.58188e-07C35.4175 3.58188e-07 35.4175 3.58188e-07 35.4175 3.58188e-07L35.4175 3.58188e-07Z" fill="#33C481" transform="translate(67.5 0)" />
    <path d="M0 0L40 0L40 25L0 25L0 0L0 0Z" fill="#107C41" transform="translate(67.5 50)" />
  </g>
</svg>