<?xml version="1.0" encoding="utf-8"?>
<svg width="909.096" height="427.667" viewBox="0 0 909.096 427.667" fill="none" xmlns="http://www.w3.org/2000/svg">
  <defs>
    <linearGradient id="gradient_1" gradientUnits="userSpaceOnUse" x1="454.548" y1="0" x2="-9.454" y2="429.505">
      <stop offset="0" stop-color="#830ED8" />
      <stop offset="1" stop-color="#32199B" />
    </linearGradient>
  </defs>
  <path d="M396.479 427.667C387.493 427.667 383 423.165 383 414.163L383 223.177C383 214.174 387.493 209.672 396.479 209.672C405.465 209.672 409.958 214.174 409.958 223.177L409.958 400.659L498.854 400.659C507.84 400.659 512.333 405.16 512.333 414.163C512.333 423.165 507.84 427.667 498.854 427.667L396.479 427.667ZM597.225 427.667C572.728 427.667 554.622 421.799 542.909 410.063C531.195 398.327 525.338 380.188 525.338 355.645L525.338 281.373C525.338 256.615 531.222 238.422 542.989 226.794C554.756 215.165 572.835 209.458 597.225 209.672L635.736 209.672C660.34 209.672 678.473 215.513 690.133 227.196C701.793 238.878 707.623 257.044 707.623 281.694L707.623 355.645C707.623 380.188 701.793 398.327 690.133 410.063C678.473 421.799 660.34 427.667 635.736 427.667L597.225 427.667ZM597.225 400.658L635.736 400.658C647.182 400.658 656.168 399.292 662.694 396.559C669.219 393.826 673.846 389.191 676.574 382.653C679.302 376.115 680.666 367.113 680.666 355.645L680.666 281.694C680.666 270.334 679.302 261.384 676.574 254.847C673.846 248.309 669.219 243.647 662.694 240.86C656.168 238.074 647.182 236.681 635.736 236.681L597.225 236.681C585.886 236.573 576.953 237.86 570.428 240.539C563.902 243.218 559.249 247.827 556.468 254.364C553.686 260.902 552.296 269.905 552.296 281.373L552.296 355.645C552.296 367.113 553.66 376.115 556.387 382.653C559.115 389.191 563.742 393.826 570.267 396.559C576.793 399.292 585.779 400.658 597.225 400.658L597.225 400.658ZM805.116 427.667C780.619 427.667 762.513 421.799 750.799 410.063C739.086 398.327 733.229 380.188 733.229 355.645L733.229 281.694C733.229 256.937 739.059 238.69 750.719 226.954C762.379 215.219 780.405 209.458 804.795 209.672L843.627 209.672C863.738 209.672 879.089 213.826 889.68 222.132C900.27 230.438 906.421 243.54 908.133 261.438C908.775 265.939 907.919 269.369 905.565 271.727C903.212 274.085 899.789 275.264 895.296 275.264C887.166 275.264 882.459 270.762 881.175 261.76C880.105 251.899 876.709 245.255 870.986 241.825C865.263 238.395 856.143 236.681 843.627 236.681L804.795 236.681C793.456 236.573 784.55 237.86 778.078 240.539C771.606 243.218 767.006 247.854 764.278 254.445C761.55 261.036 760.186 270.119 760.186 281.694L760.186 355.645C760.186 367.113 761.55 376.115 764.278 382.653C767.006 389.191 771.633 393.826 778.158 396.559C784.684 399.292 793.67 400.659 805.116 400.659L843.627 400.659C853.576 400.659 861.358 399.56 866.974 397.363C872.59 395.166 876.522 391.281 878.768 385.708C881.015 380.134 882.138 372.257 882.138 362.075L882.138 346.964L857.106 346.642C848.12 346.642 843.627 342.141 843.627 333.138C843.627 324.135 848.12 319.634 857.106 319.634L895.617 319.956C904.603 319.956 909.096 324.457 909.096 333.46L909.096 362.075C909.096 384.904 903.8 401.543 893.21 411.992C882.619 422.442 866.092 427.667 843.627 427.667L805.116 427.667ZM271.333 25.3333C287.467 29.4667 299.067 36.2667 312.267 49.3333C322 58.9333 324.8 62.8 329.867 73.3333C348.667 112.133 339.333 156.267 306.667 183.6C298.533 190.267 282.267 198.933 273.467 201.333C265.2 203.467 261.467 207.333 261.467 213.2C261.467 215.867 262.4 219.067 263.333 220.4C264.4 221.733 271.067 224.8 278.133 227.333C285.2 229.733 294.533 234 298.667 236.8C320.4 251.2 335.2 275.2 338.933 302.4C341.333 319.733 338.667 334.8 329.867 353.333C324.8 363.867 322 367.733 312.267 377.333C303.067 386.533 298.533 390 289.467 394.4C268.933 404.4 275.6 404 147.867 404C69.4667 404 32.6667 403.6 30.4 402.533C22.2667 398.8 22 391.333 29.3333 370.933C36 352.133 40.6667 343.6 47.2 338C52.5333 333.467 56 331.733 86 320C136.267 300.267 175.6 273.6 200.667 242.267C204 238 206.8 234 206.8 233.333C206.8 232.8 204.533 231.867 201.733 231.333C192.533 229.867 192.533 228.8 201.6 222.667C213.333 214.667 227.733 199.867 235.067 188C241.067 178.4 248.133 162.4 250 154.133C250 154.133 250.933 150.267 250.933 150.267L244.133 151.067L237.2 151.867C237.2 151.867 240.667 147.333 240.667 147.333C242.533 144.8 245.6 140.667 247.467 138.267C257.733 124.4 267.467 94.9333 268.933 72.4C268.933 72.4 269.867 59.6 269.867 59.6C269.867 59.6 246.667 60.4 246.667 60.4C228.133 60.9333 220.533 61.7333 208.8 64.5333C162.667 75.4667 125.2 95.8667 90.2667 129.333C67.2 151.467 44 181.6 29.7333 207.867C29.7333 207.867 24.4 217.733 24.4 217.733C24.4 217.733 23.4667 210.533 23.4667 210.533C23.0667 206.533 22.8 168.8 23.0667 126.667C23.0667 126.667 23.4667 50 23.4667 50C23.4667 50 27.0667 43.2 27.0667 43.2C31.2 35.3333 40.6667 26.4 47.0667 24.4C50 23.4667 86.9333 22.9333 156.267 22.8C256.4 22.6667 261.467 22.8 271.333 25.3333C271.333 25.3333 271.333 25.3333 271.333 25.3333ZM39.2 3.20001C29.8667 6.66666 18 15.0667 12.9333 21.7333C11.0667 24.1333 7.60001 30.4 5.20001 35.4667C5.20001 35.4667 0.799988 44.6667 0.799988 44.6667L0.399994 159.733L0 274.8C0 274.8 4 278.667 4 278.667C8.66666 283.333 14.2667 283.867 19.0667 280.133C20.9333 278.533 24.5333 272.267 27.4667 265.067C55.8667 196 99.4667 141.867 151.467 111.333C166.4 102.533 188.933 93.2 205.6 88.8C219.6 85.2 238.267 82.1333 242.4 82.9333C242.4 82.9333 245.2 83.3333 245.2 83.3333C245.2 83.3333 242.667 93.3333 242.667 93.3333C235.333 122.8 216 146.667 180.533 169.867C175.2 173.333 170.8 176.533 170.8 176.933C170.8 177.333 180.667 177.467 192.8 177.067C204.933 176.667 214.8 176.667 214.8 177.067C214.8 179.333 203.6 192.133 196 198.533C184.4 208.267 170.667 216 147.333 226C137.067 230.4 128.533 234 128.267 234.267C126.933 235.2 129.867 236.133 147.2 240.933C157.333 243.6 165.333 246.267 165.2 246.8C163.733 250.933 133.2 271.867 113.467 282.4C100.533 289.333 66.4 304.267 59.7333 305.867C59.7333 305.867 56.1333 306.8 56.1333 306.8C56.1333 306.8 61.6 295.733 61.6 295.733C86 246.8 127.067 188.4 163.333 150.933C171.333 142.8 177.467 136 177.2 136C175.2 136 148.267 157.733 135.467 169.733C77.4667 223.6 33.8667 290.267 6.39999 366.667C-2.13333 390.4 -1.20001 402.267 10.1333 415.733C12 418 17.0667 421.6 21.2 423.6C21.2 423.6 28.8 427.333 28.8 427.333L146.133 427.2L263.467 427.2C263.467 427.2 275.2 424.133 275.2 424.133C297.067 418.533 313.467 409.2 328.533 394C344 378.4 353.333 362 359.067 340.8C363.067 325.6 363.067 299.733 358.933 284.667C351.6 257.6 334.8 233.467 313.2 219.2C313.2 219.2 303.867 212.933 303.867 212.933C303.867 212.933 311.067 208.933 311.067 208.933C320.8 203.333 338.667 184.933 345.467 173.467C366 138.933 367.867 98.4 350.533 62.9333C336 33.3333 309.067 11.4667 276.533 3.20001C276.533 3.20001 263.733 0 263.733 0L155.6 0.133331L47.4667 0.133331L39.2 3.20001C39.2 3.20001 39.2 3.20001 39.2 3.20001Z" fill="url(#gradient_1)" />
</svg>